<svg xmlns="http://www.w3.org/2000/svg" xmlns:xlink="http://www.w3.org/1999/xlink" width="500" zoomAndPan="magnify" viewBox="0 0 375 374.999991" height="500" preserveAspectRatio="xMidYMid meet" version="1.0"><defs><g/><clipPath id="149d235a18"><path d="M 124.164062 88.484375 L 250.914062 88.484375 L 250.914062 215.234375 L 124.164062 215.234375 Z M 124.164062 88.484375 " clip-rule="nonzero"/></clipPath><clipPath id="54b7a1ab44"><path d="M 250.832031 151.816406 C 250.832031 152.855469 250.808594 153.890625 250.757812 154.925781 C 250.707031 155.960938 250.628906 156.996094 250.527344 158.027344 C 250.425781 159.058594 250.300781 160.085938 250.148438 161.109375 C 249.996094 162.136719 249.816406 163.15625 249.617188 164.175781 C 249.414062 165.191406 249.1875 166.203125 248.933594 167.207031 C 248.683594 168.210938 248.40625 169.210938 248.105469 170.203125 C 247.804688 171.195312 247.480469 172.179688 247.128906 173.15625 C 246.78125 174.128906 246.410156 175.097656 246.011719 176.054688 C 245.613281 177.011719 245.195312 177.960938 244.753906 178.898438 C 244.308594 179.832031 243.84375 180.757812 243.355469 181.671875 C 242.867188 182.585938 242.355469 183.488281 241.820312 184.378906 C 241.289062 185.265625 240.734375 186.144531 240.160156 187.003906 C 239.582031 187.867188 238.988281 188.714844 238.367188 189.546875 C 237.75 190.378906 237.113281 191.195312 236.457031 191.996094 C 235.800781 192.796875 235.121094 193.582031 234.425781 194.351562 C 233.730469 195.117188 233.015625 195.867188 232.28125 196.601562 C 231.550781 197.335938 230.800781 198.050781 230.03125 198.746094 C 229.261719 199.441406 228.480469 200.117188 227.675781 200.777344 C 226.875 201.433594 226.058594 202.070312 225.226562 202.6875 C 224.394531 203.304688 223.546875 203.902344 222.683594 204.476562 C 221.824219 205.054688 220.949219 205.609375 220.058594 206.140625 C 219.167969 206.675781 218.269531 207.183594 217.355469 207.671875 C 216.441406 208.164062 215.515625 208.628906 214.578125 209.070312 C 213.640625 209.515625 212.691406 209.933594 211.734375 210.332031 C 210.777344 210.726562 209.8125 211.101562 208.835938 211.449219 C 207.859375 211.800781 206.875 212.125 205.882812 212.425781 C 204.890625 212.726562 203.894531 213.003906 202.886719 213.253906 C 201.882812 213.503906 200.871094 213.734375 199.855469 213.933594 C 198.839844 214.136719 197.816406 214.3125 196.792969 214.464844 C 195.765625 214.617188 194.738281 214.746094 193.707031 214.847656 C 192.675781 214.949219 191.640625 215.023438 190.605469 215.074219 C 189.570312 215.125 188.535156 215.152344 187.5 215.152344 C 186.460938 215.152344 185.425781 215.125 184.390625 215.074219 C 183.355469 215.023438 182.324219 214.949219 181.289062 214.847656 C 180.257812 214.746094 179.230469 214.617188 178.207031 214.464844 C 177.179688 214.3125 176.160156 214.136719 175.144531 213.933594 C 174.125 213.734375 173.117188 213.503906 172.109375 213.253906 C 171.105469 213.003906 170.105469 212.726562 169.113281 212.425781 C 168.121094 212.125 167.136719 211.800781 166.164062 211.449219 C 165.1875 211.101562 164.21875 210.726562 163.261719 210.332031 C 162.304688 209.933594 161.355469 209.515625 160.421875 209.070312 C 159.484375 208.628906 158.558594 208.164062 157.644531 207.671875 C 156.730469 207.183594 155.828125 206.675781 154.9375 206.140625 C 154.050781 205.609375 153.175781 205.054688 152.3125 204.476562 C 151.449219 203.902344 150.601562 203.304688 149.769531 202.6875 C 148.9375 202.070312 148.121094 201.433594 147.320312 200.777344 C 146.519531 200.117188 145.734375 199.441406 144.964844 198.746094 C 144.199219 198.050781 143.449219 197.335938 142.714844 196.601562 C 141.980469 195.867188 141.265625 195.117188 140.570312 194.351562 C 139.875 193.582031 139.199219 192.796875 138.539062 191.996094 C 137.882812 191.195312 137.246094 190.378906 136.628906 189.546875 C 136.011719 188.714844 135.414062 187.867188 134.839844 187.003906 C 134.261719 186.144531 133.707031 185.265625 133.175781 184.378906 C 132.640625 183.488281 132.132812 182.585938 131.644531 181.671875 C 131.15625 180.757812 130.6875 179.832031 130.246094 178.898438 C 129.800781 177.960938 129.382812 177.011719 128.984375 176.054688 C 128.589844 175.097656 128.214844 174.128906 127.867188 173.15625 C 127.519531 172.179688 127.191406 171.195312 126.890625 170.203125 C 126.589844 169.210938 126.316406 168.210938 126.0625 167.207031 C 125.8125 166.203125 125.582031 165.191406 125.382812 164.175781 C 125.179688 163.15625 125.003906 162.136719 124.851562 161.109375 C 124.699219 160.085938 124.570312 159.058594 124.46875 158.027344 C 124.367188 156.996094 124.292969 155.960938 124.242188 154.925781 C 124.191406 153.890625 124.164062 152.855469 124.164062 151.816406 C 124.164062 150.78125 124.191406 149.746094 124.242188 148.710938 C 124.292969 147.675781 124.367188 146.640625 124.46875 145.609375 C 124.570312 144.578125 124.699219 143.550781 124.851562 142.523438 C 125.003906 141.5 125.179688 140.480469 125.382812 139.460938 C 125.582031 138.445312 125.8125 137.433594 126.0625 136.429688 C 126.316406 135.421875 126.589844 134.425781 126.890625 133.433594 C 127.191406 132.441406 127.519531 131.457031 127.867188 130.480469 C 128.214844 129.503906 128.589844 128.539062 128.984375 127.582031 C 129.382812 126.625 129.800781 125.675781 130.246094 124.738281 C 130.6875 123.800781 131.15625 122.875 131.644531 121.960938 C 132.132812 121.046875 132.640625 120.148438 133.175781 119.257812 C 133.707031 118.367188 134.261719 117.492188 134.839844 116.632812 C 135.414062 115.769531 136.011719 114.921875 136.628906 114.089844 C 137.246094 113.257812 137.882812 112.441406 138.539062 111.640625 C 139.199219 110.839844 139.875 110.054688 140.570312 109.285156 C 141.265625 108.515625 141.980469 107.765625 142.714844 107.035156 C 143.449219 106.300781 144.199219 105.585938 144.964844 104.890625 C 145.734375 104.195312 146.519531 103.519531 147.320312 102.859375 C 148.121094 102.203125 148.9375 101.566406 149.769531 100.949219 C 150.601562 100.332031 151.449219 99.734375 152.3125 99.15625 C 153.175781 98.582031 154.050781 98.027344 154.9375 97.496094 C 155.828125 96.960938 156.730469 96.449219 157.644531 95.960938 C 158.558594 95.472656 159.484375 95.007812 160.421875 94.566406 C 161.355469 94.121094 162.304688 93.703125 163.261719 93.304688 C 164.21875 92.910156 165.1875 92.535156 166.164062 92.1875 C 167.136719 91.835938 168.121094 91.511719 169.113281 91.210938 C 170.105469 90.910156 171.105469 90.632812 172.109375 90.382812 C 173.117188 90.128906 174.125 89.902344 175.144531 89.699219 C 176.160156 89.5 177.179688 89.320312 178.207031 89.167969 C 179.230469 89.015625 180.257812 88.890625 181.289062 88.789062 C 182.324219 88.6875 183.355469 88.609375 184.390625 88.558594 C 185.425781 88.507812 186.460938 88.484375 187.5 88.484375 C 188.535156 88.484375 189.570312 88.507812 190.605469 88.558594 C 191.640625 88.609375 192.675781 88.6875 193.707031 88.789062 C 194.738281 88.890625 195.765625 89.015625 196.792969 89.167969 C 197.816406 89.320312 198.839844 89.5 199.855469 89.699219 C 200.871094 89.902344 201.882812 90.128906 202.886719 90.382812 C 203.894531 90.632812 204.890625 90.910156 205.882812 91.210938 C 206.875 91.511719 207.859375 91.835938 208.835938 92.1875 C 209.8125 92.535156 210.777344 92.910156 211.734375 93.304688 C 212.691406 93.703125 213.640625 94.121094 214.578125 94.566406 C 215.515625 95.007812 216.441406 95.472656 217.355469 95.960938 C 218.269531 96.449219 219.167969 96.960938 220.058594 97.496094 C 220.949219 98.027344 221.824219 98.582031 222.683594 99.15625 C 223.546875 99.734375 224.394531 100.332031 225.226562 100.949219 C 226.058594 101.566406 226.875 102.203125 227.675781 102.859375 C 228.480469 103.519531 229.261719 104.195312 230.03125 104.890625 C 230.800781 105.585938 231.550781 106.300781 232.28125 107.035156 C 233.015625 107.765625 233.730469 108.515625 234.425781 109.285156 C 235.121094 110.054688 235.800781 110.839844 236.457031 111.640625 C 237.113281 112.441406 237.75 113.257812 238.367188 114.089844 C 238.988281 114.921875 239.582031 115.769531 240.160156 116.632812 C 240.734375 117.492188 241.289062 118.367188 241.820312 119.257812 C 242.355469 120.148438 242.867188 121.046875 243.355469 121.960938 C 243.84375 122.875 244.308594 123.800781 244.753906 124.738281 C 245.195312 125.675781 245.613281 126.625 246.011719 127.582031 C 246.410156 128.539062 246.78125 129.503906 247.128906 130.480469 C 247.480469 131.457031 247.804688 132.441406 248.105469 133.433594 C 248.40625 134.425781 248.683594 135.421875 248.933594 136.429688 C 249.1875 137.433594 249.414062 138.445312 249.617188 139.460938 C 249.816406 140.480469 249.996094 141.5 250.148438 142.523438 C 250.300781 143.550781 250.425781 144.578125 250.527344 145.609375 C 250.628906 146.640625 250.707031 147.675781 250.757812 148.710938 C 250.808594 149.746094 250.832031 150.78125 250.832031 151.816406 Z M 250.832031 151.816406 " clip-rule="nonzero"/></clipPath><linearGradient x1="245.382098" gradientTransform="matrix(0.438791, 0.253336, 0.253336, -0.438791, 19.240849, 200.442475)" y1="425.284515" x2="233.899228" gradientUnits="userSpaceOnUse" y2="73.020256" id="12060adbc3"><stop stop-opacity="1" stop-color="rgb(32.199097%, 44.299316%, 100%)" offset="0"/><stop stop-opacity="1" stop-color="rgb(32.199097%, 44.299316%, 100%)" offset="0.0315683"/><stop stop-opacity="1" stop-color="rgb(32.199097%, 44.299316%, 100%)" offset="0.125"/><stop stop-opacity="1" stop-color="rgb(32.199097%, 44.299316%, 100%)" offset="0.140625"/><stop stop-opacity="1" stop-color="rgb(32.171631%, 44.369507%, 100%)" offset="0.148438"/><stop stop-opacity="1" stop-color="rgb(32.078552%, 44.618225%, 100%)" offset="0.15625"/><stop stop-opacity="1" stop-color="rgb(31.944275%, 44.973755%, 100%)" offset="0.164062"/><stop stop-opacity="1" stop-color="rgb(31.811523%, 45.330811%, 100%)" offset="0.171875"/><stop stop-opacity="1" stop-color="rgb(31.677246%, 45.687866%, 100%)" offset="0.179688"/><stop stop-opacity="1" stop-color="rgb(31.542969%, 46.043396%, 100%)" offset="0.1875"/><stop stop-opacity="1" stop-color="rgb(31.408691%, 46.400452%, 100%)" offset="0.195312"/><stop stop-opacity="1" stop-color="rgb(31.274414%, 46.757507%, 100%)" offset="0.203125"/><stop stop-opacity="1" stop-color="rgb(31.140137%, 47.113037%, 100%)" offset="0.210937"/><stop stop-opacity="1" stop-color="rgb(31.005859%, 47.470093%, 100%)" offset="0.21875"/><stop stop-opacity="1" stop-color="rgb(30.871582%, 47.827148%, 100%)" offset="0.226562"/><stop stop-opacity="1" stop-color="rgb(30.737305%, 48.182678%, 100%)" offset="0.234375"/><stop stop-opacity="1" stop-color="rgb(30.603027%, 48.539734%, 100%)" offset="0.242187"/><stop stop-opacity="1" stop-color="rgb(30.46875%, 48.89679%, 100%)" offset="0.25"/><stop stop-opacity="1" stop-color="rgb(30.334473%, 49.252319%, 100%)" offset="0.257812"/><stop stop-opacity="1" stop-color="rgb(30.200195%, 49.609375%, 100%)" offset="0.265625"/><stop stop-opacity="1" stop-color="rgb(30.065918%, 49.966431%, 100%)" offset="0.273438"/><stop stop-opacity="1" stop-color="rgb(29.931641%, 50.32196%, 100%)" offset="0.28125"/><stop stop-opacity="1" stop-color="rgb(29.797363%, 50.679016%, 100%)" offset="0.289062"/><stop stop-opacity="1" stop-color="rgb(29.663086%, 51.036072%, 100%)" offset="0.296875"/><stop stop-opacity="1" stop-color="rgb(29.528809%, 51.391602%, 100%)" offset="0.304687"/><stop stop-opacity="1" stop-color="rgb(29.396057%, 51.748657%, 100%)" offset="0.3125"/><stop stop-opacity="1" stop-color="rgb(29.26178%, 52.104187%, 100%)" offset="0.320312"/><stop stop-opacity="1" stop-color="rgb(29.127502%, 52.461243%, 100%)" offset="0.328125"/><stop stop-opacity="1" stop-color="rgb(28.993225%, 52.818298%, 100%)" offset="0.335937"/><stop stop-opacity="1" stop-color="rgb(28.858948%, 53.173828%, 100%)" offset="0.34375"/><stop stop-opacity="1" stop-color="rgb(28.72467%, 53.530884%, 100%)" offset="0.351562"/><stop stop-opacity="1" stop-color="rgb(28.590393%, 53.887939%, 100%)" offset="0.359375"/><stop stop-opacity="1" stop-color="rgb(28.456116%, 54.243469%, 100%)" offset="0.367187"/><stop stop-opacity="1" stop-color="rgb(28.321838%, 54.600525%, 100%)" offset="0.375"/><stop stop-opacity="1" stop-color="rgb(28.187561%, 54.957581%, 100%)" offset="0.382813"/><stop stop-opacity="1" stop-color="rgb(28.053284%, 55.31311%, 100%)" offset="0.390625"/><stop stop-opacity="1" stop-color="rgb(27.919006%, 55.670166%, 100%)" offset="0.398438"/><stop stop-opacity="1" stop-color="rgb(27.784729%, 56.027222%, 100%)" offset="0.40625"/><stop stop-opacity="1" stop-color="rgb(27.650452%, 56.382751%, 100%)" offset="0.414063"/><stop stop-opacity="1" stop-color="rgb(27.516174%, 56.739807%, 100%)" offset="0.421875"/><stop stop-opacity="1" stop-color="rgb(27.381897%, 57.096863%, 100%)" offset="0.429688"/><stop stop-opacity="1" stop-color="rgb(27.24762%, 57.452393%, 100%)" offset="0.4375"/><stop stop-opacity="1" stop-color="rgb(27.114868%, 57.809448%, 100%)" offset="0.445312"/><stop stop-opacity="1" stop-color="rgb(26.980591%, 58.166504%, 100%)" offset="0.453125"/><stop stop-opacity="1" stop-color="rgb(26.846313%, 58.522034%, 100%)" offset="0.460938"/><stop stop-opacity="1" stop-color="rgb(26.712036%, 58.879089%, 100%)" offset="0.46875"/><stop stop-opacity="1" stop-color="rgb(26.577759%, 59.234619%, 100%)" offset="0.476562"/><stop stop-opacity="1" stop-color="rgb(26.443481%, 59.591675%, 100%)" offset="0.484375"/><stop stop-opacity="1" stop-color="rgb(26.309204%, 59.94873%, 100%)" offset="0.492188"/><stop stop-opacity="1" stop-color="rgb(26.174927%, 60.30426%, 100%)" offset="0.5"/><stop stop-opacity="1" stop-color="rgb(26.040649%, 60.661316%, 100%)" offset="0.507812"/><stop stop-opacity="1" stop-color="rgb(25.906372%, 61.018372%, 100%)" offset="0.515625"/><stop stop-opacity="1" stop-color="rgb(25.772095%, 61.373901%, 100%)" offset="0.523438"/><stop stop-opacity="1" stop-color="rgb(25.637817%, 61.730957%, 100%)" offset="0.53125"/><stop stop-opacity="1" stop-color="rgb(25.50354%, 62.088013%, 100%)" offset="0.539062"/><stop stop-opacity="1" stop-color="rgb(25.369263%, 62.443542%, 100%)" offset="0.546875"/><stop stop-opacity="1" stop-color="rgb(25.234985%, 62.800598%, 100%)" offset="0.554688"/><stop stop-opacity="1" stop-color="rgb(25.100708%, 63.157654%, 100%)" offset="0.5625"/><stop stop-opacity="1" stop-color="rgb(24.966431%, 63.513184%, 100%)" offset="0.570312"/><stop stop-opacity="1" stop-color="rgb(24.832153%, 63.870239%, 100%)" offset="0.578125"/><stop stop-opacity="1" stop-color="rgb(24.699402%, 64.227295%, 100%)" offset="0.585938"/><stop stop-opacity="1" stop-color="rgb(24.565125%, 64.582825%, 100%)" offset="0.59375"/><stop stop-opacity="1" stop-color="rgb(24.430847%, 64.93988%, 100%)" offset="0.601562"/><stop stop-opacity="1" stop-color="rgb(24.29657%, 65.296936%, 100%)" offset="0.609375"/><stop stop-opacity="1" stop-color="rgb(24.162292%, 65.652466%, 100%)" offset="0.617188"/><stop stop-opacity="1" stop-color="rgb(24.028015%, 66.009521%, 100%)" offset="0.625"/><stop stop-opacity="1" stop-color="rgb(23.893738%, 66.366577%, 100%)" offset="0.632812"/><stop stop-opacity="1" stop-color="rgb(23.75946%, 66.722107%, 100%)" offset="0.640625"/><stop stop-opacity="1" stop-color="rgb(23.625183%, 67.079163%, 100%)" offset="0.648437"/><stop stop-opacity="1" stop-color="rgb(23.490906%, 67.434692%, 100%)" offset="0.65625"/><stop stop-opacity="1" stop-color="rgb(23.356628%, 67.791748%, 100%)" offset="0.664062"/><stop stop-opacity="1" stop-color="rgb(23.222351%, 68.148804%, 100%)" offset="0.671875"/><stop stop-opacity="1" stop-color="rgb(23.088074%, 68.504333%, 100%)" offset="0.679687"/><stop stop-opacity="1" stop-color="rgb(22.953796%, 68.861389%, 100%)" offset="0.6875"/><stop stop-opacity="1" stop-color="rgb(22.819519%, 69.218445%, 100%)" offset="0.695312"/><stop stop-opacity="1" stop-color="rgb(22.685242%, 69.573975%, 100%)" offset="0.703125"/><stop stop-opacity="1" stop-color="rgb(22.550964%, 69.93103%, 100%)" offset="0.710937"/><stop stop-opacity="1" stop-color="rgb(22.418213%, 70.288086%, 100%)" offset="0.71875"/><stop stop-opacity="1" stop-color="rgb(22.283936%, 70.643616%, 100%)" offset="0.726562"/><stop stop-opacity="1" stop-color="rgb(22.149658%, 71.000671%, 100%)" offset="0.734375"/><stop stop-opacity="1" stop-color="rgb(22.039795%, 71.289062%, 100%)" offset="0.75"/><stop stop-opacity="1" stop-color="rgb(21.998596%, 71.398926%, 100%)" offset="0.968432"/><stop stop-opacity="1" stop-color="rgb(21.998596%, 71.398926%, 100%)" offset="1"/></linearGradient><clipPath id="a8007d6b4b"><path d="M 137.160156 99.835938 L 237.660156 99.835938 L 237.660156 200.335938 L 137.160156 200.335938 Z M 137.160156 99.835938 " clip-rule="nonzero"/></clipPath></defs><g clip-path="url(#149d235a18)"><g clip-path="url(#54b7a1ab44)"><path fill="url(#12060adbc3)" d="M 69.316406 183.484375 L 155.832031 33.636719 L 305.679688 120.152344 L 219.164062 270 Z M 69.316406 183.484375 " fill-rule="nonzero"/></g></g><g clip-path="url(#a8007d6b4b)"><path fill="#ffffff" d="M 187.5 99.835938 C 185.851562 99.835938 184.203125 99.917969 182.5625 100.078125 C 180.921875 100.242188 179.292969 100.480469 177.679688 100.804688 C 176.0625 101.125 174.464844 101.527344 172.886719 102.003906 C 171.308594 102.484375 169.757812 103.039062 168.234375 103.667969 C 166.710938 104.300781 165.222656 105.003906 163.769531 105.78125 C 162.316406 106.558594 160.902344 107.402344 159.53125 108.320312 C 158.160156 109.234375 156.839844 110.21875 155.5625 111.261719 C 154.289062 112.308594 153.070312 113.414062 151.902344 114.582031 C 150.738281 115.746094 149.632812 116.964844 148.585938 118.242188 C 147.539062 119.515625 146.558594 120.835938 145.644531 122.207031 C 144.726562 123.578125 143.882812 124.992188 143.105469 126.445312 C 142.328125 127.898438 141.621094 129.386719 140.992188 130.910156 C 140.359375 132.433594 139.804688 133.984375 139.328125 135.5625 C 138.847656 137.140625 138.449219 138.738281 138.128906 140.355469 C 137.804688 141.972656 137.5625 143.601562 137.402344 145.242188 C 137.242188 146.882812 137.160156 148.527344 137.160156 150.175781 C 137.160156 151.824219 137.242188 153.46875 137.402344 155.109375 C 137.5625 156.75 137.804688 158.378906 138.128906 159.996094 C 138.449219 161.613281 138.847656 163.210938 139.328125 164.785156 C 139.804688 166.363281 140.359375 167.914062 140.992188 169.4375 C 141.621094 170.960938 142.328125 172.449219 143.105469 173.902344 C 143.882812 175.359375 144.726562 176.769531 145.644531 178.140625 C 146.558594 179.511719 147.539062 180.835938 148.585938 182.109375 C 149.632812 183.382812 150.738281 184.601562 151.902344 185.769531 C 153.070312 186.933594 154.289062 188.039062 155.5625 189.085938 C 156.839844 190.132812 158.160156 191.113281 159.53125 192.027344 C 160.902344 192.945312 162.316406 193.792969 163.769531 194.570312 C 165.222656 195.34375 166.710938 196.050781 168.234375 196.679688 C 169.757812 197.3125 171.308594 197.867188 172.886719 198.34375 C 174.464844 198.824219 176.0625 199.222656 177.679688 199.546875 C 179.292969 199.867188 180.921875 200.109375 182.5625 200.269531 C 184.203125 200.429688 185.851562 200.511719 187.5 200.511719 C 189.148438 200.511719 190.792969 200.429688 192.433594 200.269531 C 194.074219 200.109375 195.703125 199.867188 197.320312 199.546875 C 198.9375 199.222656 200.53125 198.824219 202.109375 198.34375 C 203.6875 197.867188 205.238281 197.3125 206.761719 196.679688 C 208.285156 196.050781 209.773438 195.34375 211.226562 194.570312 C 212.679688 193.792969 214.09375 192.945312 215.464844 192.027344 C 216.835938 191.113281 218.15625 190.132812 219.433594 189.085938 C 220.707031 188.039062 221.925781 186.933594 223.09375 185.769531 C 224.257812 184.601562 225.363281 183.382812 226.410156 182.109375 C 227.457031 180.835938 228.4375 179.511719 229.351562 178.140625 C 230.269531 176.769531 231.113281 175.359375 231.890625 173.902344 C 232.667969 172.449219 233.375 170.960938 234.003906 169.4375 C 234.636719 167.914062 235.191406 166.363281 235.667969 164.785156 C 236.148438 163.210938 236.546875 161.613281 236.867188 159.996094 C 237.191406 158.378906 237.433594 156.75 237.59375 155.109375 C 237.753906 153.46875 237.835938 151.824219 237.835938 150.175781 C 237.835938 148.527344 237.753906 146.882812 237.59375 145.242188 C 237.433594 143.601562 237.191406 141.972656 236.867188 140.355469 C 236.546875 138.738281 236.148438 137.140625 235.667969 135.5625 C 235.191406 133.984375 234.636719 132.433594 234.003906 130.910156 C 233.375 129.386719 232.667969 127.898438 231.890625 126.445312 C 231.113281 124.992188 230.269531 123.578125 229.351562 122.207031 C 228.4375 120.835938 227.457031 119.515625 226.410156 118.242188 C 225.363281 116.964844 224.257812 115.746094 223.09375 114.582031 C 221.925781 113.414062 220.707031 112.308594 219.433594 111.261719 C 218.15625 110.21875 216.835938 109.234375 215.464844 108.320312 C 214.09375 107.402344 212.679688 106.558594 211.226562 105.78125 C 209.773438 105.003906 208.285156 104.300781 206.761719 103.667969 C 205.238281 103.039062 203.6875 102.484375 202.109375 102.003906 C 200.53125 101.527344 198.9375 101.125 197.320312 100.804688 C 195.703125 100.480469 194.074219 100.242188 192.433594 100.078125 C 190.792969 99.917969 189.148438 99.835938 187.5 99.835938 Z M 194.6875 167.738281 C 194.46875 167.769531 194.242188 167.777344 194.019531 167.761719 C 193.796875 167.746094 193.574219 167.707031 193.359375 167.644531 C 193.144531 167.582031 192.9375 167.496094 192.742188 167.390625 C 192.542969 167.285156 192.359375 167.15625 192.1875 167.011719 C 192.019531 166.863281 191.867188 166.699219 191.730469 166.523438 C 191.59375 166.34375 191.480469 166.152344 191.386719 165.945312 C 191.289062 165.742188 191.21875 165.53125 191.167969 165.3125 C 191.121094 165.09375 191.09375 164.871094 191.09375 164.648438 L 191.09375 156.375 C 191.09375 156.027344 191.148438 155.6875 191.265625 155.355469 C 191.378906 155.027344 191.542969 154.722656 191.761719 154.449219 C 191.980469 154.175781 192.234375 153.945312 192.53125 153.757812 C 192.824219 153.570312 193.144531 153.4375 193.484375 153.355469 C 194.144531 153.207031 194.785156 152.996094 195.40625 152.726562 C 196.023438 152.457031 196.613281 152.128906 197.171875 151.75 C 197.730469 151.367188 198.25 150.9375 198.726562 150.457031 C 199.207031 149.980469 199.632812 149.460938 200.015625 148.902344 C 200.394531 148.339844 200.71875 147.75 200.988281 147.128906 C 201.257812 146.507812 201.46875 145.871094 201.617188 145.210938 C 201.765625 144.550781 201.851562 143.882812 201.875 143.207031 C 201.894531 142.53125 201.855469 141.855469 201.753906 141.1875 C 201.648438 140.519531 201.484375 139.867188 201.257812 139.230469 C 201.03125 138.59375 200.746094 137.980469 200.40625 137.398438 C 200.066406 136.8125 199.671875 136.265625 199.226562 135.753906 C 198.785156 135.246094 198.296875 134.78125 197.765625 134.363281 C 197.234375 133.945312 196.667969 133.578125 196.066406 133.265625 C 195.464844 132.957031 194.84375 132.703125 194.195312 132.507812 C 193.546875 132.3125 192.886719 132.179688 192.214844 132.109375 C 191.539062 132.039062 190.867188 132.03125 190.191406 132.089844 C 189.519531 132.144531 188.855469 132.265625 188.203125 132.445312 C 187.550781 132.625 186.921875 132.867188 186.316406 133.167969 C 185.710938 133.464844 185.136719 133.820312 184.597656 134.226562 C 184.058594 134.632812 183.558594 135.089844 183.105469 135.589844 C 182.648438 136.089844 182.246094 136.628906 181.894531 137.207031 C 181.539062 137.785156 181.242188 138.386719 181.003906 139.019531 C 180.765625 139.652344 180.585938 140.304688 180.46875 140.96875 C 180.351562 141.636719 180.296875 142.308594 180.308594 142.984375 L 180.308594 177.140625 C 180.308594 177.496094 180.273438 177.847656 180.203125 178.191406 C 180.132812 178.539062 180.03125 178.878906 179.898438 179.207031 C 179.761719 179.53125 179.59375 179.84375 179.398438 180.136719 C 179.203125 180.433594 178.976562 180.703125 178.726562 180.953125 C 178.476562 181.207031 178.203125 181.429688 177.910156 181.625 C 177.617188 181.824219 177.304688 181.988281 176.976562 182.125 C 176.652344 182.257812 176.3125 182.363281 175.964844 182.429688 C 175.617188 182.5 175.269531 182.535156 174.914062 182.535156 L 171.316406 182.535156 C 170.964844 182.535156 170.613281 182.5 170.265625 182.429688 C 169.917969 182.363281 169.582031 182.257812 169.253906 182.125 C 168.925781 181.988281 168.617188 181.824219 168.320312 181.625 C 168.027344 181.429688 167.753906 181.207031 167.503906 180.953125 C 167.253906 180.703125 167.03125 180.433594 166.832031 180.136719 C 166.636719 179.84375 166.472656 179.53125 166.335938 179.207031 C 166.199219 178.878906 166.097656 178.539062 166.027344 178.191406 C 165.960938 177.847656 165.925781 177.496094 165.925781 177.140625 L 165.925781 143.628906 C 165.914062 142.820312 165.945312 142.015625 166.011719 141.207031 C 166.078125 140.402344 166.183594 139.601562 166.328125 138.804688 C 166.472656 138.007812 166.652344 137.222656 166.871094 136.441406 C 167.089844 135.664062 167.34375 134.894531 167.636719 134.140625 C 167.925781 133.386719 168.253906 132.648438 168.613281 131.921875 C 168.972656 131.199219 169.367188 130.492188 169.796875 129.808594 C 170.226562 129.121094 170.683594 128.457031 171.175781 127.8125 C 171.667969 127.171875 172.1875 126.550781 172.738281 125.957031 C 173.285156 125.363281 173.863281 124.800781 174.464844 124.261719 C 175.070312 123.722656 175.699219 123.210938 176.347656 122.734375 C 177 122.253906 177.671875 121.804688 178.367188 121.390625 C 179.0625 120.976562 179.773438 120.59375 180.503906 120.246094 C 181.234375 119.898438 181.980469 119.585938 182.738281 119.308594 C 183.5 119.03125 184.273438 118.789062 185.054688 118.585938 C 185.835938 118.382812 186.628906 118.214844 187.425781 118.085938 C 188.226562 117.957031 189.027344 117.867188 189.835938 117.8125 C 190.617188 117.804688 191.394531 117.832031 192.171875 117.894531 C 192.949219 117.957031 193.722656 118.054688 194.492188 118.1875 C 195.257812 118.324219 196.019531 118.492188 196.773438 118.699219 C 197.523438 118.902344 198.265625 119.140625 198.996094 119.414062 C 199.726562 119.691406 200.445312 119.996094 201.144531 120.335938 C 201.847656 120.679688 202.53125 121.050781 203.199219 121.453125 C 203.867188 121.859375 204.511719 122.292969 205.140625 122.757812 C 205.765625 123.222656 206.371094 123.714844 206.953125 124.234375 C 207.53125 124.753906 208.089844 125.300781 208.617188 125.875 C 209.148438 126.445312 209.652344 127.042969 210.125 127.660156 C 210.601562 128.28125 211.046875 128.917969 211.460938 129.578125 C 211.875 130.238281 212.261719 130.917969 212.613281 131.613281 C 212.964844 132.308594 213.285156 133.019531 213.570312 133.746094 C 213.855469 134.472656 214.109375 135.210938 214.328125 135.960938 C 214.542969 136.707031 214.726562 137.464844 214.875 138.230469 C 215.019531 138.996094 215.132812 139.769531 215.207031 140.546875 C 215.285156 141.320312 215.324219 142.101562 215.324219 142.878906 C 215.328125 143.660156 215.296875 144.4375 215.226562 145.214844 C 215.15625 145.992188 215.050781 146.765625 214.910156 147.53125 C 214.769531 148.300781 214.59375 149.058594 214.382812 149.808594 C 214.171875 150.558594 213.925781 151.300781 213.644531 152.027344 C 213.363281 152.753906 213.050781 153.46875 212.703125 154.167969 C 212.355469 154.867188 211.976562 155.546875 211.566406 156.210938 C 211.15625 156.875 210.71875 157.519531 210.25 158.140625 C 209.777344 158.765625 209.28125 159.363281 208.753906 159.941406 C 208.230469 160.515625 207.679688 161.066406 207.101562 161.59375 C 206.523438 162.117188 205.925781 162.613281 205.300781 163.085938 C 204.679688 163.554688 204.035156 163.992188 203.371094 164.402344 C 202.707031 164.8125 202.027344 165.191406 201.328125 165.535156 C 200.628906 165.882812 199.914062 166.195312 199.1875 166.476562 C 198.457031 166.753906 197.71875 167 196.96875 167.210938 C 196.214844 167.421875 195.457031 167.597656 194.6875 167.738281 Z M 194.6875 167.738281 " fill-opacity="1" fill-rule="nonzero"/></g><g fill="#ffffff" fill-opacity="1"><g transform="translate(106.160307, 269.904196)"><g><path d="M 23.984375 -17.671875 C 25.453125 -16.898438 26.59375 -15.820312 27.40625 -14.4375 C 28.21875 -13.050781 28.625 -11.460938 28.625 -9.671875 C 28.625 -7.878906 28.148438 -6.25 27.203125 -4.78125 C 26.265625 -3.3125 24.988281 -2.144531 23.375 -1.28125 C 21.769531 -0.425781 20.007812 0 18.09375 0 L 3.828125 0 L 3.828125 -33.515625 L 17.71875 -33.515625 C 19.632812 -33.515625 21.347656 -33.140625 22.859375 -32.390625 C 24.378906 -31.640625 25.578125 -30.609375 26.453125 -29.296875 C 27.328125 -27.992188 27.765625 -26.523438 27.765625 -24.890625 C 27.765625 -23.453125 27.425781 -22.09375 26.75 -20.8125 C 26.082031 -19.539062 25.160156 -18.492188 23.984375 -17.671875 Z M 20.734375 -23.75 C 20.734375 -24.800781 20.394531 -25.660156 19.71875 -26.328125 C 19.050781 -27.003906 18.144531 -27.34375 17 -27.34375 L 10.96875 -27.34375 L 10.96875 -20.203125 L 17 -20.203125 C 18.144531 -20.203125 19.050781 -20.535156 19.71875 -21.203125 C 20.394531 -21.878906 20.734375 -22.726562 20.734375 -23.75 Z M 17.375 -6.65625 C 18.59375 -6.65625 19.5625 -7.003906 20.28125 -7.703125 C 21 -8.410156 21.359375 -9.320312 21.359375 -10.4375 C 21.359375 -11.519531 21 -12.410156 20.28125 -13.109375 C 19.5625 -13.816406 18.59375 -14.171875 17.375 -14.171875 L 10.96875 -14.171875 L 10.96875 -6.65625 Z M 17.375 -6.65625 "/></g></g></g><g fill="#ffffff" fill-opacity="1"><g transform="translate(135.792509, 269.904196)"><g><path d="M 3.34375 -29.296875 L 3.34375 -35.8125 L 10.34375 -35.8125 L 10.34375 -29.296875 Z M 3.34375 0 L 3.34375 -25.859375 L 10.34375 -25.859375 L 10.34375 0 Z M 3.34375 0 "/></g></g></g><g fill="#ffffff" fill-opacity="1"><g transform="translate(148.382572, 269.904196)"><g><path d="M 24.21875 -25.859375 L 28.765625 -25.859375 L 28.765625 -3.015625 C 28.765625 -0.304688 28.226562 2.019531 27.15625 3.96875 C 26.09375 5.914062 24.570312 7.414062 22.59375 8.46875 C 20.613281 9.519531 18.269531 10.046875 15.5625 10.046875 C 12.050781 10.046875 9.117188 9.203125 6.765625 7.515625 C 4.421875 5.828125 2.960938 3.515625 2.390625 0.578125 L 9.328125 0.578125 C 9.710938 1.722656 10.503906 2.585938 11.703125 3.171875 C 12.898438 3.765625 14.140625 4.0625 15.421875 4.0625 C 17.203125 4.0625 18.722656 3.523438 19.984375 2.453125 C 21.242188 1.390625 21.875 -0.0976562 21.875 -2.015625 L 21.875 -2.96875 C 20.851562 -2.226562 19.71875 -1.660156 18.46875 -1.265625 C 17.226562 -0.867188 15.90625 -0.671875 14.5 -0.671875 C 12.113281 -0.671875 9.945312 -1.242188 8 -2.390625 C 6.050781 -3.546875 4.507812 -5.09375 3.375 -7.03125 C 2.238281 -8.976562 1.671875 -11.164062 1.671875 -13.59375 C 1.671875 -16.019531 2.238281 -18.210938 3.375 -20.171875 C 4.507812 -22.140625 6.050781 -23.695312 8 -24.84375 C 9.945312 -26 12.113281 -26.578125 14.5 -26.578125 C 16.195312 -26.578125 17.78125 -26.285156 19.25 -25.703125 C 20.71875 -25.128906 22.007812 -24.316406 23.125 -23.265625 Z M 15.3125 -6.890625 C 17.226562 -6.890625 18.804688 -7.519531 20.046875 -8.78125 C 21.296875 -10.039062 21.921875 -11.644531 21.921875 -13.59375 C 21.921875 -15.507812 21.304688 -17.097656 20.078125 -18.359375 C 18.847656 -19.617188 17.257812 -20.25 15.3125 -20.25 C 13.4375 -20.25 11.875 -19.617188 10.625 -18.359375 C 9.382812 -17.097656 8.765625 -15.507812 8.765625 -13.59375 C 8.765625 -11.644531 9.378906 -10.039062 10.609375 -8.78125 C 11.835938 -7.519531 13.40625 -6.890625 15.3125 -6.890625 Z M 15.3125 -6.890625 "/></g></g></g><g fill="#ffffff" fill-opacity="1"><g transform="translate(179.403034, 269.904196)"><g><path d="M 16.703125 -33.515625 C 18.972656 -33.515625 20.992188 -33.007812 22.765625 -32 C 24.535156 -31 25.945312 -29.628906 27 -27.890625 C 28.050781 -26.148438 28.578125 -24.175781 28.578125 -21.96875 C 28.578125 -19.769531 28.054688 -17.800781 27.015625 -16.0625 C 25.984375 -14.320312 24.570312 -12.957031 22.78125 -11.96875 C 21 -10.976562 18.972656 -10.484375 16.703125 -10.484375 L 11.109375 -10.484375 L 11.109375 0 L 3.828125 0 L 3.828125 -33.515625 Z M 16.421875 -17.1875 C 17.859375 -17.1875 19.015625 -17.640625 19.890625 -18.546875 C 20.765625 -19.460938 21.203125 -20.601562 21.203125 -21.96875 C 21.203125 -23.375 20.765625 -24.53125 19.890625 -25.4375 C 19.015625 -26.351562 17.859375 -26.8125 16.421875 -26.8125 L 11.109375 -26.8125 L 11.109375 -17.1875 Z M 16.421875 -17.1875 "/></g></g></g><g fill="#ffffff" fill-opacity="1"><g transform="translate(208.077812, 269.904196)"><g><path d="M 24.46875 -25.90625 L 29.6875 -25.90625 L 29.6875 -0.046875 L 24.171875 -0.046875 L 23.609375 -2.34375 C 22.484375 -1.382812 21.210938 -0.632812 19.796875 -0.09375 C 18.378906 0.445312 16.851562 0.71875 15.21875 0.71875 C 12.632812 0.71875 10.320312 0.117188 8.28125 -1.078125 C 6.238281 -2.273438 4.625 -3.898438 3.4375 -5.953125 C 2.257812 -8.015625 1.671875 -10.351562 1.671875 -12.96875 C 1.671875 -15.5625 2.257812 -17.882812 3.4375 -19.9375 C 4.625 -22 6.238281 -23.617188 8.28125 -24.796875 C 10.320312 -25.984375 12.632812 -26.578125 15.21875 -26.578125 C 16.882812 -26.578125 18.429688 -26.296875 19.859375 -25.734375 C 21.296875 -25.171875 22.578125 -24.394531 23.703125 -23.40625 Z M 15.796875 -5.890625 C 17.140625 -5.890625 18.34375 -6.191406 19.40625 -6.796875 C 20.476562 -7.398438 21.316406 -8.238281 21.921875 -9.3125 C 22.535156 -10.382812 22.84375 -11.601562 22.84375 -12.96875 C 22.84375 -14.3125 22.535156 -15.515625 21.921875 -16.578125 C 21.316406 -17.648438 20.476562 -18.5 19.40625 -19.125 C 18.34375 -19.75 17.140625 -20.0625 15.796875 -20.0625 C 14.421875 -20.0625 13.207031 -19.75 12.15625 -19.125 C 11.101562 -18.5 10.273438 -17.648438 9.671875 -16.578125 C 9.066406 -15.515625 8.765625 -14.3125 8.765625 -12.96875 C 8.765625 -11.601562 9.066406 -10.390625 9.671875 -9.328125 C 10.273438 -8.273438 11.101562 -7.4375 12.15625 -6.8125 C 13.207031 -6.195312 14.421875 -5.890625 15.796875 -5.890625 Z M 15.796875 -5.890625 "/></g></g></g><g fill="#ffffff" fill-opacity="1"><g transform="translate(240.007833, 269.904196)"><g><path d="M 21.203125 -25.859375 L 28.671875 -25.859375 L 17.375 -0.328125 C 16.351562 1.992188 15.316406 3.863281 14.265625 5.28125 C 13.210938 6.707031 12.015625 7.738281 10.671875 8.375 C 9.335938 9.007812 7.695312 9.328125 5.75 9.328125 L 2.875 9.328125 L 2.875 3.015625 L 5.3125 3.015625 C 6.425781 3.015625 7.3125 2.882812 7.96875 2.625 C 8.625 2.375 9.179688 1.90625 9.640625 1.21875 C 10.109375 0.53125 10.613281 -0.460938 11.15625 -1.765625 L 11.25 -1.96875 L 0.28125 -25.859375 L 7.90625 -25.859375 L 14.796875 -9.953125 Z M 21.203125 -25.859375 "/></g></g></g></svg>