<svg xmlns="http://www.w3.org/2000/svg" xmlns:xlink="http://www.w3.org/1999/xlink" width="500" zoomAndPan="magnify" viewBox="0 0 375 374.999991" height="500" preserveAspectRatio="xMidYMid meet" version="1.0"><defs><g/><clipPath id="6c37fc1fdc"><path d="M 56.5625 145.527344 L 140.5625 145.527344 L 140.5625 229.527344 L 56.5625 229.527344 Z M 56.5625 145.527344 " clip-rule="nonzero"/></clipPath><clipPath id="3192db673c"><path d="M 140.503906 187.496094 C 140.503906 188.871094 140.4375 190.242188 140.300781 191.609375 C 140.167969 192.976562 139.964844 194.335938 139.699219 195.683594 C 139.429688 197.03125 139.097656 198.363281 138.695312 199.679688 C 138.296875 200.996094 137.835938 202.289062 137.308594 203.558594 C 136.785156 204.828125 136.195312 206.070312 135.546875 207.28125 C 134.902344 208.492188 134.195312 209.671875 133.429688 210.8125 C 132.667969 211.957031 131.847656 213.058594 130.976562 214.121094 C 130.105469 215.183594 129.183594 216.203125 128.210938 217.175781 C 127.238281 218.144531 126.222656 219.066406 125.160156 219.941406 C 124.097656 220.8125 122.996094 221.628906 121.851562 222.394531 C 120.707031 223.15625 119.53125 223.863281 118.320312 224.511719 C 117.105469 225.160156 115.863281 225.746094 114.59375 226.273438 C 113.324219 226.796875 112.03125 227.261719 110.71875 227.660156 C 109.402344 228.058594 108.070312 228.390625 106.722656 228.660156 C 105.375 228.929688 104.015625 229.128906 102.648438 229.265625 C 101.28125 229.398438 99.910156 229.46875 98.535156 229.46875 C 97.160156 229.46875 95.789062 229.398438 94.417969 229.265625 C 93.050781 229.128906 91.695312 228.929688 90.34375 228.660156 C 88.996094 228.390625 87.664062 228.058594 86.351562 227.660156 C 85.035156 227.261719 83.742188 226.796875 82.472656 226.273438 C 81.203125 225.746094 79.960938 225.160156 78.75 224.511719 C 77.535156 223.863281 76.359375 223.15625 75.214844 222.394531 C 74.074219 221.628906 72.96875 220.8125 71.90625 219.941406 C 70.84375 219.066406 69.828125 218.144531 68.855469 217.175781 C 67.882812 216.203125 66.960938 215.183594 66.089844 214.121094 C 65.21875 213.058594 64.398438 211.957031 63.636719 210.8125 C 62.871094 209.671875 62.167969 208.492188 61.519531 207.28125 C 60.871094 206.070312 60.285156 204.828125 59.757812 203.558594 C 59.230469 202.289062 58.769531 200.996094 58.371094 199.679688 C 57.972656 198.363281 57.636719 197.03125 57.371094 195.683594 C 57.101562 194.335938 56.898438 192.976562 56.765625 191.609375 C 56.628906 190.242188 56.5625 188.871094 56.5625 187.496094 C 56.5625 186.121094 56.628906 184.75 56.765625 183.382812 C 56.898438 182.015625 57.101562 180.65625 57.371094 179.308594 C 57.636719 177.960938 57.972656 176.628906 58.371094 175.3125 C 58.769531 173.996094 59.230469 172.703125 59.757812 171.433594 C 60.285156 170.164062 60.871094 168.921875 61.519531 167.710938 C 62.167969 166.5 62.871094 165.320312 63.636719 164.179688 C 64.398438 163.035156 65.21875 161.933594 66.089844 160.871094 C 66.960938 159.808594 67.882812 158.789062 68.855469 157.820312 C 69.828125 156.847656 70.84375 155.925781 71.90625 155.050781 C 72.96875 154.179688 74.074219 153.363281 75.214844 152.597656 C 76.359375 151.835938 77.535156 151.128906 78.75 150.480469 C 79.960938 149.832031 81.203125 149.246094 82.472656 148.71875 C 83.742188 148.195312 85.035156 147.730469 86.351562 147.332031 C 87.664062 146.933594 88.996094 146.601562 90.34375 146.332031 C 91.695312 146.0625 93.050781 145.863281 94.417969 145.726562 C 95.789062 145.59375 97.160156 145.527344 98.535156 145.527344 C 99.910156 145.527344 101.28125 145.59375 102.648438 145.726562 C 104.015625 145.863281 105.375 146.0625 106.722656 146.332031 C 108.070312 146.601562 109.402344 146.933594 110.71875 147.332031 C 112.03125 147.730469 113.324219 148.195312 114.59375 148.71875 C 115.863281 149.246094 117.105469 149.832031 118.320312 150.480469 C 119.53125 151.128906 120.707031 151.835938 121.851562 152.597656 C 122.996094 153.363281 124.097656 154.179688 125.160156 155.050781 C 126.222656 155.925781 127.238281 156.847656 128.210938 157.820312 C 129.183594 158.789062 130.105469 159.808594 130.976562 160.871094 C 131.847656 161.933594 132.667969 163.035156 133.429688 164.179688 C 134.195312 165.320312 134.902344 166.5 135.546875 167.710938 C 136.195312 168.921875 136.785156 170.164062 137.308594 171.433594 C 137.835938 172.703125 138.296875 173.996094 138.695312 175.3125 C 139.097656 176.628906 139.429688 177.960938 139.699219 179.308594 C 139.964844 180.65625 140.167969 182.015625 140.300781 183.382812 C 140.4375 184.75 140.503906 186.121094 140.503906 187.496094 Z M 140.503906 187.496094 " clip-rule="nonzero"/></clipPath><linearGradient x1="245.3821" gradientTransform="matrix(0.290782, 0.167883, 0.167883, -0.290782, -12.968947, 219.719205)" y1="425.284582" x2="233.89923" gradientUnits="userSpaceOnUse" y2="73.020336" id="ee65a2ff94"><stop stop-opacity="1" stop-color="rgb(32.199097%, 44.299316%, 100%)" offset="0"/><stop stop-opacity="1" stop-color="rgb(32.199097%, 44.299316%, 100%)" offset="0.0315683"/><stop stop-opacity="1" stop-color="rgb(32.199097%, 44.299316%, 100%)" offset="0.125"/><stop stop-opacity="1" stop-color="rgb(32.199097%, 44.299316%, 100%)" offset="0.140625"/><stop stop-opacity="1" stop-color="rgb(32.171631%, 44.369507%, 100%)" offset="0.148437"/><stop stop-opacity="1" stop-color="rgb(32.078552%, 44.618225%, 100%)" offset="0.15625"/><stop stop-opacity="1" stop-color="rgb(31.944275%, 44.973755%, 100%)" offset="0.164062"/><stop stop-opacity="1" stop-color="rgb(31.811523%, 45.330811%, 100%)" offset="0.171875"/><stop stop-opacity="1" stop-color="rgb(31.677246%, 45.687866%, 100%)" offset="0.179687"/><stop stop-opacity="1" stop-color="rgb(31.542969%, 46.043396%, 100%)" offset="0.1875"/><stop stop-opacity="1" stop-color="rgb(31.408691%, 46.400452%, 100%)" offset="0.195312"/><stop stop-opacity="1" stop-color="rgb(31.274414%, 46.757507%, 100%)" offset="0.203125"/><stop stop-opacity="1" stop-color="rgb(31.140137%, 47.113037%, 100%)" offset="0.210938"/><stop stop-opacity="1" stop-color="rgb(31.005859%, 47.470093%, 100%)" offset="0.21875"/><stop stop-opacity="1" stop-color="rgb(30.871582%, 47.827148%, 100%)" offset="0.226562"/><stop stop-opacity="1" stop-color="rgb(30.737305%, 48.182678%, 100%)" offset="0.234375"/><stop stop-opacity="1" stop-color="rgb(30.603027%, 48.539734%, 100%)" offset="0.242187"/><stop stop-opacity="1" stop-color="rgb(30.46875%, 48.89679%, 100%)" offset="0.25"/><stop stop-opacity="1" stop-color="rgb(30.334473%, 49.252319%, 100%)" offset="0.257812"/><stop stop-opacity="1" stop-color="rgb(30.200195%, 49.609375%, 100%)" offset="0.265625"/><stop stop-opacity="1" stop-color="rgb(30.065918%, 49.966431%, 100%)" offset="0.273437"/><stop stop-opacity="1" stop-color="rgb(29.931641%, 50.32196%, 100%)" offset="0.28125"/><stop stop-opacity="1" stop-color="rgb(29.797363%, 50.679016%, 100%)" offset="0.289062"/><stop stop-opacity="1" stop-color="rgb(29.663086%, 51.036072%, 100%)" offset="0.296875"/><stop stop-opacity="1" stop-color="rgb(29.528809%, 51.391602%, 100%)" offset="0.304688"/><stop stop-opacity="1" stop-color="rgb(29.396057%, 51.748657%, 100%)" offset="0.3125"/><stop stop-opacity="1" stop-color="rgb(29.26178%, 52.104187%, 100%)" offset="0.320312"/><stop stop-opacity="1" stop-color="rgb(29.127502%, 52.461243%, 100%)" offset="0.328125"/><stop stop-opacity="1" stop-color="rgb(28.993225%, 52.818298%, 100%)" offset="0.335938"/><stop stop-opacity="1" stop-color="rgb(28.858948%, 53.173828%, 100%)" offset="0.34375"/><stop stop-opacity="1" stop-color="rgb(28.72467%, 53.530884%, 100%)" offset="0.351562"/><stop stop-opacity="1" stop-color="rgb(28.590393%, 53.887939%, 100%)" offset="0.359375"/><stop stop-opacity="1" stop-color="rgb(28.456116%, 54.243469%, 100%)" offset="0.367187"/><stop stop-opacity="1" stop-color="rgb(28.321838%, 54.600525%, 100%)" offset="0.375"/><stop stop-opacity="1" stop-color="rgb(28.187561%, 54.957581%, 100%)" offset="0.382812"/><stop stop-opacity="1" stop-color="rgb(28.053284%, 55.31311%, 100%)" offset="0.390625"/><stop stop-opacity="1" stop-color="rgb(27.919006%, 55.670166%, 100%)" offset="0.398437"/><stop stop-opacity="1" stop-color="rgb(27.784729%, 56.027222%, 100%)" offset="0.40625"/><stop stop-opacity="1" stop-color="rgb(27.650452%, 56.382751%, 100%)" offset="0.414062"/><stop stop-opacity="1" stop-color="rgb(27.516174%, 56.739807%, 100%)" offset="0.421875"/><stop stop-opacity="1" stop-color="rgb(27.381897%, 57.096863%, 100%)" offset="0.429687"/><stop stop-opacity="1" stop-color="rgb(27.24762%, 57.452393%, 100%)" offset="0.4375"/><stop stop-opacity="1" stop-color="rgb(27.114868%, 57.809448%, 100%)" offset="0.445312"/><stop stop-opacity="1" stop-color="rgb(26.980591%, 58.166504%, 100%)" offset="0.453125"/><stop stop-opacity="1" stop-color="rgb(26.846313%, 58.522034%, 100%)" offset="0.460937"/><stop stop-opacity="1" stop-color="rgb(26.712036%, 58.879089%, 100%)" offset="0.46875"/><stop stop-opacity="1" stop-color="rgb(26.577759%, 59.234619%, 100%)" offset="0.476562"/><stop stop-opacity="1" stop-color="rgb(26.443481%, 59.591675%, 100%)" offset="0.484375"/><stop stop-opacity="1" stop-color="rgb(26.309204%, 59.94873%, 100%)" offset="0.492187"/><stop stop-opacity="1" stop-color="rgb(26.174927%, 60.30426%, 100%)" offset="0.5"/><stop stop-opacity="1" stop-color="rgb(26.040649%, 60.661316%, 100%)" offset="0.507812"/><stop stop-opacity="1" stop-color="rgb(25.906372%, 61.018372%, 100%)" offset="0.515625"/><stop stop-opacity="1" stop-color="rgb(25.772095%, 61.373901%, 100%)" offset="0.523438"/><stop stop-opacity="1" stop-color="rgb(25.637817%, 61.730957%, 100%)" offset="0.53125"/><stop stop-opacity="1" stop-color="rgb(25.50354%, 62.088013%, 100%)" offset="0.539062"/><stop stop-opacity="1" stop-color="rgb(25.369263%, 62.443542%, 100%)" offset="0.546875"/><stop stop-opacity="1" stop-color="rgb(25.234985%, 62.800598%, 100%)" offset="0.554688"/><stop stop-opacity="1" stop-color="rgb(25.100708%, 63.157654%, 100%)" offset="0.5625"/><stop stop-opacity="1" stop-color="rgb(24.966431%, 63.513184%, 100%)" offset="0.570312"/><stop stop-opacity="1" stop-color="rgb(24.832153%, 63.870239%, 100%)" offset="0.578125"/><stop stop-opacity="1" stop-color="rgb(24.699402%, 64.227295%, 100%)" offset="0.585937"/><stop stop-opacity="1" stop-color="rgb(24.565125%, 64.582825%, 100%)" offset="0.59375"/><stop stop-opacity="1" stop-color="rgb(24.430847%, 64.93988%, 100%)" offset="0.601562"/><stop stop-opacity="1" stop-color="rgb(24.29657%, 65.296936%, 100%)" offset="0.609375"/><stop stop-opacity="1" stop-color="rgb(24.162292%, 65.652466%, 100%)" offset="0.617187"/><stop stop-opacity="1" stop-color="rgb(24.028015%, 66.009521%, 100%)" offset="0.625"/><stop stop-opacity="1" stop-color="rgb(23.893738%, 66.366577%, 100%)" offset="0.632812"/><stop stop-opacity="1" stop-color="rgb(23.75946%, 66.722107%, 100%)" offset="0.640625"/><stop stop-opacity="1" stop-color="rgb(23.625183%, 67.079163%, 100%)" offset="0.648437"/><stop stop-opacity="1" stop-color="rgb(23.490906%, 67.434692%, 100%)" offset="0.65625"/><stop stop-opacity="1" stop-color="rgb(23.356628%, 67.791748%, 100%)" offset="0.664062"/><stop stop-opacity="1" stop-color="rgb(23.222351%, 68.148804%, 100%)" offset="0.671875"/><stop stop-opacity="1" stop-color="rgb(23.088074%, 68.504333%, 100%)" offset="0.679688"/><stop stop-opacity="1" stop-color="rgb(22.953796%, 68.861389%, 100%)" offset="0.6875"/><stop stop-opacity="1" stop-color="rgb(22.819519%, 69.218445%, 100%)" offset="0.695312"/><stop stop-opacity="1" stop-color="rgb(22.685242%, 69.573975%, 100%)" offset="0.703125"/><stop stop-opacity="1" stop-color="rgb(22.550964%, 69.93103%, 100%)" offset="0.710938"/><stop stop-opacity="1" stop-color="rgb(22.418213%, 70.288086%, 100%)" offset="0.71875"/><stop stop-opacity="1" stop-color="rgb(22.283936%, 70.643616%, 100%)" offset="0.726562"/><stop stop-opacity="1" stop-color="rgb(22.149658%, 71.000671%, 100%)" offset="0.734375"/><stop stop-opacity="1" stop-color="rgb(22.039795%, 71.289062%, 100%)" offset="0.75"/><stop stop-opacity="1" stop-color="rgb(21.998596%, 71.398926%, 100%)" offset="0.968432"/><stop stop-opacity="1" stop-color="rgb(21.998596%, 71.398926%, 100%)" offset="1"/></linearGradient><clipPath id="b5da63132c"><path d="M 65.175781 153.050781 L 131.925781 153.050781 L 131.925781 219.800781 L 65.175781 219.800781 Z M 65.175781 153.050781 " clip-rule="nonzero"/></clipPath></defs><g clip-path="url(#6c37fc1fdc)"><g clip-path="url(#3192db673c)"><path fill="url(#ee65a2ff94)" d="M 20.214844 208.480469 L 77.546875 109.179688 L 176.851562 166.511719 L 119.519531 265.816406 Z M 20.214844 208.480469 " fill-rule="nonzero"/></g></g><g clip-path="url(#b5da63132c)"><path fill="#ffffff" d="M 98.53125 153.050781 C 97.441406 153.050781 96.351562 153.101562 95.261719 153.210938 C 94.175781 153.316406 93.097656 153.476562 92.023438 153.691406 C 90.953125 153.902344 89.894531 154.167969 88.851562 154.484375 C 87.804688 154.804688 86.777344 155.171875 85.769531 155.589844 C 84.757812 156.007812 83.773438 156.472656 82.808594 156.988281 C 81.84375 157.503906 80.910156 158.0625 80 158.671875 C 79.09375 159.277344 78.214844 159.929688 77.371094 160.621094 C 76.527344 161.3125 75.71875 162.046875 74.945312 162.820312 C 74.171875 163.59375 73.441406 164.402344 72.746094 165.246094 C 72.054688 166.089844 71.402344 166.964844 70.796875 167.875 C 70.191406 168.78125 69.628906 169.71875 69.113281 170.683594 C 68.597656 171.644531 68.132812 172.632812 67.714844 173.640625 C 67.296875 174.652344 66.929688 175.679688 66.613281 176.722656 C 66.292969 177.769531 66.03125 178.828125 65.816406 179.898438 C 65.601562 180.96875 65.441406 182.050781 65.335938 183.136719 C 65.230469 184.222656 65.175781 185.3125 65.175781 186.40625 C 65.175781 187.5 65.230469 188.589844 65.335938 189.675781 C 65.441406 190.761719 65.601562 191.84375 65.816406 192.914062 C 66.03125 193.984375 66.292969 195.042969 66.613281 196.089844 C 66.929688 197.136719 67.296875 198.164062 67.714844 199.171875 C 68.132812 200.179688 68.597656 201.167969 69.113281 202.132812 C 69.628906 203.09375 70.191406 204.03125 70.796875 204.9375 C 71.402344 205.847656 72.054688 206.722656 72.746094 207.570312 C 73.441406 208.414062 74.171875 209.222656 74.945312 209.992188 C 75.71875 210.765625 76.527344 211.5 77.371094 212.191406 C 78.214844 212.886719 79.09375 213.535156 80 214.140625 C 80.910156 214.75 81.84375 215.308594 82.808594 215.824219 C 83.773438 216.339844 84.757812 216.808594 85.769531 217.226562 C 86.777344 217.644531 87.804688 218.011719 88.851562 218.328125 C 89.894531 218.644531 90.953125 218.910156 92.023438 219.125 C 93.097656 219.335938 94.175781 219.496094 95.261719 219.601562 C 96.351562 219.710938 97.441406 219.765625 98.53125 219.765625 C 99.625 219.765625 100.714844 219.710938 101.800781 219.601562 C 102.890625 219.496094 103.96875 219.335938 105.039062 219.125 C 106.113281 218.910156 107.171875 218.644531 108.214844 218.328125 C 109.261719 218.011719 110.289062 217.644531 111.296875 217.226562 C 112.308594 216.808594 113.292969 216.339844 114.257812 215.824219 C 115.222656 215.308594 116.15625 214.75 117.066406 214.140625 C 117.972656 213.535156 118.851562 212.886719 119.695312 212.191406 C 120.539062 211.5 121.347656 210.765625 122.121094 209.992188 C 122.894531 209.222656 123.625 208.414062 124.320312 207.570312 C 125.011719 206.722656 125.660156 205.847656 126.269531 204.9375 C 126.875 204.03125 127.4375 203.09375 127.953125 202.132812 C 128.464844 201.167969 128.933594 200.179688 129.351562 199.171875 C 129.769531 198.164062 130.136719 197.136719 130.453125 196.089844 C 130.769531 195.042969 131.035156 193.984375 131.25 192.914062 C 131.460938 191.84375 131.621094 190.761719 131.730469 189.675781 C 131.835938 188.589844 131.890625 187.5 131.890625 186.40625 C 131.890625 185.3125 131.835938 184.222656 131.730469 183.136719 C 131.621094 182.050781 131.460938 180.96875 131.25 179.898438 C 131.035156 178.828125 130.769531 177.769531 130.453125 176.722656 C 130.136719 175.679688 129.769531 174.652344 129.351562 173.640625 C 128.933594 172.632812 128.464844 171.644531 127.953125 170.683594 C 127.4375 169.71875 126.875 168.78125 126.269531 167.875 C 125.660156 166.964844 125.011719 166.089844 124.320312 165.246094 C 123.625 164.402344 122.894531 163.59375 122.121094 162.820312 C 121.347656 162.046875 120.539062 161.3125 119.695312 160.621094 C 118.851562 159.929688 117.972656 159.277344 117.066406 158.671875 C 116.15625 158.0625 115.222656 157.503906 114.257812 156.988281 C 113.292969 156.472656 112.308594 156.007812 111.296875 155.589844 C 110.289062 155.171875 109.261719 154.804688 108.214844 154.484375 C 107.171875 154.167969 106.113281 153.902344 105.039062 153.691406 C 103.96875 153.476562 102.890625 153.316406 101.800781 153.210938 C 100.714844 153.101562 99.625 153.050781 98.53125 153.050781 Z M 103.296875 198.046875 C 103 198.089844 102.707031 198.070312 102.417969 197.984375 C 102.128906 197.898438 101.871094 197.757812 101.640625 197.5625 C 101.414062 197.367188 101.234375 197.132812 101.109375 196.859375 C 100.980469 196.585938 100.917969 196.296875 100.914062 195.996094 L 100.914062 190.515625 C 100.914062 190.285156 100.953125 190.058594 101.027344 189.839844 C 101.105469 189.621094 101.214844 189.421875 101.359375 189.238281 C 101.503906 189.058594 101.671875 188.90625 101.867188 188.78125 C 102.0625 188.65625 102.273438 188.566406 102.5 188.515625 C 102.9375 188.414062 103.359375 188.277344 103.773438 188.097656 C 104.183594 187.917969 104.574219 187.703125 104.945312 187.449219 C 105.3125 187.195312 105.65625 186.910156 105.972656 186.59375 C 106.292969 186.277344 106.574219 185.933594 106.828125 185.5625 C 107.078125 185.191406 107.292969 184.800781 107.472656 184.390625 C 107.652344 183.976562 107.789062 183.554688 107.886719 183.117188 C 107.988281 182.679688 108.042969 182.238281 108.058594 181.789062 C 108.074219 181.339844 108.046875 180.894531 107.980469 180.453125 C 107.910156 180.007812 107.800781 179.578125 107.652344 179.152344 C 107.5 178.730469 107.3125 178.328125 107.085938 177.941406 C 106.859375 177.550781 106.601562 177.191406 106.304688 176.851562 C 106.011719 176.511719 105.6875 176.207031 105.335938 175.929688 C 104.984375 175.652344 104.609375 175.410156 104.210938 175.203125 C 103.8125 174.996094 103.398438 174.828125 102.96875 174.699219 C 102.542969 174.570312 102.105469 174.484375 101.65625 174.4375 C 101.210938 174.390625 100.765625 174.386719 100.320312 174.421875 C 99.871094 174.460938 99.433594 174.539062 99 174.660156 C 98.570312 174.777344 98.152344 174.9375 97.75 175.136719 C 97.347656 175.335938 96.96875 175.570312 96.609375 175.839844 C 96.253906 176.109375 95.921875 176.410156 95.621094 176.742188 C 95.320312 177.074219 95.054688 177.429688 94.820312 177.8125 C 94.585938 178.195312 94.386719 178.597656 94.230469 179.015625 C 94.070312 179.433594 93.953125 179.863281 93.875 180.308594 C 93.796875 180.75 93.761719 181.191406 93.769531 181.640625 L 93.769531 204.277344 C 93.769531 204.75 93.675781 205.207031 93.496094 205.644531 C 93.3125 206.082031 93.054688 206.46875 92.722656 206.804688 C 92.386719 207.140625 92 207.398438 91.5625 207.578125 C 91.125 207.761719 90.667969 207.851562 90.195312 207.851562 L 87.8125 207.851562 C 87.335938 207.851562 86.882812 207.761719 86.441406 207.578125 C 86.003906 207.398438 85.617188 207.140625 85.285156 206.804688 C 84.949219 206.46875 84.691406 206.082031 84.507812 205.644531 C 84.328125 205.207031 84.238281 204.75 84.238281 204.277344 L 84.238281 182.070312 C 84.226562 180.996094 84.3125 179.929688 84.503906 178.871094 C 84.695312 177.816406 84.984375 176.785156 85.371094 175.78125 C 85.757812 174.777344 86.234375 173.820312 86.804688 172.910156 C 87.371094 172 88.019531 171.148438 88.75 170.359375 C 89.480469 169.570312 90.277344 168.859375 91.144531 168.222656 C 92.011719 167.585938 92.929688 167.035156 93.898438 166.574219 C 94.867188 166.113281 95.875 165.746094 96.914062 165.472656 C 97.953125 165.203125 99.007812 165.03125 100.082031 164.960938 C 101.117188 164.949219 102.144531 165.03125 103.167969 165.210938 C 104.1875 165.390625 105.183594 165.660156 106.152344 166.023438 C 107.125 166.386719 108.050781 166.839844 108.9375 167.375 C 109.824219 167.910156 110.652344 168.527344 111.425781 169.21875 C 112.195312 169.910156 112.898438 170.664062 113.527344 171.488281 C 114.160156 172.308594 114.707031 173.183594 115.175781 174.109375 C 115.644531 175.03125 116.023438 175.992188 116.3125 176.988281 C 116.601562 177.980469 116.796875 178.996094 116.894531 180.027344 C 116.996094 181.058594 117 182.089844 116.90625 183.121094 C 116.816406 184.152344 116.628906 185.167969 116.347656 186.164062 C 116.066406 187.164062 115.695312 188.125 115.234375 189.054688 C 114.773438 189.980469 114.234375 190.859375 113.609375 191.6875 C 112.984375 192.511719 112.289062 193.273438 111.523438 193.972656 C 110.757812 194.671875 109.933594 195.292969 109.050781 195.835938 C 108.167969 196.378906 107.246094 196.835938 106.277344 197.207031 C 105.3125 197.582031 104.316406 197.859375 103.296875 198.046875 Z M 103.296875 198.046875 " fill-opacity="1" fill-rule="nonzero"/></g><g fill="#ffffff" fill-opacity="1"><g transform="translate(151.281573, 199.499987)"><g><path d="M 23.984375 -17.671875 C 25.453125 -16.898438 26.59375 -15.820312 27.40625 -14.4375 C 28.21875 -13.050781 28.625 -11.460938 28.625 -9.671875 C 28.625 -7.878906 28.148438 -6.25 27.203125 -4.78125 C 26.265625 -3.3125 24.988281 -2.144531 23.375 -1.28125 C 21.769531 -0.425781 20.007812 0 18.09375 0 L 3.828125 0 L 3.828125 -33.515625 L 17.71875 -33.515625 C 19.632812 -33.515625 21.347656 -33.140625 22.859375 -32.390625 C 24.378906 -31.640625 25.578125 -30.609375 26.453125 -29.296875 C 27.328125 -27.992188 27.765625 -26.523438 27.765625 -24.890625 C 27.765625 -23.453125 27.425781 -22.09375 26.75 -20.8125 C 26.082031 -19.539062 25.160156 -18.492188 23.984375 -17.671875 Z M 20.734375 -23.75 C 20.734375 -24.800781 20.394531 -25.660156 19.71875 -26.328125 C 19.050781 -27.003906 18.144531 -27.34375 17 -27.34375 L 10.96875 -27.34375 L 10.96875 -20.203125 L 17 -20.203125 C 18.144531 -20.203125 19.050781 -20.535156 19.71875 -21.203125 C 20.394531 -21.878906 20.734375 -22.726562 20.734375 -23.75 Z M 17.375 -6.65625 C 18.59375 -6.65625 19.5625 -7.003906 20.28125 -7.703125 C 21 -8.410156 21.359375 -9.320312 21.359375 -10.4375 C 21.359375 -11.519531 21 -12.410156 20.28125 -13.109375 C 19.5625 -13.816406 18.59375 -14.171875 17.375 -14.171875 L 10.96875 -14.171875 L 10.96875 -6.65625 Z M 17.375 -6.65625 "/></g></g></g><g fill="#ffffff" fill-opacity="1"><g transform="translate(180.913774, 199.499987)"><g><path d="M 3.34375 -29.296875 L 3.34375 -35.8125 L 10.34375 -35.8125 L 10.34375 -29.296875 Z M 3.34375 0 L 3.34375 -25.859375 L 10.34375 -25.859375 L 10.34375 0 Z M 3.34375 0 "/></g></g></g><g fill="#ffffff" fill-opacity="1"><g transform="translate(193.503837, 199.499987)"><g><path d="M 24.21875 -25.859375 L 28.765625 -25.859375 L 28.765625 -3.015625 C 28.765625 -0.304688 28.226562 2.019531 27.15625 3.96875 C 26.09375 5.914062 24.570312 7.414062 22.59375 8.46875 C 20.613281 9.519531 18.269531 10.046875 15.5625 10.046875 C 12.050781 10.046875 9.117188 9.203125 6.765625 7.515625 C 4.421875 5.828125 2.960938 3.515625 2.390625 0.578125 L 9.328125 0.578125 C 9.710938 1.722656 10.503906 2.585938 11.703125 3.171875 C 12.898438 3.765625 14.140625 4.0625 15.421875 4.0625 C 17.203125 4.0625 18.722656 3.523438 19.984375 2.453125 C 21.242188 1.390625 21.875 -0.0976562 21.875 -2.015625 L 21.875 -2.96875 C 20.851562 -2.226562 19.71875 -1.660156 18.46875 -1.265625 C 17.226562 -0.867188 15.90625 -0.671875 14.5 -0.671875 C 12.113281 -0.671875 9.945312 -1.242188 8 -2.390625 C 6.050781 -3.546875 4.507812 -5.09375 3.375 -7.03125 C 2.238281 -8.976562 1.671875 -11.164062 1.671875 -13.59375 C 1.671875 -16.019531 2.238281 -18.210938 3.375 -20.171875 C 4.507812 -22.140625 6.050781 -23.695312 8 -24.84375 C 9.945312 -26 12.113281 -26.578125 14.5 -26.578125 C 16.195312 -26.578125 17.78125 -26.285156 19.25 -25.703125 C 20.71875 -25.128906 22.007812 -24.316406 23.125 -23.265625 Z M 15.3125 -6.890625 C 17.226562 -6.890625 18.804688 -7.519531 20.046875 -8.78125 C 21.296875 -10.039062 21.921875 -11.644531 21.921875 -13.59375 C 21.921875 -15.507812 21.304688 -17.097656 20.078125 -18.359375 C 18.847656 -19.617188 17.257812 -20.25 15.3125 -20.25 C 13.4375 -20.25 11.875 -19.617188 10.625 -18.359375 C 9.382812 -17.097656 8.765625 -15.507812 8.765625 -13.59375 C 8.765625 -11.644531 9.378906 -10.039062 10.609375 -8.78125 C 11.835938 -7.519531 13.40625 -6.890625 15.3125 -6.890625 Z M 15.3125 -6.890625 "/></g></g></g><g fill="#ffffff" fill-opacity="1"><g transform="translate(224.524299, 199.499987)"><g><path d="M 16.703125 -33.515625 C 18.972656 -33.515625 20.992188 -33.007812 22.765625 -32 C 24.535156 -31 25.945312 -29.628906 27 -27.890625 C 28.050781 -26.148438 28.578125 -24.175781 28.578125 -21.96875 C 28.578125 -19.769531 28.054688 -17.800781 27.015625 -16.0625 C 25.984375 -14.320312 24.570312 -12.957031 22.78125 -11.96875 C 21 -10.976562 18.972656 -10.484375 16.703125 -10.484375 L 11.109375 -10.484375 L 11.109375 0 L 3.828125 0 L 3.828125 -33.515625 Z M 16.421875 -17.1875 C 17.859375 -17.1875 19.015625 -17.640625 19.890625 -18.546875 C 20.765625 -19.460938 21.203125 -20.601562 21.203125 -21.96875 C 21.203125 -23.375 20.765625 -24.53125 19.890625 -25.4375 C 19.015625 -26.351562 17.859375 -26.8125 16.421875 -26.8125 L 11.109375 -26.8125 L 11.109375 -17.1875 Z M 16.421875 -17.1875 "/></g></g></g><g fill="#ffffff" fill-opacity="1"><g transform="translate(253.199077, 199.499987)"><g><path d="M 24.46875 -25.90625 L 29.6875 -25.90625 L 29.6875 -0.046875 L 24.171875 -0.046875 L 23.609375 -2.34375 C 22.484375 -1.382812 21.210938 -0.632812 19.796875 -0.09375 C 18.378906 0.445312 16.851562 0.71875 15.21875 0.71875 C 12.632812 0.71875 10.320312 0.117188 8.28125 -1.078125 C 6.238281 -2.273438 4.625 -3.898438 3.4375 -5.953125 C 2.257812 -8.015625 1.671875 -10.351562 1.671875 -12.96875 C 1.671875 -15.5625 2.257812 -17.882812 3.4375 -19.9375 C 4.625 -22 6.238281 -23.617188 8.28125 -24.796875 C 10.320312 -25.984375 12.632812 -26.578125 15.21875 -26.578125 C 16.882812 -26.578125 18.429688 -26.296875 19.859375 -25.734375 C 21.296875 -25.171875 22.578125 -24.394531 23.703125 -23.40625 Z M 15.796875 -5.890625 C 17.140625 -5.890625 18.34375 -6.191406 19.40625 -6.796875 C 20.476562 -7.398438 21.316406 -8.238281 21.921875 -9.3125 C 22.535156 -10.382812 22.84375 -11.601562 22.84375 -12.96875 C 22.84375 -14.3125 22.535156 -15.515625 21.921875 -16.578125 C 21.316406 -17.648438 20.476562 -18.5 19.40625 -19.125 C 18.34375 -19.75 17.140625 -20.0625 15.796875 -20.0625 C 14.421875 -20.0625 13.207031 -19.75 12.15625 -19.125 C 11.101562 -18.5 10.273438 -17.648438 9.671875 -16.578125 C 9.066406 -15.515625 8.765625 -14.3125 8.765625 -12.96875 C 8.765625 -11.601562 9.066406 -10.390625 9.671875 -9.328125 C 10.273438 -8.273438 11.101562 -7.4375 12.15625 -6.8125 C 13.207031 -6.195312 14.421875 -5.890625 15.796875 -5.890625 Z M 15.796875 -5.890625 "/></g></g></g><g fill="#ffffff" fill-opacity="1"><g transform="translate(285.129098, 199.499987)"><g><path d="M 21.203125 -25.859375 L 28.671875 -25.859375 L 17.375 -0.328125 C 16.351562 1.992188 15.316406 3.863281 14.265625 5.28125 C 13.210938 6.707031 12.015625 7.738281 10.671875 8.375 C 9.335938 9.007812 7.695312 9.328125 5.75 9.328125 L 2.875 9.328125 L 2.875 3.015625 L 5.3125 3.015625 C 6.425781 3.015625 7.3125 2.882812 7.96875 2.625 C 8.625 2.375 9.179688 1.90625 9.640625 1.21875 C 10.109375 0.53125 10.613281 -0.460938 11.15625 -1.765625 L 11.25 -1.96875 L 0.28125 -25.859375 L 7.90625 -25.859375 L 14.796875 -9.953125 Z M 21.203125 -25.859375 "/></g></g></g></svg>