<svg xmlns="http://www.w3.org/2000/svg" xmlns:xlink="http://www.w3.org/1999/xlink" width="500" zoomAndPan="magnify" viewBox="0 0 375 374.999991" height="500" preserveAspectRatio="xMidYMid meet" version="1.0"><defs><clipPath id="b121b0e9d3"><path d="M 74.519531 74.519531 L 300.269531 74.519531 L 300.269531 300.269531 L 74.519531 300.269531 Z M 74.519531 74.519531 " clip-rule="nonzero"/></clipPath><clipPath id="ef49d52683"><path d="M 300.46875 187.496094 C 300.46875 189.34375 300.425781 191.191406 300.332031 193.039062 C 300.242188 194.886719 300.105469 196.730469 299.925781 198.570312 C 299.746094 200.410156 299.519531 202.242188 299.246094 204.070312 C 298.976562 205.902344 298.660156 207.722656 298.300781 209.535156 C 297.9375 211.347656 297.535156 213.152344 297.085938 214.945312 C 296.636719 216.738281 296.140625 218.519531 295.605469 220.289062 C 295.070312 222.058594 294.488281 223.816406 293.867188 225.554688 C 293.242188 227.296875 292.578125 229.019531 291.871094 230.730469 C 291.164062 232.4375 290.414062 234.125 289.625 235.796875 C 288.832031 237.46875 288 239.121094 287.128906 240.75 C 286.257812 242.382812 285.347656 243.988281 284.398438 245.574219 C 283.445312 247.160156 282.457031 248.722656 281.429688 250.261719 C 280.402344 251.796875 279.339844 253.308594 278.238281 254.792969 C 277.136719 256.28125 276 257.738281 274.824219 259.164062 C 273.652344 260.59375 272.445312 261.996094 271.203125 263.363281 C 269.960938 264.734375 268.6875 266.074219 267.378906 267.378906 C 266.074219 268.6875 264.734375 269.960938 263.363281 271.203125 C 261.996094 272.445312 260.59375 273.652344 259.164062 274.824219 C 257.738281 276 256.28125 277.136719 254.792969 278.238281 C 253.308594 279.339844 251.796875 280.402344 250.261719 281.429688 C 248.722656 282.457031 247.160156 283.445312 245.574219 284.398438 C 243.988281 285.347656 242.382812 286.257812 240.75 287.128906 C 239.121094 288 237.46875 288.832031 235.796875 289.625 C 234.125 290.414062 232.4375 291.164062 230.730469 291.871094 C 229.019531 292.578125 227.296875 293.242188 225.554688 293.867188 C 223.816406 294.488281 222.058594 295.070312 220.289062 295.605469 C 218.519531 296.140625 216.738281 296.636719 214.945312 297.085938 C 213.152344 297.535156 211.347656 297.9375 209.535156 298.300781 C 207.722656 298.660156 205.902344 298.976562 204.070312 299.246094 C 202.242188 299.519531 200.410156 299.746094 198.570312 299.925781 C 196.730469 300.105469 194.886719 300.242188 193.039062 300.332031 C 191.191406 300.425781 189.34375 300.46875 187.496094 300.46875 C 185.648438 300.46875 183.796875 300.425781 181.953125 300.332031 C 180.105469 300.242188 178.261719 300.105469 176.421875 299.925781 C 174.582031 299.746094 172.746094 299.519531 170.917969 299.246094 C 169.089844 298.976562 167.269531 298.660156 165.457031 298.300781 C 163.640625 297.9375 161.839844 297.535156 160.042969 297.085938 C 158.25 296.636719 156.46875 296.140625 154.699219 295.605469 C 152.929688 295.070312 151.175781 294.488281 149.433594 293.867188 C 147.695312 293.242188 145.96875 292.578125 144.261719 291.871094 C 142.554688 291.164062 140.863281 290.414062 139.191406 289.625 C 137.519531 288.832031 135.871094 288 134.238281 287.128906 C 132.609375 286.257812 131 285.347656 129.414062 284.398438 C 127.828125 283.445312 126.265625 282.457031 124.730469 281.429688 C 123.191406 280.402344 121.679688 279.339844 120.195312 278.238281 C 118.710938 277.136719 117.253906 276 115.824219 274.824219 C 114.394531 273.652344 112.996094 272.445312 111.625 271.203125 C 110.257812 269.960938 108.917969 268.6875 107.609375 267.378906 C 106.304688 266.074219 105.027344 264.734375 103.785156 263.363281 C 102.546875 261.996094 101.335938 260.59375 100.164062 259.164062 C 98.992188 257.738281 97.855469 256.28125 96.753906 254.792969 C 95.652344 253.308594 94.585938 251.796875 93.558594 250.261719 C 92.535156 248.722656 91.542969 247.160156 90.59375 245.574219 C 89.644531 243.988281 88.730469 242.382812 87.859375 240.75 C 86.988281 239.121094 86.15625 237.46875 85.367188 235.796875 C 84.578125 234.125 83.828125 232.4375 83.121094 230.730469 C 82.414062 229.019531 81.746094 227.296875 81.125 225.554688 C 80.503906 223.816406 79.921875 222.058594 79.386719 220.289062 C 78.847656 218.519531 78.355469 216.738281 77.90625 214.945312 C 77.457031 213.152344 77.050781 211.347656 76.691406 209.535156 C 76.332031 207.722656 76.015625 205.902344 75.742188 204.070312 C 75.472656 202.242188 75.246094 200.410156 75.066406 198.570312 C 74.882812 196.730469 74.746094 194.886719 74.65625 193.039062 C 74.566406 191.191406 74.519531 189.34375 74.519531 187.496094 C 74.519531 185.648438 74.566406 183.796875 74.65625 181.953125 C 74.746094 180.105469 74.882812 178.261719 75.066406 176.421875 C 75.246094 174.582031 75.472656 172.746094 75.742188 170.917969 C 76.015625 169.089844 76.332031 167.269531 76.691406 165.457031 C 77.050781 163.640625 77.457031 161.839844 77.90625 160.042969 C 78.355469 158.25 78.847656 156.46875 79.386719 154.699219 C 79.921875 152.929688 80.503906 151.175781 81.125 149.433594 C 81.746094 147.695312 82.414062 145.96875 83.121094 144.261719 C 83.828125 142.554688 84.578125 140.863281 85.367188 139.191406 C 86.15625 137.519531 86.988281 135.871094 87.859375 134.238281 C 88.730469 132.609375 89.644531 131 90.59375 129.414062 C 91.542969 127.828125 92.535156 126.265625 93.558594 124.730469 C 94.585938 123.191406 95.652344 121.679688 96.753906 120.195312 C 97.855469 118.710938 98.992188 117.253906 100.164062 115.824219 C 101.335938 114.394531 102.546875 112.996094 103.785156 111.625 C 105.027344 110.257812 106.304688 108.917969 107.609375 107.609375 C 108.917969 106.304688 110.257812 105.027344 111.625 103.785156 C 112.996094 102.546875 114.394531 101.335938 115.824219 100.164062 C 117.253906 98.992188 118.710938 97.855469 120.195312 96.753906 C 121.679688 95.652344 123.191406 94.585938 124.730469 93.558594 C 126.265625 92.535156 127.828125 91.542969 129.414062 90.59375 C 131 89.644531 132.609375 88.730469 134.238281 87.859375 C 135.871094 86.988281 137.519531 86.15625 139.191406 85.367188 C 140.863281 84.578125 142.554688 83.828125 144.261719 83.121094 C 145.96875 82.414062 147.695312 81.746094 149.433594 81.125 C 151.175781 80.503906 152.929688 79.921875 154.699219 79.386719 C 156.46875 78.847656 158.25 78.355469 160.042969 77.90625 C 161.839844 77.457031 163.640625 77.050781 165.457031 76.691406 C 167.269531 76.332031 169.089844 76.015625 170.917969 75.742188 C 172.746094 75.472656 174.582031 75.246094 176.421875 75.066406 C 178.261719 74.882812 180.105469 74.746094 181.953125 74.65625 C 183.796875 74.566406 185.648438 74.519531 187.496094 74.519531 C 189.34375 74.519531 191.191406 74.566406 193.039062 74.65625 C 194.886719 74.746094 196.730469 74.882812 198.570312 75.066406 C 200.410156 75.246094 202.242188 75.472656 204.070312 75.742188 C 205.902344 76.015625 207.722656 76.332031 209.535156 76.691406 C 211.347656 77.050781 213.152344 77.457031 214.945312 77.90625 C 216.738281 78.355469 218.519531 78.847656 220.289062 79.386719 C 222.058594 79.921875 223.816406 80.503906 225.554688 81.125 C 227.296875 81.746094 229.019531 82.414062 230.730469 83.121094 C 232.4375 83.828125 234.125 84.578125 235.796875 85.367188 C 237.46875 86.15625 239.121094 86.988281 240.75 87.859375 C 242.382812 88.730469 243.988281 89.644531 245.574219 90.59375 C 247.160156 91.542969 248.722656 92.535156 250.261719 93.558594 C 251.796875 94.585938 253.308594 95.652344 254.792969 96.753906 C 256.28125 97.855469 257.738281 98.992188 259.164062 100.164062 C 260.59375 101.335938 261.996094 102.546875 263.363281 103.785156 C 264.734375 105.027344 266.074219 106.304688 267.378906 107.609375 C 268.6875 108.917969 269.960938 110.257812 271.203125 111.625 C 272.445312 112.996094 273.652344 114.394531 274.824219 115.824219 C 276 117.253906 277.136719 118.710938 278.238281 120.195312 C 279.339844 121.679688 280.402344 123.191406 281.429688 124.730469 C 282.457031 126.265625 283.445312 127.828125 284.398438 129.414062 C 285.347656 131 286.257812 132.609375 287.128906 134.238281 C 288 135.871094 288.832031 137.519531 289.625 139.191406 C 290.414062 140.863281 291.164062 142.554688 291.871094 144.261719 C 292.578125 145.96875 293.242188 147.695312 293.867188 149.433594 C 294.488281 151.175781 295.070312 152.929688 295.605469 154.699219 C 296.140625 156.46875 296.636719 158.25 297.085938 160.042969 C 297.535156 161.839844 297.9375 163.640625 298.300781 165.457031 C 298.660156 167.269531 298.976562 169.089844 299.246094 170.917969 C 299.519531 172.746094 299.746094 174.582031 299.925781 176.421875 C 300.105469 178.261719 300.242188 180.105469 300.332031 181.953125 C 300.425781 183.796875 300.46875 185.648438 300.46875 187.496094 Z M 300.46875 187.496094 " clip-rule="nonzero"/></clipPath><linearGradient x1="245.378189" gradientTransform="matrix(0.782711, 0.451898, 0.451898, -0.782711, -112.641625, 274.231364)" y1="425.164608" x2="233.905444" gradientUnits="userSpaceOnUse" y2="73.210972" id="da085e9189"><stop stop-opacity="1" stop-color="rgb(32.199097%, 44.299316%, 100%)" offset="0"/><stop stop-opacity="1" stop-color="rgb(32.199097%, 44.299316%, 100%)" offset="0.0315683"/><stop stop-opacity="1" stop-color="rgb(32.199097%, 44.299316%, 100%)" offset="0.125"/><stop stop-opacity="1" stop-color="rgb(32.199097%, 44.299316%, 100%)" offset="0.140625"/><stop stop-opacity="1" stop-color="rgb(32.170105%, 44.374084%, 100%)" offset="0.148438"/><stop stop-opacity="1" stop-color="rgb(32.0755%, 44.62738%, 100%)" offset="0.15625"/><stop stop-opacity="1" stop-color="rgb(31.941223%, 44.98291%, 100%)" offset="0.164062"/><stop stop-opacity="1" stop-color="rgb(31.806946%, 45.339966%, 100%)" offset="0.171875"/><stop stop-opacity="1" stop-color="rgb(31.672668%, 45.695496%, 100%)" offset="0.179688"/><stop stop-opacity="1" stop-color="rgb(31.539917%, 46.052551%, 100%)" offset="0.1875"/><stop stop-opacity="1" stop-color="rgb(31.40564%, 46.408081%, 100%)" offset="0.195312"/><stop stop-opacity="1" stop-color="rgb(31.271362%, 46.765137%, 100%)" offset="0.203125"/><stop stop-opacity="1" stop-color="rgb(31.137085%, 47.120667%, 100%)" offset="0.210938"/><stop stop-opacity="1" stop-color="rgb(31.002808%, 47.476196%, 100%)" offset="0.21875"/><stop stop-opacity="1" stop-color="rgb(30.86853%, 47.833252%, 100%)" offset="0.226562"/><stop stop-opacity="1" stop-color="rgb(30.734253%, 48.188782%, 100%)" offset="0.234375"/><stop stop-opacity="1" stop-color="rgb(30.601501%, 48.545837%, 100%)" offset="0.242188"/><stop stop-opacity="1" stop-color="rgb(30.467224%, 48.901367%, 100%)" offset="0.25"/><stop stop-opacity="1" stop-color="rgb(30.332947%, 49.258423%, 100%)" offset="0.257812"/><stop stop-opacity="1" stop-color="rgb(30.198669%, 49.613953%, 100%)" offset="0.265625"/><stop stop-opacity="1" stop-color="rgb(30.064392%, 49.971008%, 100%)" offset="0.273438"/><stop stop-opacity="1" stop-color="rgb(29.930115%, 50.326538%, 100%)" offset="0.28125"/><stop stop-opacity="1" stop-color="rgb(29.795837%, 50.682068%, 100%)" offset="0.289062"/><stop stop-opacity="1" stop-color="rgb(29.66156%, 51.039124%, 100%)" offset="0.296875"/><stop stop-opacity="1" stop-color="rgb(29.528809%, 51.394653%, 100%)" offset="0.304688"/><stop stop-opacity="1" stop-color="rgb(29.394531%, 51.751709%, 100%)" offset="0.3125"/><stop stop-opacity="1" stop-color="rgb(29.260254%, 52.107239%, 100%)" offset="0.320312"/><stop stop-opacity="1" stop-color="rgb(29.125977%, 52.464294%, 100%)" offset="0.328125"/><stop stop-opacity="1" stop-color="rgb(28.991699%, 52.819824%, 100%)" offset="0.335938"/><stop stop-opacity="1" stop-color="rgb(28.857422%, 53.17688%, 100%)" offset="0.34375"/><stop stop-opacity="1" stop-color="rgb(28.723145%, 53.53241%, 100%)" offset="0.351563"/><stop stop-opacity="1" stop-color="rgb(28.590393%, 53.887939%, 100%)" offset="0.359375"/><stop stop-opacity="1" stop-color="rgb(28.456116%, 54.244995%, 100%)" offset="0.367188"/><stop stop-opacity="1" stop-color="rgb(28.321838%, 54.600525%, 100%)" offset="0.375"/><stop stop-opacity="1" stop-color="rgb(28.187561%, 54.957581%, 100%)" offset="0.382812"/><stop stop-opacity="1" stop-color="rgb(28.053284%, 55.31311%, 100%)" offset="0.390625"/><stop stop-opacity="1" stop-color="rgb(27.919006%, 55.670166%, 100%)" offset="0.398437"/><stop stop-opacity="1" stop-color="rgb(27.784729%, 56.025696%, 100%)" offset="0.40625"/><stop stop-opacity="1" stop-color="rgb(27.650452%, 56.382751%, 100%)" offset="0.414062"/><stop stop-opacity="1" stop-color="rgb(27.5177%, 56.738281%, 100%)" offset="0.421875"/><stop stop-opacity="1" stop-color="rgb(27.383423%, 57.093811%, 100%)" offset="0.429688"/><stop stop-opacity="1" stop-color="rgb(27.249146%, 57.450867%, 100%)" offset="0.4375"/><stop stop-opacity="1" stop-color="rgb(27.114868%, 57.806396%, 100%)" offset="0.445312"/><stop stop-opacity="1" stop-color="rgb(26.980591%, 58.163452%, 100%)" offset="0.453125"/><stop stop-opacity="1" stop-color="rgb(26.846313%, 58.518982%, 100%)" offset="0.460938"/><stop stop-opacity="1" stop-color="rgb(26.712036%, 58.876038%, 100%)" offset="0.46875"/><stop stop-opacity="1" stop-color="rgb(26.579285%, 59.231567%, 100%)" offset="0.476562"/><stop stop-opacity="1" stop-color="rgb(26.445007%, 59.588623%, 100%)" offset="0.484375"/><stop stop-opacity="1" stop-color="rgb(26.31073%, 59.944153%, 100%)" offset="0.492188"/><stop stop-opacity="1" stop-color="rgb(26.176453%, 60.299683%, 100%)" offset="0.5"/><stop stop-opacity="1" stop-color="rgb(26.042175%, 60.656738%, 100%)" offset="0.507812"/><stop stop-opacity="1" stop-color="rgb(25.907898%, 61.012268%, 100%)" offset="0.515625"/><stop stop-opacity="1" stop-color="rgb(25.773621%, 61.369324%, 100%)" offset="0.523438"/><stop stop-opacity="1" stop-color="rgb(25.640869%, 61.724854%, 100%)" offset="0.53125"/><stop stop-opacity="1" stop-color="rgb(25.506592%, 62.081909%, 100%)" offset="0.539062"/><stop stop-opacity="1" stop-color="rgb(25.372314%, 62.437439%, 100%)" offset="0.546875"/><stop stop-opacity="1" stop-color="rgb(25.238037%, 62.794495%, 100%)" offset="0.554688"/><stop stop-opacity="1" stop-color="rgb(25.10376%, 63.150024%, 100%)" offset="0.5625"/><stop stop-opacity="1" stop-color="rgb(24.969482%, 63.505554%, 100%)" offset="0.570312"/><stop stop-opacity="1" stop-color="rgb(24.835205%, 63.86261%, 100%)" offset="0.578125"/><stop stop-opacity="1" stop-color="rgb(24.700928%, 64.21814%, 100%)" offset="0.585938"/><stop stop-opacity="1" stop-color="rgb(24.568176%, 64.575195%, 100%)" offset="0.59375"/><stop stop-opacity="1" stop-color="rgb(24.433899%, 64.930725%, 100%)" offset="0.601562"/><stop stop-opacity="1" stop-color="rgb(24.299622%, 65.287781%, 100%)" offset="0.609375"/><stop stop-opacity="1" stop-color="rgb(24.165344%, 65.643311%, 100%)" offset="0.617188"/><stop stop-opacity="1" stop-color="rgb(24.031067%, 66.000366%, 100%)" offset="0.625"/><stop stop-opacity="1" stop-color="rgb(23.89679%, 66.355896%, 100%)" offset="0.632812"/><stop stop-opacity="1" stop-color="rgb(23.762512%, 66.711426%, 100%)" offset="0.640625"/><stop stop-opacity="1" stop-color="rgb(23.629761%, 67.068481%, 100%)" offset="0.648438"/><stop stop-opacity="1" stop-color="rgb(23.495483%, 67.424011%, 100%)" offset="0.65625"/><stop stop-opacity="1" stop-color="rgb(23.361206%, 67.781067%, 100%)" offset="0.664062"/><stop stop-opacity="1" stop-color="rgb(23.226929%, 68.136597%, 100%)" offset="0.671875"/><stop stop-opacity="1" stop-color="rgb(23.092651%, 68.493652%, 100%)" offset="0.679688"/><stop stop-opacity="1" stop-color="rgb(22.958374%, 68.849182%, 100%)" offset="0.6875"/><stop stop-opacity="1" stop-color="rgb(22.824097%, 69.206238%, 100%)" offset="0.695312"/><stop stop-opacity="1" stop-color="rgb(22.689819%, 69.561768%, 100%)" offset="0.703125"/><stop stop-opacity="1" stop-color="rgb(22.557068%, 69.917297%, 100%)" offset="0.710938"/><stop stop-opacity="1" stop-color="rgb(22.422791%, 70.274353%, 100%)" offset="0.71875"/><stop stop-opacity="1" stop-color="rgb(22.288513%, 70.629883%, 100%)" offset="0.726562"/><stop stop-opacity="1" stop-color="rgb(22.154236%, 70.986938%, 100%)" offset="0.734375"/><stop stop-opacity="1" stop-color="rgb(22.042847%, 71.281433%, 100%)" offset="0.75"/><stop stop-opacity="1" stop-color="rgb(21.998596%, 71.398926%, 100%)" offset="0.968432"/><stop stop-opacity="1" stop-color="rgb(21.998596%, 71.398926%, 100%)" offset="1"/></linearGradient><clipPath id="f4b52a0988"><path d="M 97.703125 94.773438 L 276.953125 94.773438 L 276.953125 274.023438 L 97.703125 274.023438 Z M 97.703125 94.773438 " clip-rule="nonzero"/></clipPath></defs><g clip-path="url(#b121b0e9d3)"><g clip-path="url(#ef49d52683)"><path fill="url(#da085e9189)" d="M -23.230469 243.832031 L 130.957031 -23.230469 L 398.023438 130.957031 L 243.832031 398.023438 Z M -23.230469 243.832031 " fill-rule="nonzero"/></g></g><g clip-path="url(#f4b52a0988)"><path fill="#ffffff" d="M 187.496094 94.773438 C 186.027344 94.773438 184.558594 94.808594 183.089844 94.878906 C 181.625 94.953125 180.160156 95.058594 178.695312 95.203125 C 177.234375 95.347656 175.777344 95.527344 174.320312 95.742188 C 172.867188 95.960938 171.421875 96.210938 169.980469 96.496094 C 168.539062 96.785156 167.105469 97.105469 165.679688 97.460938 C 164.253906 97.820312 162.835938 98.210938 161.429688 98.636719 C 160.023438 99.066406 158.628906 99.527344 157.246094 100.019531 C 155.863281 100.515625 154.492188 101.042969 153.132812 101.605469 C 151.777344 102.167969 150.433594 102.765625 149.105469 103.394531 C 147.777344 104.019531 146.464844 104.683594 145.167969 105.375 C 143.871094 106.066406 142.59375 106.792969 141.332031 107.546875 C 140.074219 108.300781 138.832031 109.089844 137.609375 109.90625 C 136.386719 110.722656 135.1875 111.566406 134.007812 112.441406 C 132.828125 113.316406 131.667969 114.222656 130.53125 115.15625 C 129.394531 116.085938 128.285156 117.046875 127.195312 118.03125 C 126.105469 119.019531 125.042969 120.03125 124.003906 121.070312 C 122.964844 122.109375 121.949219 123.175781 120.964844 124.265625 C 119.976562 125.351562 119.015625 126.464844 118.085938 127.601562 C 117.152344 128.738281 116.25 129.894531 115.375 131.074219 C 114.5 132.257812 113.652344 133.457031 112.835938 134.679688 C 112.019531 135.902344 111.234375 137.140625 110.476562 138.402344 C 109.722656 139.664062 109 140.941406 108.304688 142.238281 C 107.613281 143.535156 106.953125 144.847656 106.324219 146.175781 C 105.695312 147.503906 105.101562 148.847656 104.539062 150.203125 C 103.976562 151.5625 103.445312 152.933594 102.953125 154.316406 C 102.457031 155.699219 101.996094 157.09375 101.570312 158.5 C 101.144531 159.90625 100.75 161.324219 100.394531 162.75 C 100.035156 164.175781 99.714844 165.605469 99.429688 167.046875 C 99.140625 168.488281 98.890625 169.9375 98.675781 171.390625 C 98.457031 172.84375 98.277344 174.304688 98.136719 175.765625 C 97.992188 177.226562 97.882812 178.691406 97.8125 180.160156 C 97.738281 181.628906 97.703125 183.097656 97.703125 184.566406 C 97.703125 186.035156 97.738281 187.503906 97.8125 188.972656 C 97.882812 190.441406 97.992188 191.90625 98.136719 193.367188 C 98.277344 194.832031 98.457031 196.289062 98.675781 197.742188 C 98.890625 199.195312 99.140625 200.644531 99.429688 202.085938 C 99.714844 203.527344 100.035156 204.960938 100.394531 206.386719 C 100.75 207.8125 101.144531 209.226562 101.570312 210.632812 C 101.996094 212.039062 102.457031 213.433594 102.953125 214.816406 C 103.445312 216.203125 103.976562 217.570312 104.539062 218.929688 C 105.101562 220.289062 105.695312 221.628906 106.324219 222.957031 C 106.953125 224.289062 107.613281 225.601562 108.304688 226.894531 C 109 228.191406 109.722656 229.46875 110.476562 230.730469 C 111.234375 231.992188 112.019531 233.230469 112.835938 234.453125 C 113.652344 235.675781 114.5 236.878906 115.375 238.058594 C 116.25 239.238281 117.152344 240.394531 118.085938 241.53125 C 119.015625 242.667969 119.976562 243.78125 120.964844 244.871094 C 121.949219 245.957031 122.964844 247.023438 124.003906 248.0625 C 125.042969 249.101562 126.105469 250.113281 127.195312 251.101562 C 128.285156 252.085938 129.394531 253.046875 130.53125 253.980469 C 131.667969 254.910156 132.828125 255.816406 134.007812 256.691406 C 135.1875 257.566406 136.386719 258.410156 137.609375 259.226562 C 138.832031 260.042969 140.074219 260.832031 141.332031 261.585938 C 142.59375 262.34375 143.871094 263.066406 145.167969 263.757812 C 146.464844 264.453125 147.777344 265.113281 149.105469 265.742188 C 150.433594 266.367188 151.777344 266.964844 153.132812 267.527344 C 154.492188 268.089844 155.863281 268.617188 157.246094 269.113281 C 158.628906 269.609375 160.023438 270.070312 161.429688 270.496094 C 162.835938 270.921875 164.253906 271.3125 165.679688 271.671875 C 167.105469 272.027344 168.539062 272.347656 169.980469 272.636719 C 171.421875 272.921875 172.867188 273.175781 174.320312 273.390625 C 175.777344 273.605469 177.234375 273.785156 178.695312 273.929688 C 180.160156 274.074219 181.625 274.179688 183.089844 274.253906 C 184.558594 274.324219 186.027344 274.363281 187.496094 274.363281 C 188.96875 274.363281 190.4375 274.324219 191.902344 274.253906 C 193.371094 274.179688 194.835938 274.074219 196.300781 273.929688 C 197.761719 273.785156 199.21875 273.605469 200.671875 273.390625 C 202.125 273.175781 203.574219 272.921875 205.015625 272.636719 C 206.457031 272.347656 207.890625 272.027344 209.316406 271.671875 C 210.742188 271.3125 212.15625 270.921875 213.5625 270.496094 C 214.96875 270.070312 216.363281 269.609375 217.75 269.113281 C 219.132812 268.617188 220.503906 268.089844 221.859375 267.527344 C 223.21875 266.964844 224.5625 266.367188 225.890625 265.742188 C 227.21875 265.113281 228.53125 264.453125 229.828125 263.757812 C 231.121094 263.066406 232.402344 262.34375 233.660156 261.585938 C 234.921875 260.832031 236.164062 260.042969 237.386719 259.226562 C 238.605469 258.410156 239.808594 257.566406 240.988281 256.691406 C 242.167969 255.816406 243.328125 254.910156 244.464844 253.980469 C 245.597656 253.046875 246.710938 252.085938 247.800781 251.101562 C 248.890625 250.113281 249.953125 249.101562 250.992188 248.0625 C 252.03125 247.023438 253.042969 245.957031 254.03125 244.871094 C 255.019531 243.78125 255.976562 242.667969 256.910156 241.53125 C 257.84375 240.394531 258.746094 239.238281 259.621094 238.058594 C 260.496094 236.878906 261.34375 235.675781 262.160156 234.453125 C 262.976562 233.230469 263.761719 231.992188 264.515625 230.730469 C 265.273438 229.46875 265.996094 228.191406 266.691406 226.894531 C 267.382812 225.601562 268.042969 224.289062 268.671875 222.960938 C 269.300781 221.628906 269.894531 220.289062 270.457031 218.929688 C 271.019531 217.570312 271.546875 216.203125 272.042969 214.816406 C 272.539062 213.433594 273 212.039062 273.425781 210.632812 C 273.851562 209.226562 274.246094 207.8125 274.601562 206.386719 C 274.957031 204.960938 275.28125 203.527344 275.566406 202.085938 C 275.855469 200.644531 276.105469 199.195312 276.320312 197.742188 C 276.535156 196.289062 276.714844 194.832031 276.859375 193.367188 C 277.003906 191.90625 277.113281 190.441406 277.183594 188.972656 C 277.257812 187.503906 277.292969 186.035156 277.292969 184.566406 C 277.292969 183.097656 277.257812 181.628906 277.183594 180.160156 C 277.113281 178.691406 277.003906 177.226562 276.859375 175.765625 C 276.714844 174.304688 276.535156 172.84375 276.320312 171.390625 C 276.105469 169.9375 275.855469 168.488281 275.566406 167.046875 C 275.28125 165.605469 274.957031 164.175781 274.601562 162.75 C 274.246094 161.324219 273.851562 159.90625 273.425781 158.5 C 273 157.09375 272.539062 155.699219 272.042969 154.316406 C 271.546875 152.933594 271.019531 151.5625 270.457031 150.203125 C 269.894531 148.847656 269.300781 147.503906 268.671875 146.175781 C 268.042969 144.847656 267.382812 143.535156 266.691406 142.238281 C 265.996094 140.941406 265.273438 139.664062 264.515625 138.402344 C 263.761719 137.140625 262.976562 135.902344 262.160156 134.679688 C 261.34375 133.457031 260.496094 132.257812 259.621094 131.074219 C 258.746094 129.894531 257.84375 128.738281 256.910156 127.601562 C 255.976562 126.464844 255.019531 125.351562 254.03125 124.265625 C 253.042969 123.175781 252.03125 122.109375 250.992188 121.070312 C 249.953125 120.03125 248.890625 119.019531 247.800781 118.03125 C 246.710938 117.046875 245.597656 116.085938 244.464844 115.15625 C 243.328125 114.222656 242.167969 113.316406 240.988281 112.441406 C 239.808594 111.566406 238.605469 110.722656 237.386719 109.90625 C 236.164062 109.089844 234.921875 108.300781 233.660156 107.546875 C 232.402344 106.792969 231.121094 106.066406 229.828125 105.375 C 228.53125 104.683594 227.21875 104.019531 225.890625 103.394531 C 224.5625 102.765625 223.21875 102.167969 221.859375 101.605469 C 220.503906 101.042969 219.132812 100.515625 217.75 100.019531 C 216.363281 99.527344 214.96875 99.066406 213.5625 98.636719 C 212.15625 98.210938 210.742188 97.820312 209.316406 97.460938 C 207.890625 97.105469 206.457031 96.785156 205.015625 96.496094 C 203.574219 96.210938 202.125 95.960938 200.671875 95.742188 C 199.21875 95.527344 197.761719 95.347656 196.300781 95.203125 C 194.835938 95.058594 193.371094 94.953125 191.902344 94.878906 C 190.4375 94.808594 188.96875 94.773438 187.496094 94.773438 Z M 200.324219 215.898438 C 199.929688 215.957031 199.53125 215.96875 199.128906 215.941406 C 198.730469 215.914062 198.339844 215.84375 197.953125 215.730469 C 197.570312 215.621094 197.199219 215.46875 196.847656 215.277344 C 196.496094 215.085938 196.167969 214.859375 195.863281 214.597656 C 195.558594 214.339844 195.289062 214.046875 195.046875 213.726562 C 194.804688 213.40625 194.597656 213.066406 194.429688 212.703125 C 194.261719 212.339844 194.132812 211.960938 194.046875 211.570312 C 193.960938 211.179688 193.914062 210.785156 193.910156 210.382812 L 193.910156 195.628906 C 193.910156 195.007812 194.011719 194.398438 194.214844 193.808594 C 194.417969 193.21875 194.714844 192.679688 195.101562 192.191406 C 195.488281 191.703125 195.949219 191.289062 196.472656 190.957031 C 197 190.621094 197.570312 190.382812 198.175781 190.242188 C 199.355469 189.976562 200.496094 189.601562 201.601562 189.117188 C 202.707031 188.636719 203.757812 188.054688 204.753906 187.375 C 205.753906 186.695312 206.675781 185.925781 207.53125 185.074219 C 208.382812 184.21875 209.148438 183.292969 209.824219 182.292969 C 210.503906 181.296875 211.082031 180.242188 211.5625 179.136719 C 212.042969 178.03125 212.414062 176.886719 212.679688 175.710938 C 212.945312 174.53125 213.097656 173.339844 213.140625 172.136719 C 213.179688 170.929688 213.109375 169.730469 212.925781 168.539062 C 212.742188 167.34375 212.445312 166.179688 212.042969 165.042969 C 211.640625 163.90625 211.132812 162.816406 210.523438 161.773438 C 209.914062 160.730469 209.214844 159.757812 208.421875 158.847656 C 207.628906 157.9375 206.757812 157.105469 205.8125 156.359375 C 204.863281 155.613281 203.855469 154.964844 202.78125 154.40625 C 201.710938 153.851562 200.597656 153.398438 199.441406 153.050781 C 198.289062 152.703125 197.109375 152.46875 195.910156 152.34375 C 194.707031 152.21875 193.507812 152.203125 192.304688 152.304688 C 191.101562 152.40625 189.917969 152.617188 188.757812 152.941406 C 187.59375 153.265625 186.472656 153.691406 185.390625 154.226562 C 184.308594 154.761719 183.285156 155.390625 182.320312 156.117188 C 181.359375 156.84375 180.472656 157.65625 179.660156 158.550781 C 178.851562 159.441406 178.128906 160.40625 177.5 161.433594 C 176.867188 162.464844 176.339844 163.542969 175.914062 164.671875 C 175.484375 165.800781 175.167969 166.957031 174.960938 168.144531 C 174.75 169.335938 174.652344 170.53125 174.667969 171.738281 L 174.667969 232.671875 C 174.667969 233.304688 174.609375 233.929688 174.484375 234.546875 C 174.363281 235.167969 174.179688 235.769531 173.9375 236.351562 C 173.695312 236.9375 173.398438 237.492188 173.046875 238.015625 C 172.699219 238.542969 172.296875 239.027344 171.851562 239.472656 C 171.40625 239.921875 170.917969 240.320312 170.394531 240.671875 C 169.867188 241.023438 169.3125 241.316406 168.730469 241.558594 C 168.148438 241.800781 167.546875 241.984375 166.925781 242.105469 C 166.304688 242.230469 165.679688 242.292969 165.050781 242.292969 L 158.636719 242.292969 C 158.003906 242.292969 157.378906 242.230469 156.757812 242.105469 C 156.136719 241.984375 155.535156 241.800781 154.953125 241.558594 C 154.371094 241.316406 153.816406 241.023438 153.289062 240.671875 C 152.765625 240.320312 152.277344 239.921875 151.832031 239.472656 C 151.386719 239.027344 150.988281 238.542969 150.636719 238.015625 C 150.285156 237.492188 149.988281 236.9375 149.746094 236.351562 C 149.503906 235.769531 149.320312 235.167969 149.199219 234.546875 C 149.074219 233.929688 149.015625 233.304688 149.015625 232.671875 L 149.015625 172.894531 C 148.996094 171.449219 149.050781 170.011719 149.171875 168.570312 C 149.289062 167.132812 149.480469 165.703125 149.734375 164.285156 C 149.992188 162.863281 150.3125 161.460938 150.703125 160.070312 C 151.09375 158.679688 151.546875 157.3125 152.066406 155.964844 C 152.585938 154.617188 153.164062 153.300781 153.808594 152.007812 C 154.453125 150.71875 155.15625 149.460938 155.921875 148.234375 C 156.683594 147.011719 157.503906 145.824219 158.378906 144.679688 C 159.257812 143.53125 160.183594 142.429688 161.164062 141.371094 C 162.144531 140.3125 163.175781 139.300781 164.25 138.339844 C 165.328125 137.378906 166.445312 136.46875 167.609375 135.617188 C 168.773438 134.761719 169.972656 133.960938 171.210938 133.222656 C 172.449219 132.480469 173.71875 131.800781 175.023438 131.179688 C 176.324219 130.558594 177.652344 130 179.011719 129.507812 C 180.367188 129.011719 181.742188 128.582031 183.136719 128.21875 C 184.535156 127.855469 185.945312 127.558594 187.371094 127.328125 C 188.792969 127.097656 190.226562 126.9375 191.667969 126.839844 C 193.058594 126.824219 194.449219 126.871094 195.835938 126.980469 C 197.222656 127.09375 198.601562 127.269531 199.972656 127.507812 C 201.34375 127.746094 202.699219 128.050781 204.042969 128.417969 C 205.382812 128.78125 206.707031 129.210938 208.011719 129.699219 C 209.3125 130.1875 210.589844 130.734375 211.84375 131.34375 C 213.09375 131.949219 214.316406 132.613281 215.503906 133.335938 C 216.695312 134.054688 217.847656 134.832031 218.96875 135.660156 C 220.085938 136.488281 221.164062 137.367188 222.199219 138.296875 C 223.234375 139.222656 224.226562 140.199219 225.171875 141.21875 C 226.117188 142.238281 227.015625 143.300781 227.863281 144.40625 C 228.710938 145.511719 229.503906 146.652344 230.246094 147.828125 C 230.984375 149.007812 231.671875 150.214844 232.296875 151.457031 C 232.925781 152.699219 233.496094 153.96875 234.007812 155.261719 C 234.519531 156.558594 234.96875 157.871094 235.355469 159.207031 C 235.742188 160.546875 236.070312 161.894531 236.332031 163.261719 C 236.59375 164.628906 236.792969 166.003906 236.925781 167.390625 C 237.0625 168.777344 237.132812 170.164062 237.136719 171.554688 C 237.144531 172.945312 237.085938 174.335938 236.960938 175.722656 C 236.835938 177.109375 236.648438 178.484375 236.398438 179.855469 C 236.144531 181.222656 235.832031 182.578125 235.453125 183.914062 C 235.078125 185.253906 234.636719 186.574219 234.136719 187.871094 C 233.636719 189.171875 233.078125 190.445312 232.460938 191.691406 C 231.839844 192.9375 231.167969 194.152344 230.433594 195.335938 C 229.703125 196.519531 228.917969 197.667969 228.082031 198.777344 C 227.242188 199.890625 226.355469 200.957031 225.417969 201.988281 C 224.480469 203.015625 223.496094 203.996094 222.464844 204.933594 C 221.4375 205.871094 220.367188 206.757812 219.257812 207.59375 C 218.144531 208.433594 216.996094 209.214844 215.8125 209.949219 C 214.628906 210.679688 213.414062 211.351562 212.164062 211.96875 C 210.917969 212.585938 209.644531 213.144531 208.347656 213.644531 C 207.046875 214.144531 205.726562 214.582031 204.386719 214.957031 C 203.046875 215.335938 201.695312 215.648438 200.324219 215.898438 Z M 200.324219 215.898438 " fill-opacity="1" fill-rule="nonzero"/></g></svg>