<svg xmlns="http://www.w3.org/2000/svg" xmlns:xlink="http://www.w3.org/1999/xlink" width="171" zoomAndPan="magnify" viewBox="0 0 128.25 30.000001" height="40" preserveAspectRatio="xMidYMid meet" version="1.0"><defs><clipPath id="2a0d18a66e"><path d="M 1.8125 0.5 L 30.265625 0.5 L 30.265625 28.949219 L 1.8125 28.949219 Z M 1.8125 0.5 " clip-rule="nonzero"/></clipPath><clipPath id="3c03c72b1b"><path d="M 30.378906 14.78125 C 30.378906 15.25 30.355469 15.714844 30.308594 16.183594 C 30.265625 16.648438 30.195312 17.109375 30.105469 17.566406 C 30.011719 18.027344 29.898438 18.480469 29.761719 18.929688 C 29.628906 19.375 29.472656 19.816406 29.292969 20.25 C 29.113281 20.679688 28.914062 21.101562 28.691406 21.515625 C 28.472656 21.925781 28.230469 22.328125 27.972656 22.71875 C 27.710938 23.105469 27.433594 23.480469 27.136719 23.84375 C 26.839844 24.203125 26.527344 24.550781 26.195312 24.882812 C 25.863281 25.210938 25.519531 25.527344 25.15625 25.824219 C 24.796875 26.121094 24.417969 26.398438 24.03125 26.660156 C 23.640625 26.917969 23.242188 27.160156 22.828125 27.378906 C 22.417969 27.597656 21.992188 27.800781 21.5625 27.976562 C 21.128906 28.15625 20.691406 28.3125 20.242188 28.449219 C 19.792969 28.585938 19.339844 28.699219 18.882812 28.789062 C 18.421875 28.882812 17.960938 28.949219 17.496094 28.996094 C 17.03125 29.042969 16.5625 29.066406 16.097656 29.066406 C 15.628906 29.066406 15.160156 29.042969 14.695312 28.996094 C 14.230469 28.949219 13.765625 28.882812 13.308594 28.789062 C 12.851562 28.699219 12.398438 28.585938 11.949219 28.449219 C 11.5 28.3125 11.0625 28.15625 10.628906 27.976562 C 10.199219 27.800781 9.773438 27.597656 9.363281 27.378906 C 8.949219 27.160156 8.550781 26.917969 8.160156 26.660156 C 7.769531 26.398438 7.394531 26.121094 7.035156 25.824219 C 6.671875 25.527344 6.328125 25.210938 5.996094 24.882812 C 5.664062 24.550781 5.351562 24.203125 5.054688 23.84375 C 4.757812 23.480469 4.480469 23.105469 4.21875 22.71875 C 3.960938 22.328125 3.71875 21.925781 3.5 21.515625 C 3.277344 21.101562 3.078125 20.679688 2.898438 20.25 C 2.71875 19.816406 2.5625 19.375 2.425781 18.929688 C 2.292969 18.480469 2.175781 18.027344 2.085938 17.566406 C 1.996094 17.109375 1.925781 16.648438 1.882812 16.183594 C 1.835938 15.714844 1.8125 15.25 1.8125 14.78125 C 1.8125 14.3125 1.835938 13.847656 1.882812 13.382812 C 1.925781 12.914062 1.996094 12.453125 2.085938 11.996094 C 2.175781 11.535156 2.292969 11.082031 2.425781 10.636719 C 2.5625 10.1875 2.71875 9.75 2.898438 9.316406 C 3.078125 8.882812 3.277344 8.460938 3.5 8.046875 C 3.71875 7.636719 3.960938 7.234375 4.21875 6.847656 C 4.480469 6.457031 4.757812 6.082031 5.054688 5.722656 C 5.351562 5.359375 5.664062 5.011719 5.996094 4.683594 C 6.328125 4.351562 6.671875 4.039062 7.035156 3.738281 C 7.394531 3.445312 7.769531 3.164062 8.160156 2.90625 C 8.550781 2.644531 8.949219 2.40625 9.363281 2.183594 C 9.773438 1.964844 10.199219 1.765625 10.628906 1.585938 C 11.0625 1.40625 11.5 1.25 11.949219 1.113281 C 12.398438 0.976562 12.851562 0.863281 13.308594 0.773438 C 13.765625 0.679688 14.230469 0.613281 14.695312 0.566406 C 15.160156 0.519531 15.628906 0.5 16.097656 0.5 C 16.5625 0.5 17.03125 0.519531 17.496094 0.566406 C 17.960938 0.613281 18.421875 0.679688 18.882812 0.773438 C 19.339844 0.863281 19.792969 0.976562 20.242188 1.113281 C 20.691406 1.25 21.128906 1.40625 21.5625 1.585938 C 21.992188 1.765625 22.417969 1.964844 22.828125 2.183594 C 23.242188 2.40625 23.640625 2.644531 24.03125 2.90625 C 24.417969 3.164062 24.796875 3.445312 25.15625 3.738281 C 25.519531 4.039062 25.863281 4.351562 26.195312 4.683594 C 26.527344 5.011719 26.839844 5.359375 27.136719 5.722656 C 27.433594 6.082031 27.710938 6.457031 27.972656 6.847656 C 28.230469 7.234375 28.472656 7.636719 28.691406 8.046875 C 28.914062 8.460938 29.113281 8.882812 29.292969 9.316406 C 29.472656 9.75 29.628906 10.1875 29.761719 10.636719 C 29.898438 11.082031 30.011719 11.535156 30.105469 11.996094 C 30.195312 12.453125 30.265625 12.914062 30.308594 13.382812 C 30.355469 13.847656 30.378906 14.3125 30.378906 14.78125 Z M 30.378906 14.78125 " clip-rule="nonzero"/></clipPath><clipPath id="da5baccf6a"><path d="M -10.507812 21.835938 L 8.925781 -11.820312 L 42.585938 7.613281 L 23.152344 41.269531 Z M -10.507812 21.835938 " clip-rule="nonzero"/></clipPath><linearGradient x1="245.363931" gradientTransform="matrix(0.0989581, 0.0571335, 0.0571335, -0.0989581, -21.850834, 25.747836)" y1="424.734895" x2="233.927957" gradientUnits="userSpaceOnUse" y2="73.890975" id="14283fbcff"><stop stop-opacity="1" stop-color="rgb(32.199097%, 44.299316%, 100%)" offset="0"/><stop stop-opacity="1" stop-color="rgb(32.199097%, 44.299316%, 100%)" offset="0.0315667"/><stop stop-opacity="1" stop-color="rgb(32.199097%, 44.299316%, 100%)" offset="0.125"/><stop stop-opacity="1" stop-color="rgb(32.199097%, 44.299316%, 100%)" offset="0.140625"/><stop stop-opacity="1" stop-color="rgb(32.199097%, 44.309998%, 100%)" offset="0.148437"/><stop stop-opacity="1" stop-color="rgb(32.192993%, 44.515991%, 100%)" offset="0.15625"/><stop stop-opacity="1" stop-color="rgb(31.993103%, 44.906616%, 100%)" offset="0.164062"/><stop stop-opacity="1" stop-color="rgb(31.799316%, 45.297241%, 100%)" offset="0.171875"/><stop stop-opacity="1" stop-color="rgb(31.799316%, 45.687866%, 100%)" offset="0.179687"/><stop stop-opacity="1" stop-color="rgb(31.611633%, 46.078491%, 100%)" offset="0.1875"/><stop stop-opacity="1" stop-color="rgb(31.411743%, 46.29364%, 100%)" offset="0.195312"/><stop stop-opacity="1" stop-color="rgb(31.396484%, 46.510315%, 100%)" offset="0.203125"/><stop stop-opacity="1" stop-color="rgb(31.19812%, 46.90094%, 100%)" offset="0.210937"/><stop stop-opacity="1" stop-color="rgb(31.001282%, 47.291565%, 100%)" offset="0.21875"/><stop stop-opacity="1" stop-color="rgb(30.999756%, 47.634888%, 100%)" offset="0.226562"/><stop stop-opacity="1" stop-color="rgb(30.799866%, 47.999573%, 100%)" offset="0.230469"/><stop stop-opacity="1" stop-color="rgb(30.599976%, 48.217773%, 100%)" offset="0.234375"/><stop stop-opacity="1" stop-color="rgb(30.599976%, 48.413086%, 100%)" offset="0.242187"/><stop stop-opacity="1" stop-color="rgb(30.59845%, 48.803711%, 100%)" offset="0.25"/><stop stop-opacity="1" stop-color="rgb(30.403137%, 49.194336%, 100%)" offset="0.257813"/><stop stop-opacity="1" stop-color="rgb(30.203247%, 49.584961%, 100%)" offset="0.265625"/><stop stop-opacity="1" stop-color="rgb(30.187988%, 49.80011%, 100%)" offset="0.273438"/><stop stop-opacity="1" stop-color="rgb(29.988098%, 50.016785%, 100%)" offset="0.28125"/><stop stop-opacity="1" stop-color="rgb(29.798889%, 50.40741%, 100%)" offset="0.289062"/><stop stop-opacity="1" stop-color="rgb(29.798889%, 50.798035%, 100%)" offset="0.296875"/><stop stop-opacity="1" stop-color="rgb(29.606628%, 51.18866%, 100%)" offset="0.304688"/><stop stop-opacity="1" stop-color="rgb(29.406738%, 51.579285%, 100%)" offset="0.3125"/><stop stop-opacity="1" stop-color="rgb(29.391479%, 51.992798%, 100%)" offset="0.316406"/><stop stop-opacity="1" stop-color="rgb(29.38385%, 52.210999%, 100%)" offset="0.320312"/><stop stop-opacity="1" stop-color="rgb(29.191589%, 52.357483%, 100%)" offset="0.328125"/><stop stop-opacity="1" stop-color="rgb(28.999329%, 52.700806%, 100%)" offset="0.335938"/><stop stop-opacity="1" stop-color="rgb(28.999329%, 53.091431%, 100%)" offset="0.34375"/><stop stop-opacity="1" stop-color="rgb(28.81012%, 53.482056%, 100%)" offset="0.351562"/><stop stop-opacity="1" stop-color="rgb(28.610229%, 53.697205%, 100%)" offset="0.359375"/><stop stop-opacity="1" stop-color="rgb(28.593445%, 53.913879%, 100%)" offset="0.367188"/><stop stop-opacity="1" stop-color="rgb(28.393555%, 54.304504%, 100%)" offset="0.375"/><stop stop-opacity="1" stop-color="rgb(28.199768%, 54.695129%, 100%)" offset="0.382812"/><stop stop-opacity="1" stop-color="rgb(28.199768%, 55.085754%, 100%)" offset="0.390625"/><stop stop-opacity="1" stop-color="rgb(27.999878%, 55.500793%, 100%)" offset="0.394531"/><stop stop-opacity="1" stop-color="rgb(27.799988%, 55.722046%, 100%)" offset="0.398438"/><stop stop-opacity="1" stop-color="rgb(27.799988%, 55.917358%, 100%)" offset="0.40625"/><stop stop-opacity="1" stop-color="rgb(27.798462%, 56.307983%, 100%)" offset="0.414062"/><stop stop-opacity="1" stop-color="rgb(27.650452%, 56.698608%, 100%)" offset="0.421875"/><stop stop-opacity="1" stop-color="rgb(27.500916%, 57.089233%, 100%)" offset="0.429688"/><stop stop-opacity="1" stop-color="rgb(27.311707%, 57.292175%, 100%)" offset="0.4375"/><stop stop-opacity="1" stop-color="rgb(27.111816%, 57.45697%, 100%)" offset="0.445313"/><stop stop-opacity="1" stop-color="rgb(27.096558%, 57.810974%, 100%)" offset="0.453125"/><stop stop-opacity="1" stop-color="rgb(26.898193%, 58.201599%, 100%)" offset="0.460938"/><stop stop-opacity="1" stop-color="rgb(26.701355%, 58.592224%, 100%)" offset="0.46875"/><stop stop-opacity="1" stop-color="rgb(26.699829%, 58.982849%, 100%)" offset="0.476562"/><stop stop-opacity="1" stop-color="rgb(26.498413%, 59.397888%, 100%)" offset="0.480469"/><stop stop-opacity="1" stop-color="rgb(26.298523%, 59.617615%, 100%)" offset="0.484375"/><stop stop-opacity="1" stop-color="rgb(26.298523%, 59.812927%, 100%)" offset="0.492188"/><stop stop-opacity="1" stop-color="rgb(26.298523%, 60.203552%, 100%)" offset="0.5"/><stop stop-opacity="1" stop-color="rgb(26.10321%, 60.594177%, 100%)" offset="0.507813"/><stop stop-opacity="1" stop-color="rgb(25.90332%, 60.984802%, 100%)" offset="0.515625"/><stop stop-opacity="1" stop-color="rgb(25.888062%, 61.199951%, 100%)" offset="0.523438"/><stop stop-opacity="1" stop-color="rgb(25.688171%, 61.416626%, 100%)" offset="0.53125"/><stop stop-opacity="1" stop-color="rgb(25.498962%, 61.807251%, 100%)" offset="0.539062"/><stop stop-opacity="1" stop-color="rgb(25.498962%, 62.197876%, 100%)" offset="0.546875"/><stop stop-opacity="1" stop-color="rgb(25.306702%, 62.539673%, 100%)" offset="0.554688"/><stop stop-opacity="1" stop-color="rgb(25.106812%, 62.879944%, 100%)" offset="0.5625"/><stop stop-opacity="1" stop-color="rgb(25.091553%, 63.293457%, 100%)" offset="0.566406"/><stop stop-opacity="1" stop-color="rgb(25.083923%, 63.514709%, 100%)" offset="0.570312"/><stop stop-opacity="1" stop-color="rgb(24.891663%, 63.710022%, 100%)" offset="0.578125"/><stop stop-opacity="1" stop-color="rgb(24.699402%, 64.100647%, 100%)" offset="0.585937"/><stop stop-opacity="1" stop-color="rgb(24.699402%, 64.491272%, 100%)" offset="0.59375"/><stop stop-opacity="1" stop-color="rgb(24.510193%, 64.692688%, 100%)" offset="0.601562"/><stop stop-opacity="1" stop-color="rgb(24.310303%, 64.907837%, 100%)" offset="0.605469"/><stop stop-opacity="1" stop-color="rgb(24.299622%, 65.118408%, 100%)" offset="0.609375"/><stop stop-opacity="1" stop-color="rgb(24.293518%, 65.313721%, 100%)" offset="0.617188"/><stop stop-opacity="1" stop-color="rgb(24.093628%, 65.704346%, 100%)" offset="0.625"/><stop stop-opacity="1" stop-color="rgb(23.899841%, 66.094971%, 100%)" offset="0.632812"/><stop stop-opacity="1" stop-color="rgb(23.899841%, 66.485596%, 100%)" offset="0.640625"/><stop stop-opacity="1" stop-color="rgb(23.698425%, 66.900635%, 100%)" offset="0.644531"/><stop stop-opacity="1" stop-color="rgb(23.498535%, 67.121887%, 100%)" offset="0.648437"/><stop stop-opacity="1" stop-color="rgb(23.498535%, 67.315674%, 100%)" offset="0.65625"/><stop stop-opacity="1" stop-color="rgb(23.497009%, 67.655945%, 100%)" offset="0.664063"/><stop stop-opacity="1" stop-color="rgb(23.300171%, 67.997742%, 100%)" offset="0.671875"/><stop stop-opacity="1" stop-color="rgb(23.101807%, 68.388367%, 100%)" offset="0.679688"/><stop stop-opacity="1" stop-color="rgb(23.098755%, 68.591309%, 100%)" offset="0.6875"/><stop stop-opacity="1" stop-color="rgb(22.898865%, 68.806458%, 100%)" offset="0.691406"/><stop stop-opacity="1" stop-color="rgb(22.698975%, 69.015503%, 100%)" offset="0.695312"/><stop stop-opacity="1" stop-color="rgb(22.698975%, 69.210815%, 100%)" offset="0.703125"/><stop stop-opacity="1" stop-color="rgb(22.698975%, 69.60144%, 100%)" offset="0.710938"/><stop stop-opacity="1" stop-color="rgb(22.554016%, 69.992065%, 100%)" offset="0.71875"/><stop stop-opacity="1" stop-color="rgb(22.40448%, 70.38269%, 100%)" offset="0.726563"/><stop stop-opacity="1" stop-color="rgb(22.393799%, 70.793152%, 100%)" offset="0.730469"/><stop stop-opacity="1" stop-color="rgb(22.389221%, 71.008301%, 100%)" offset="0.734375"/><stop stop-opacity="1" stop-color="rgb(22.193909%, 71.203613%, 100%)" offset="0.75"/><stop stop-opacity="1" stop-color="rgb(21.998596%, 71.398926%, 100%)" offset="0.968433"/><stop stop-opacity="1" stop-color="rgb(21.998596%, 71.398926%, 100%)" offset="1"/></linearGradient><clipPath id="faf87b19f8"><path d="M 4.742188 3.429688 L 27.351562 3.429688 L 27.351562 26.039062 L 4.742188 26.039062 Z M 4.742188 3.429688 " clip-rule="nonzero"/></clipPath></defs><g clip-path="url(#2a0d18a66e)"><g clip-path="url(#3c03c72b1b)"><g clip-path="url(#da5baccf6a)"><path fill="url(#14283fbcff)" d="M -10.507812 21.835938 L 8.925781 -11.820312 L 42.582031 7.613281 L 23.152344 41.269531 Z M -10.507812 21.835938 " fill-rule="nonzero"/></g></g></g><g clip-path="url(#faf87b19f8)"><path fill="#ffffff" d="M 16.09375 3.429688 C 15.722656 3.429688 15.351562 3.449219 14.980469 3.484375 C 14.613281 3.519531 14.246094 3.574219 13.878906 3.648438 C 13.515625 3.71875 13.15625 3.808594 12.800781 3.917969 C 12.445312 4.027344 12.09375 4.152344 11.75 4.292969 C 11.40625 4.4375 11.070312 4.59375 10.746094 4.769531 C 10.417969 4.945312 10.097656 5.136719 9.789062 5.34375 C 9.480469 5.546875 9.179688 5.769531 8.894531 6.007812 C 8.605469 6.242188 8.332031 6.492188 8.066406 6.753906 C 7.804688 7.015625 7.554688 7.292969 7.320312 7.578125 C 7.085938 7.867188 6.863281 8.164062 6.65625 8.472656 C 6.449219 8.785156 6.257812 9.101562 6.082031 9.429688 C 5.910156 9.757812 5.75 10.09375 5.605469 10.4375 C 5.464844 10.78125 5.339844 11.132812 5.230469 11.484375 C 5.125 11.839844 5.035156 12.203125 4.960938 12.566406 C 4.886719 12.929688 4.835938 13.296875 4.796875 13.667969 C 4.761719 14.039062 4.742188 14.410156 4.742188 14.78125 C 4.742188 15.152344 4.761719 15.523438 4.796875 15.894531 C 4.835938 16.265625 4.886719 16.632812 4.960938 16.996094 C 5.035156 17.359375 5.125 17.722656 5.230469 18.078125 C 5.339844 18.433594 5.464844 18.78125 5.605469 19.125 C 5.75 19.46875 5.910156 19.804688 6.082031 20.132812 C 6.257812 20.460938 6.449219 20.777344 6.65625 21.089844 C 6.863281 21.398438 7.085938 21.695312 7.320312 21.984375 C 7.554688 22.269531 7.804688 22.546875 8.066406 22.808594 C 8.332031 23.070312 8.605469 23.320312 8.894531 23.558594 C 9.179688 23.792969 9.480469 24.015625 9.789062 24.21875 C 10.097656 24.425781 10.417969 24.617188 10.746094 24.792969 C 11.070312 24.96875 11.40625 25.125 11.75 25.269531 C 12.09375 25.414062 12.445312 25.535156 12.800781 25.644531 C 13.15625 25.753906 13.515625 25.84375 13.878906 25.914062 C 14.246094 25.988281 14.613281 26.042969 14.980469 26.078125 C 15.351562 26.113281 15.722656 26.132812 16.09375 26.132812 C 16.464844 26.132812 16.839844 26.113281 17.207031 26.078125 C 17.578125 26.042969 17.945312 25.988281 18.308594 25.914062 C 18.675781 25.84375 19.035156 25.753906 19.390625 25.644531 C 19.746094 25.535156 20.097656 25.414062 20.441406 25.269531 C 20.78125 25.125 21.117188 24.96875 21.445312 24.792969 C 21.773438 24.617188 22.09375 24.425781 22.402344 24.21875 C 22.710938 24.015625 23.007812 23.792969 23.296875 23.558594 C 23.585938 23.320312 23.859375 23.070312 24.121094 22.808594 C 24.386719 22.546875 24.632812 22.269531 24.871094 21.984375 C 25.105469 21.695312 25.328125 21.398438 25.535156 21.089844 C 25.738281 20.777344 25.933594 20.460938 26.105469 20.132812 C 26.28125 19.804688 26.441406 19.46875 26.582031 19.125 C 26.726562 18.78125 26.851562 18.433594 26.957031 18.078125 C 27.066406 17.722656 27.15625 17.359375 27.230469 16.996094 C 27.300781 16.632812 27.355469 16.265625 27.394531 15.894531 C 27.429688 15.523438 27.445312 15.152344 27.445312 14.78125 C 27.445312 14.410156 27.429688 14.039062 27.394531 13.667969 C 27.355469 13.296875 27.300781 12.929688 27.230469 12.566406 C 27.15625 12.203125 27.066406 11.839844 26.957031 11.484375 C 26.851562 11.132812 26.726562 10.78125 26.582031 10.4375 C 26.441406 10.09375 26.28125 9.757812 26.105469 9.429688 C 25.933594 9.101562 25.738281 8.785156 25.535156 8.472656 C 25.328125 8.164062 25.105469 7.867188 24.871094 7.578125 C 24.632812 7.292969 24.386719 7.015625 24.121094 6.753906 C 23.859375 6.492188 23.585938 6.242188 23.296875 6.007812 C 23.007812 5.769531 22.710938 5.546875 22.402344 5.34375 C 22.09375 5.136719 21.773438 4.945312 21.445312 4.769531 C 21.117188 4.59375 20.78125 4.4375 20.441406 4.292969 C 20.097656 4.152344 19.746094 4.027344 19.390625 3.917969 C 19.035156 3.808594 18.675781 3.71875 18.308594 3.648438 C 17.945312 3.574219 17.578125 3.519531 17.207031 3.484375 C 16.839844 3.449219 16.464844 3.429688 16.09375 3.429688 Z M 17.71875 18.742188 C 17.613281 18.757812 17.515625 18.75 17.417969 18.722656 C 17.320312 18.691406 17.230469 18.644531 17.152344 18.578125 C 17.074219 18.511719 17.015625 18.433594 16.972656 18.339844 C 16.929688 18.246094 16.90625 18.148438 16.90625 18.046875 L 16.90625 16.179688 C 16.90625 16.101562 16.917969 16.023438 16.945312 15.949219 C 16.96875 15.875 17.007812 15.808594 17.058594 15.746094 C 17.105469 15.683594 17.164062 15.632812 17.230469 15.589844 C 17.296875 15.546875 17.367188 15.515625 17.445312 15.5 C 17.59375 15.464844 17.738281 15.417969 17.878906 15.355469 C 18.019531 15.296875 18.152344 15.222656 18.277344 15.136719 C 18.402344 15.050781 18.519531 14.953125 18.628906 14.84375 C 18.734375 14.738281 18.832031 14.621094 18.917969 14.496094 C 19.003906 14.367188 19.078125 14.234375 19.136719 14.09375 C 19.199219 13.953125 19.246094 13.808594 19.28125 13.660156 C 19.3125 13.511719 19.332031 13.363281 19.335938 13.210938 C 19.339844 13.058594 19.332031 12.90625 19.308594 12.753906 C 19.285156 12.605469 19.25 12.457031 19.199219 12.3125 C 19.148438 12.167969 19.082031 12.03125 19.003906 11.898438 C 18.929688 11.769531 18.839844 11.644531 18.742188 11.527344 C 18.640625 11.414062 18.53125 11.308594 18.410156 11.214844 C 18.292969 11.121094 18.164062 11.039062 18.027344 10.96875 C 17.890625 10.898438 17.75 10.839844 17.605469 10.796875 C 17.457031 10.753906 17.3125 10.722656 17.160156 10.707031 C 17.007812 10.691406 16.855469 10.691406 16.703125 10.703125 C 16.550781 10.714844 16.402344 10.742188 16.253906 10.78125 C 16.105469 10.824219 15.964844 10.878906 15.828125 10.945312 C 15.691406 11.011719 15.5625 11.09375 15.441406 11.183594 C 15.320312 11.277344 15.207031 11.378906 15.105469 11.492188 C 15 11.605469 14.910156 11.726562 14.832031 11.855469 C 14.75 11.988281 14.683594 12.125 14.628906 12.265625 C 14.578125 12.410156 14.535156 12.554688 14.507812 12.707031 C 14.484375 12.855469 14.472656 13.007812 14.472656 13.160156 L 14.472656 20.863281 C 14.472656 21.023438 14.441406 21.179688 14.382812 21.328125 C 14.320312 21.476562 14.230469 21.609375 14.117188 21.722656 C 14.003906 21.835938 13.871094 21.925781 13.722656 21.988281 C 13.574219 22.050781 13.417969 22.078125 13.257812 22.078125 L 12.445312 22.078125 C 12.285156 22.078125 12.128906 22.050781 11.980469 21.988281 C 11.832031 21.925781 11.699219 21.835938 11.585938 21.722656 C 11.472656 21.609375 11.382812 21.476562 11.324219 21.328125 C 11.261719 21.179688 11.230469 21.023438 11.230469 20.863281 L 11.230469 13.304688 C 11.226562 12.941406 11.257812 12.578125 11.320312 12.21875 C 11.386719 11.855469 11.484375 11.507812 11.617188 11.164062 C 11.746094 10.824219 11.910156 10.5 12.101562 10.1875 C 12.296875 9.878906 12.515625 9.589844 12.765625 9.320312 C 13.015625 9.050781 13.285156 8.808594 13.582031 8.59375 C 13.875 8.375 14.1875 8.191406 14.519531 8.03125 C 14.847656 7.875 15.191406 7.75 15.542969 7.65625 C 15.898438 7.566406 16.257812 7.507812 16.621094 7.484375 C 16.976562 7.480469 17.324219 7.507812 17.671875 7.566406 C 18.019531 7.628906 18.359375 7.722656 18.6875 7.84375 C 19.019531 7.96875 19.332031 8.121094 19.636719 8.304688 C 19.9375 8.488281 20.21875 8.695312 20.480469 8.933594 C 20.746094 9.167969 20.984375 9.425781 21.199219 9.703125 C 21.414062 9.984375 21.601562 10.28125 21.757812 10.597656 C 21.917969 10.910156 22.046875 11.238281 22.144531 11.574219 C 22.242188 11.914062 22.308594 12.257812 22.34375 12.609375 C 22.378906 12.960938 22.378906 13.3125 22.347656 13.664062 C 22.316406 14.015625 22.253906 14.359375 22.160156 14.699219 C 22.0625 15.039062 21.9375 15.367188 21.777344 15.683594 C 21.621094 16 21.4375 16.296875 21.226562 16.578125 C 21.011719 16.859375 20.777344 17.121094 20.515625 17.355469 C 20.253906 17.59375 19.976562 17.804688 19.675781 17.988281 C 19.375 18.175781 19.058594 18.332031 18.730469 18.457031 C 18.402344 18.582031 18.0625 18.679688 17.71875 18.742188 Z M 17.71875 18.742188 " fill-opacity="1" fill-rule="nonzero"/></g><path fill="#38b6ff" d="M 45.511719 12.863281 C 46.007812 13.125 46.394531 13.488281 46.667969 13.957031 C 46.945312 14.425781 47.082031 14.964844 47.082031 15.570312 C 47.082031 16.179688 46.921875 16.730469 46.601562 17.226562 C 46.28125 17.726562 45.851562 18.121094 45.304688 18.414062 C 44.757812 18.703125 44.164062 18.847656 43.515625 18.847656 L 38.683594 18.847656 L 38.683594 7.496094 L 43.386719 7.496094 C 44.035156 7.496094 44.617188 7.621094 45.128906 7.875 C 45.644531 8.128906 46.050781 8.480469 46.347656 8.925781 C 46.640625 9.367188 46.789062 9.863281 46.789062 10.417969 C 46.789062 10.902344 46.675781 11.363281 46.445312 11.796875 C 46.21875 12.230469 45.90625 12.582031 45.511719 12.863281 Z M 44.410156 10.804688 C 44.410156 10.445312 44.292969 10.15625 44.066406 9.929688 C 43.839844 9.699219 43.53125 9.585938 43.144531 9.585938 L 41.101562 9.585938 L 41.101562 12.003906 L 43.144531 12.003906 C 43.53125 12.003906 43.839844 11.890625 44.066406 11.664062 C 44.292969 11.4375 44.410156 11.148438 44.410156 10.804688 Z M 43.269531 16.59375 C 43.683594 16.59375 44.011719 16.476562 44.253906 16.238281 C 44.5 16 44.621094 15.691406 44.621094 15.3125 C 44.621094 14.945312 44.5 14.644531 44.253906 14.40625 C 44.011719 14.167969 43.683594 14.046875 43.269531 14.046875 L 41.101562 14.046875 L 41.101562 16.59375 Z M 43.269531 16.59375 " fill-opacity="1" fill-rule="nonzero"/><path fill="#38b6ff" d="M 48.554688 8.925781 L 48.554688 6.71875 L 50.925781 6.71875 L 50.925781 8.925781 Z M 48.554688 18.847656 L 48.554688 10.089844 L 50.925781 10.089844 L 50.925781 18.847656 Z M 48.554688 18.847656 " fill-opacity="1" fill-rule="nonzero"/><path fill="#38b6ff" d="M 59.890625 10.089844 L 61.429688 10.089844 L 61.429688 17.824219 C 61.429688 18.742188 61.246094 19.53125 60.886719 20.191406 C 60.527344 20.851562 60.007812 21.359375 59.339844 21.714844 C 58.667969 22.070312 57.875 22.25 56.957031 22.25 C 55.769531 22.25 54.773438 21.964844 53.980469 21.394531 C 53.183594 20.820312 52.691406 20.039062 52.496094 19.042969 L 54.847656 19.042969 C 54.976562 19.429688 55.246094 19.722656 55.652344 19.921875 C 56.054688 20.121094 56.476562 20.222656 56.910156 20.222656 C 57.515625 20.222656 58.027344 20.039062 58.457031 19.679688 C 58.882812 19.316406 59.097656 18.8125 59.097656 18.164062 L 59.097656 17.839844 C 58.75 18.09375 58.367188 18.285156 57.941406 18.417969 C 57.523438 18.554688 57.074219 18.621094 56.597656 18.621094 C 55.789062 18.621094 55.054688 18.425781 54.398438 18.039062 C 53.738281 17.644531 53.214844 17.121094 52.832031 16.464844 C 52.445312 15.808594 52.253906 15.066406 52.253906 14.242188 C 52.253906 13.421875 52.445312 12.679688 52.832031 12.015625 C 53.214844 11.347656 53.738281 10.820312 54.398438 10.433594 C 55.054688 10.039062 55.789062 9.84375 56.597656 9.84375 C 57.171875 9.84375 57.710938 9.945312 58.207031 10.140625 C 58.703125 10.335938 59.140625 10.609375 59.519531 10.96875 Z M 56.875 16.511719 C 57.523438 16.511719 58.054688 16.300781 58.476562 15.871094 C 58.902344 15.445312 59.113281 14.902344 59.113281 14.242188 C 59.113281 13.59375 58.902344 13.054688 58.488281 12.628906 C 58.070312 12.203125 57.53125 11.988281 56.875 11.988281 C 56.238281 11.988281 55.710938 12.203125 55.285156 12.628906 C 54.867188 13.054688 54.65625 13.59375 54.65625 14.242188 C 54.65625 14.902344 54.863281 15.445312 55.28125 15.871094 C 55.695312 16.300781 56.226562 16.511719 56.875 16.511719 Z M 56.875 16.511719 " fill-opacity="1" fill-rule="nonzero"/><path fill="#38b6ff" d="M 67.851562 7.496094 C 68.621094 7.496094 69.304688 7.667969 69.90625 8.007812 C 70.503906 8.347656 70.980469 8.8125 71.339844 9.398438 C 71.695312 9.992188 71.875 10.660156 71.875 11.40625 C 71.875 12.152344 71.695312 12.816406 71.34375 13.40625 C 70.996094 13.996094 70.515625 14.457031 69.910156 14.792969 C 69.308594 15.128906 68.621094 15.296875 67.851562 15.296875 L 65.957031 15.296875 L 65.957031 18.847656 L 63.492188 18.847656 L 63.492188 7.496094 Z M 67.757812 13.027344 C 68.242188 13.027344 68.636719 12.871094 68.929688 12.566406 C 69.226562 12.253906 69.375 11.871094 69.375 11.40625 C 69.375 10.929688 69.226562 10.539062 68.929688 10.230469 C 68.636719 9.921875 68.242188 9.765625 67.757812 9.765625 L 65.957031 9.765625 L 65.957031 13.027344 Z M 67.757812 13.027344 " fill-opacity="1" fill-rule="nonzero"/><path fill="#38b6ff" d="M 80.195312 10.074219 L 81.960938 10.074219 L 81.960938 18.832031 L 80.09375 18.832031 L 79.902344 18.054688 C 79.523438 18.378906 79.089844 18.632812 78.613281 18.816406 C 78.132812 18.996094 77.613281 19.089844 77.0625 19.089844 C 76.183594 19.089844 75.402344 18.886719 74.710938 18.480469 C 74.019531 18.078125 73.472656 17.527344 73.070312 16.832031 C 72.671875 16.132812 72.472656 15.339844 72.472656 14.453125 C 72.472656 13.574219 72.671875 12.789062 73.070312 12.09375 C 73.472656 11.394531 74.019531 10.847656 74.710938 10.449219 C 75.402344 10.046875 76.183594 9.84375 77.0625 9.84375 C 77.625 9.84375 78.148438 9.941406 78.632812 10.128906 C 79.121094 10.320312 79.554688 10.585938 79.933594 10.917969 Z M 77.257812 16.851562 C 77.710938 16.851562 78.121094 16.75 78.480469 16.546875 C 78.84375 16.339844 79.125 16.058594 79.332031 15.691406 C 79.539062 15.332031 79.644531 14.917969 79.644531 14.453125 C 79.644531 14 79.539062 13.59375 79.332031 13.230469 C 79.125 12.871094 78.84375 12.582031 78.480469 12.371094 C 78.121094 12.15625 77.710938 12.050781 77.257812 12.050781 C 76.792969 12.050781 76.378906 12.15625 76.023438 12.371094 C 75.667969 12.582031 75.386719 12.871094 75.183594 13.230469 C 74.976562 13.59375 74.875 14 74.875 14.453125 C 74.875 14.917969 74.976562 15.328125 75.183594 15.6875 C 75.386719 16.042969 75.667969 16.328125 76.023438 16.539062 C 76.378906 16.75 76.792969 16.851562 77.257812 16.851562 Z M 77.257812 16.851562 " fill-opacity="1" fill-rule="nonzero"/><path fill="#38b6ff" d="M 89.902344 10.089844 L 92.433594 10.089844 L 88.605469 18.734375 C 88.261719 19.523438 87.910156 20.15625 87.554688 20.636719 C 87.195312 21.117188 86.792969 21.46875 86.335938 21.683594 C 85.882812 21.898438 85.328125 22.007812 84.667969 22.007812 L 83.695312 22.007812 L 83.695312 19.867188 L 84.519531 19.867188 C 84.898438 19.867188 85.199219 19.824219 85.421875 19.734375 C 85.644531 19.652344 85.832031 19.492188 85.988281 19.261719 C 86.144531 19.027344 86.316406 18.691406 86.5 18.25 L 86.53125 18.179688 L 82.816406 10.089844 L 85.398438 10.089844 L 87.734375 15.476562 Z M 89.902344 10.089844 " fill-opacity="1" fill-rule="nonzero"/></svg>