<svg xmlns="http://www.w3.org/2000/svg" xmlns:xlink="http://www.w3.org/1999/xlink" width="500" zoomAndPan="magnify" viewBox="0 0 375 374.999991" height="500" preserveAspectRatio="xMidYMid meet" version="1.0"><defs><g/><clipPath id="bc2da383c3"><path d="M 37.5 145.328125 L 121.5 145.328125 L 121.5 229.328125 L 37.5 229.328125 Z M 37.5 145.328125 " clip-rule="nonzero"/></clipPath><clipPath id="8ad7f73966"><path d="M 121.839844 187.496094 C 121.839844 188.878906 121.773438 190.257812 121.636719 191.632812 C 121.5 193.003906 121.300781 194.371094 121.03125 195.722656 C 120.761719 197.078125 120.425781 198.417969 120.023438 199.738281 C 119.625 201.0625 119.160156 202.359375 118.628906 203.636719 C 118.101562 204.910156 117.511719 206.160156 116.859375 207.375 C 116.210938 208.59375 115.5 209.777344 114.734375 210.925781 C 113.964844 212.074219 113.144531 213.183594 112.269531 214.25 C 111.390625 215.316406 110.464844 216.339844 109.488281 217.316406 C 108.511719 218.292969 107.488281 219.21875 106.421875 220.09375 C 105.355469 220.972656 104.246094 221.792969 103.097656 222.5625 C 101.949219 223.328125 100.765625 224.039062 99.546875 224.6875 C 98.332031 225.339844 97.082031 225.929688 95.808594 226.457031 C 94.53125 226.984375 93.234375 227.449219 91.910156 227.851562 C 90.589844 228.253906 89.25 228.585938 87.898438 228.855469 C 86.542969 229.125 85.179688 229.328125 83.804688 229.464844 C 82.429688 229.601562 81.050781 229.667969 79.671875 229.667969 C 78.289062 229.667969 76.910156 229.601562 75.535156 229.464844 C 74.160156 229.328125 72.796875 229.125 71.441406 228.855469 C 70.089844 228.585938 68.75 228.253906 67.429688 227.851562 C 66.105469 227.449219 64.808594 226.984375 63.53125 226.457031 C 62.257812 225.929688 61.007812 225.339844 59.792969 224.6875 C 58.574219 224.039062 57.390625 223.328125 56.242188 222.5625 C 55.09375 221.792969 53.984375 220.972656 52.917969 220.09375 C 51.851562 219.21875 50.828125 218.292969 49.851562 217.316406 C 48.875 216.339844 47.949219 215.316406 47.070312 214.25 C 46.195312 213.183594 45.375 212.074219 44.605469 210.925781 C 43.839844 209.777344 43.128906 208.59375 42.480469 207.375 C 41.828125 206.160156 41.238281 204.910156 40.710938 203.636719 C 40.179688 202.359375 39.714844 201.0625 39.316406 199.738281 C 38.914062 198.417969 38.578125 197.078125 38.308594 195.722656 C 38.039062 194.371094 37.839844 193.003906 37.703125 191.632812 C 37.566406 190.257812 37.5 188.878906 37.5 187.496094 C 37.5 186.117188 37.566406 184.738281 37.703125 183.363281 C 37.839844 181.988281 38.039062 180.625 38.308594 179.269531 C 38.578125 177.917969 38.914062 176.578125 39.316406 175.257812 C 39.714844 173.933594 40.179688 172.636719 40.710938 171.359375 C 41.238281 170.082031 41.828125 168.835938 42.480469 167.617188 C 43.128906 166.402344 43.839844 165.21875 44.605469 164.070312 C 45.375 162.921875 46.195312 161.8125 47.070312 160.746094 C 47.949219 159.675781 48.875 158.65625 49.851562 157.679688 C 50.828125 156.703125 51.851562 155.777344 52.917969 154.898438 C 53.984375 154.023438 55.09375 153.203125 56.242188 152.433594 C 57.390625 151.667969 58.574219 150.957031 59.792969 150.308594 C 61.007812 149.65625 62.257812 149.066406 63.53125 148.539062 C 64.808594 148.007812 66.105469 147.542969 67.429688 147.144531 C 68.75 146.742188 70.089844 146.40625 71.441406 146.136719 C 72.796875 145.867188 74.160156 145.667969 75.535156 145.53125 C 76.910156 145.394531 78.289062 145.328125 79.671875 145.328125 C 81.050781 145.328125 82.429688 145.394531 83.804688 145.53125 C 85.179688 145.667969 86.542969 145.867188 87.898438 146.136719 C 89.25 146.40625 90.589844 146.742188 91.910156 147.144531 C 93.234375 147.542969 94.53125 148.007812 95.808594 148.539062 C 97.082031 149.066406 98.332031 149.65625 99.546875 150.308594 C 100.765625 150.957031 101.949219 151.667969 103.097656 152.433594 C 104.246094 153.203125 105.355469 154.023438 106.421875 154.898438 C 107.488281 155.777344 108.511719 156.703125 109.488281 157.679688 C 110.464844 158.65625 111.390625 159.675781 112.269531 160.746094 C 113.144531 161.8125 113.964844 162.921875 114.734375 164.070312 C 115.5 165.21875 116.210938 166.402344 116.859375 167.617188 C 117.511719 168.835938 118.101562 170.082031 118.628906 171.359375 C 119.160156 172.636719 119.625 173.933594 120.023438 175.257812 C 120.425781 176.578125 120.761719 177.917969 121.03125 179.269531 C 121.300781 180.625 121.5 181.988281 121.636719 183.363281 C 121.773438 184.738281 121.839844 186.117188 121.839844 187.496094 Z M 121.839844 187.496094 " clip-rule="nonzero"/></clipPath><linearGradient x1="245.364235" gradientTransform="matrix(0.292162, 0.16868, 0.16868, -0.292162, -32.361941, 219.873486)" y1="424.73653" x2="233.927636" gradientUnits="userSpaceOnUse" y2="73.891746" id="574115e950"><stop stop-opacity="1" stop-color="rgb(32.199097%, 44.299316%, 100%)" offset="0"/><stop stop-opacity="1" stop-color="rgb(32.199097%, 44.299316%, 100%)" offset="0.0315683"/><stop stop-opacity="1" stop-color="rgb(32.199097%, 44.299316%, 100%)" offset="0.125"/><stop stop-opacity="1" stop-color="rgb(32.199097%, 44.299316%, 100%)" offset="0.140625"/><stop stop-opacity="1" stop-color="rgb(32.164001%, 44.390869%, 100%)" offset="0.148438"/><stop stop-opacity="1" stop-color="rgb(32.063293%, 44.66095%, 100%)" offset="0.15625"/><stop stop-opacity="1" stop-color="rgb(31.929016%, 45.014954%, 100%)" offset="0.164062"/><stop stop-opacity="1" stop-color="rgb(31.794739%, 45.370483%, 100%)" offset="0.171875"/><stop stop-opacity="1" stop-color="rgb(31.661987%, 45.726013%, 100%)" offset="0.179688"/><stop stop-opacity="1" stop-color="rgb(31.52771%, 46.081543%, 100%)" offset="0.1875"/><stop stop-opacity="1" stop-color="rgb(31.394958%, 46.435547%, 100%)" offset="0.195312"/><stop stop-opacity="1" stop-color="rgb(31.260681%, 46.791077%, 100%)" offset="0.203125"/><stop stop-opacity="1" stop-color="rgb(31.12793%, 47.146606%, 100%)" offset="0.210938"/><stop stop-opacity="1" stop-color="rgb(30.993652%, 47.50061%, 100%)" offset="0.21875"/><stop stop-opacity="1" stop-color="rgb(30.859375%, 47.85614%, 100%)" offset="0.226562"/><stop stop-opacity="1" stop-color="rgb(30.726624%, 48.21167%, 100%)" offset="0.234375"/><stop stop-opacity="1" stop-color="rgb(30.592346%, 48.5672%, 100%)" offset="0.242188"/><stop stop-opacity="1" stop-color="rgb(30.459595%, 48.921204%, 100%)" offset="0.25"/><stop stop-opacity="1" stop-color="rgb(30.325317%, 49.276733%, 100%)" offset="0.257812"/><stop stop-opacity="1" stop-color="rgb(30.19104%, 49.632263%, 100%)" offset="0.265625"/><stop stop-opacity="1" stop-color="rgb(30.058289%, 49.986267%, 100%)" offset="0.273438"/><stop stop-opacity="1" stop-color="rgb(29.924011%, 50.341797%, 100%)" offset="0.28125"/><stop stop-opacity="1" stop-color="rgb(29.79126%, 50.697327%, 100%)" offset="0.289062"/><stop stop-opacity="1" stop-color="rgb(29.656982%, 51.052856%, 100%)" offset="0.296875"/><stop stop-opacity="1" stop-color="rgb(29.522705%, 51.40686%, 100%)" offset="0.304688"/><stop stop-opacity="1" stop-color="rgb(29.389954%, 51.76239%, 100%)" offset="0.3125"/><stop stop-opacity="1" stop-color="rgb(29.255676%, 52.11792%, 100%)" offset="0.320312"/><stop stop-opacity="1" stop-color="rgb(29.122925%, 52.471924%, 100%)" offset="0.328125"/><stop stop-opacity="1" stop-color="rgb(28.988647%, 52.827454%, 100%)" offset="0.335938"/><stop stop-opacity="1" stop-color="rgb(28.855896%, 53.182983%, 100%)" offset="0.34375"/><stop stop-opacity="1" stop-color="rgb(28.721619%, 53.538513%, 100%)" offset="0.351563"/><stop stop-opacity="1" stop-color="rgb(28.587341%, 53.892517%, 100%)" offset="0.359375"/><stop stop-opacity="1" stop-color="rgb(28.45459%, 54.248047%, 100%)" offset="0.367188"/><stop stop-opacity="1" stop-color="rgb(28.320312%, 54.603577%, 100%)" offset="0.375"/><stop stop-opacity="1" stop-color="rgb(28.187561%, 54.957581%, 100%)" offset="0.382812"/><stop stop-opacity="1" stop-color="rgb(28.053284%, 55.31311%, 100%)" offset="0.390625"/><stop stop-opacity="1" stop-color="rgb(27.919006%, 55.66864%, 100%)" offset="0.398438"/><stop stop-opacity="1" stop-color="rgb(27.786255%, 56.022644%, 100%)" offset="0.40625"/><stop stop-opacity="1" stop-color="rgb(27.651978%, 56.378174%, 100%)" offset="0.414062"/><stop stop-opacity="1" stop-color="rgb(27.519226%, 56.733704%, 100%)" offset="0.421875"/><stop stop-opacity="1" stop-color="rgb(27.384949%, 57.089233%, 100%)" offset="0.429687"/><stop stop-opacity="1" stop-color="rgb(27.250671%, 57.443237%, 100%)" offset="0.4375"/><stop stop-opacity="1" stop-color="rgb(27.11792%, 57.798767%, 100%)" offset="0.445312"/><stop stop-opacity="1" stop-color="rgb(26.983643%, 58.154297%, 100%)" offset="0.453125"/><stop stop-opacity="1" stop-color="rgb(26.850891%, 58.508301%, 100%)" offset="0.460938"/><stop stop-opacity="1" stop-color="rgb(26.716614%, 58.863831%, 100%)" offset="0.46875"/><stop stop-opacity="1" stop-color="rgb(26.582336%, 59.21936%, 100%)" offset="0.476562"/><stop stop-opacity="1" stop-color="rgb(26.449585%, 59.57489%, 100%)" offset="0.484375"/><stop stop-opacity="1" stop-color="rgb(26.315308%, 59.928894%, 100%)" offset="0.492187"/><stop stop-opacity="1" stop-color="rgb(26.182556%, 60.284424%, 100%)" offset="0.5"/><stop stop-opacity="1" stop-color="rgb(26.048279%, 60.639954%, 100%)" offset="0.507812"/><stop stop-opacity="1" stop-color="rgb(25.915527%, 60.993958%, 100%)" offset="0.515625"/><stop stop-opacity="1" stop-color="rgb(25.78125%, 61.349487%, 100%)" offset="0.523438"/><stop stop-opacity="1" stop-color="rgb(25.646973%, 61.705017%, 100%)" offset="0.53125"/><stop stop-opacity="1" stop-color="rgb(25.514221%, 62.060547%, 100%)" offset="0.539062"/><stop stop-opacity="1" stop-color="rgb(25.379944%, 62.414551%, 100%)" offset="0.546875"/><stop stop-opacity="1" stop-color="rgb(25.247192%, 62.770081%, 100%)" offset="0.554688"/><stop stop-opacity="1" stop-color="rgb(25.112915%, 63.12561%, 100%)" offset="0.5625"/><stop stop-opacity="1" stop-color="rgb(24.978638%, 63.479614%, 100%)" offset="0.570312"/><stop stop-opacity="1" stop-color="rgb(24.845886%, 63.835144%, 100%)" offset="0.578125"/><stop stop-opacity="1" stop-color="rgb(24.711609%, 64.190674%, 100%)" offset="0.585938"/><stop stop-opacity="1" stop-color="rgb(24.578857%, 64.546204%, 100%)" offset="0.59375"/><stop stop-opacity="1" stop-color="rgb(24.44458%, 64.900208%, 100%)" offset="0.601562"/><stop stop-opacity="1" stop-color="rgb(24.310303%, 65.255737%, 100%)" offset="0.609375"/><stop stop-opacity="1" stop-color="rgb(24.177551%, 65.611267%, 100%)" offset="0.617188"/><stop stop-opacity="1" stop-color="rgb(24.043274%, 65.965271%, 100%)" offset="0.625"/><stop stop-opacity="1" stop-color="rgb(23.910522%, 66.320801%, 100%)" offset="0.632812"/><stop stop-opacity="1" stop-color="rgb(23.776245%, 66.676331%, 100%)" offset="0.640625"/><stop stop-opacity="1" stop-color="rgb(23.643494%, 67.03186%, 100%)" offset="0.648438"/><stop stop-opacity="1" stop-color="rgb(23.509216%, 67.385864%, 100%)" offset="0.65625"/><stop stop-opacity="1" stop-color="rgb(23.374939%, 67.741394%, 100%)" offset="0.664062"/><stop stop-opacity="1" stop-color="rgb(23.242188%, 68.096924%, 100%)" offset="0.671875"/><stop stop-opacity="1" stop-color="rgb(23.10791%, 68.450928%, 100%)" offset="0.679688"/><stop stop-opacity="1" stop-color="rgb(22.975159%, 68.806458%, 100%)" offset="0.6875"/><stop stop-opacity="1" stop-color="rgb(22.840881%, 69.161987%, 100%)" offset="0.695313"/><stop stop-opacity="1" stop-color="rgb(22.706604%, 69.515991%, 100%)" offset="0.703125"/><stop stop-opacity="1" stop-color="rgb(22.573853%, 69.871521%, 100%)" offset="0.710938"/><stop stop-opacity="1" stop-color="rgb(22.439575%, 70.227051%, 100%)" offset="0.71875"/><stop stop-opacity="1" stop-color="rgb(22.306824%, 70.582581%, 100%)" offset="0.726562"/><stop stop-opacity="1" stop-color="rgb(22.172546%, 70.936584%, 100%)" offset="0.734375"/><stop stop-opacity="1" stop-color="rgb(22.052002%, 71.257019%, 100%)" offset="0.75"/><stop stop-opacity="1" stop-color="rgb(21.998596%, 71.398926%, 100%)" offset="0.968432"/><stop stop-opacity="1" stop-color="rgb(21.998596%, 71.398926%, 100%)" offset="1"/></linearGradient><clipPath id="ffa59f5c5a"><path d="M 46.152344 153.980469 L 112.902344 153.980469 L 112.902344 220.730469 L 46.152344 220.730469 Z M 46.152344 153.980469 " clip-rule="nonzero"/></clipPath></defs><g clip-path="url(#bc2da383c3)"><g clip-path="url(#8ad7f73966)"><path fill="url(#574115e950)" d="M 1.125 208.328125 L 58.5 108.953125 L 157.875 166.328125 L 100.5 265.699219 Z M 1.125 208.328125 " fill-rule="nonzero"/></g></g><g clip-path="url(#ffa59f5c5a)"><path fill="#ffffff" d="M 79.667969 153.980469 C 78.570312 153.980469 77.476562 154.035156 76.382812 154.140625 C 75.292969 154.25 74.207031 154.410156 73.128906 154.625 C 72.054688 154.839844 70.988281 155.105469 69.941406 155.425781 C 68.890625 155.742188 67.855469 156.113281 66.84375 156.53125 C 65.828125 156.953125 64.835938 157.421875 63.871094 157.9375 C 62.902344 158.457031 61.960938 159.019531 61.046875 159.628906 C 60.136719 160.238281 59.253906 160.890625 58.40625 161.589844 C 57.558594 162.285156 56.746094 163.019531 55.96875 163.796875 C 55.195312 164.574219 54.457031 165.386719 53.761719 166.234375 C 53.066406 167.082031 52.410156 167.964844 51.800781 168.875 C 51.191406 169.789062 50.628906 170.730469 50.109375 171.699219 C 49.59375 172.664062 49.125 173.65625 48.703125 174.671875 C 48.285156 175.683594 47.914062 176.71875 47.597656 177.765625 C 47.277344 178.816406 47.011719 179.882812 46.796875 180.957031 C 46.582031 182.035156 46.421875 183.117188 46.316406 184.210938 C 46.207031 185.304688 46.152344 186.398438 46.152344 187.496094 C 46.152344 188.59375 46.207031 189.6875 46.316406 190.78125 C 46.421875 191.875 46.582031 192.957031 46.796875 194.035156 C 47.011719 195.113281 47.277344 196.175781 47.597656 197.226562 C 47.914062 198.277344 48.285156 199.308594 48.703125 200.324219 C 49.125 201.335938 49.59375 202.328125 50.109375 203.296875 C 50.628906 204.265625 51.191406 205.203125 51.800781 206.117188 C 52.410156 207.03125 53.066406 207.910156 53.761719 208.757812 C 54.457031 209.605469 55.195312 210.417969 55.96875 211.195312 C 56.746094 211.972656 57.558594 212.707031 58.40625 213.40625 C 59.253906 214.101562 60.136719 214.753906 61.046875 215.363281 C 61.960938 215.972656 62.902344 216.539062 63.871094 217.054688 C 64.835938 217.570312 65.828125 218.039062 66.84375 218.460938 C 67.855469 218.882812 68.890625 219.25 69.941406 219.570312 C 70.988281 219.886719 72.054688 220.152344 73.128906 220.367188 C 74.207031 220.582031 75.292969 220.742188 76.382812 220.851562 C 77.476562 220.957031 78.570312 221.011719 79.667969 221.011719 C 80.765625 221.011719 81.863281 220.957031 82.953125 220.851562 C 84.046875 220.742188 85.128906 220.582031 86.207031 220.367188 C 87.285156 220.152344 88.347656 219.886719 89.398438 219.570312 C 90.449219 219.25 91.480469 218.882812 92.496094 218.460938 C 93.507812 218.039062 94.5 217.570312 95.46875 217.054688 C 96.4375 216.539062 97.375 215.972656 98.289062 215.363281 C 99.203125 214.753906 100.082031 214.101562 100.929688 213.40625 C 101.78125 212.707031 102.589844 211.972656 103.367188 211.195312 C 104.144531 210.417969 104.878906 209.605469 105.578125 208.757812 C 106.273438 207.910156 106.925781 207.03125 107.535156 206.117188 C 108.144531 205.203125 108.710938 204.265625 109.226562 203.296875 C 109.746094 202.328125 110.214844 201.335938 110.632812 200.324219 C 111.054688 199.308594 111.421875 198.277344 111.742188 197.226562 C 112.058594 196.175781 112.328125 195.113281 112.539062 194.035156 C 112.753906 192.957031 112.914062 191.875 113.023438 190.78125 C 113.128906 189.6875 113.183594 188.59375 113.183594 187.496094 C 113.183594 186.398438 113.128906 185.304688 113.023438 184.210938 C 112.914062 183.117188 112.753906 182.035156 112.539062 180.957031 C 112.328125 179.882812 112.058594 178.816406 111.742188 177.765625 C 111.421875 176.71875 111.054688 175.683594 110.632812 174.671875 C 110.214844 173.65625 109.746094 172.664062 109.226562 171.699219 C 108.710938 170.730469 108.144531 169.789062 107.535156 168.875 C 106.925781 167.964844 106.273438 167.082031 105.578125 166.234375 C 104.878906 165.386719 104.144531 164.574219 103.367188 163.796875 C 102.589844 163.019531 101.78125 162.285156 100.929688 161.589844 C 100.082031 160.890625 99.203125 160.238281 98.289062 159.628906 C 97.375 159.019531 96.4375 158.457031 95.46875 157.9375 C 94.5 157.421875 93.507812 156.953125 92.496094 156.53125 C 91.480469 156.113281 90.449219 155.742188 89.398438 155.425781 C 88.347656 155.105469 87.285156 154.839844 86.207031 154.625 C 85.128906 154.410156 84.046875 154.25 82.953125 154.140625 C 81.863281 154.035156 80.765625 153.980469 79.667969 153.980469 Z M 84.457031 199.191406 C 84.15625 199.234375 83.863281 199.214844 83.570312 199.128906 C 83.28125 199.042969 83.019531 198.902344 82.792969 198.707031 C 82.5625 198.507812 82.382812 198.273438 82.257812 198 C 82.128906 197.722656 82.066406 197.433594 82.0625 197.132812 L 82.0625 191.625 C 82.0625 191.394531 82.101562 191.167969 82.175781 190.945312 C 82.253906 190.726562 82.363281 190.523438 82.507812 190.34375 C 82.652344 190.160156 82.824219 190.007812 83.019531 189.882812 C 83.214844 189.757812 83.429688 189.667969 83.65625 189.617188 C 84.09375 189.515625 84.519531 189.375 84.933594 189.195312 C 85.347656 189.015625 85.738281 188.796875 86.109375 188.542969 C 86.480469 188.289062 86.828125 188.003906 87.144531 187.683594 C 87.464844 187.367188 87.75 187.019531 88.003906 186.648438 C 88.253906 186.277344 88.472656 185.882812 88.652344 185.46875 C 88.832031 185.054688 88.96875 184.628906 89.070312 184.191406 C 89.167969 183.75 89.222656 183.308594 89.238281 182.855469 C 89.253906 182.40625 89.226562 181.957031 89.160156 181.511719 C 89.089844 181.070312 88.980469 180.632812 88.832031 180.210938 C 88.679688 179.785156 88.492188 179.378906 88.261719 178.988281 C 88.035156 178.601562 87.773438 178.234375 87.480469 177.894531 C 87.183594 177.554688 86.859375 177.246094 86.503906 176.96875 C 86.152344 176.691406 85.773438 176.445312 85.375 176.238281 C 84.972656 176.03125 84.558594 175.863281 84.128906 175.734375 C 83.695312 175.605469 83.257812 175.515625 82.808594 175.46875 C 82.359375 175.421875 81.910156 175.417969 81.464844 175.457031 C 81.015625 175.492188 80.574219 175.570312 80.140625 175.691406 C 79.703125 175.8125 79.285156 175.972656 78.882812 176.171875 C 78.476562 176.371094 78.097656 176.605469 77.738281 176.878906 C 77.378906 177.148438 77.046875 177.453125 76.742188 177.785156 C 76.441406 178.121094 76.171875 178.476562 75.9375 178.863281 C 75.703125 179.246094 75.503906 179.648438 75.34375 180.070312 C 75.1875 180.492188 75.066406 180.925781 74.988281 181.367188 C 74.910156 181.8125 74.875 182.257812 74.882812 182.707031 L 74.882812 205.453125 C 74.882812 205.925781 74.789062 206.386719 74.609375 206.824219 C 74.425781 207.265625 74.164062 207.652344 73.828125 207.992188 C 73.492188 208.328125 73.105469 208.585938 72.664062 208.769531 C 72.222656 208.953125 71.765625 209.042969 71.289062 209.042969 L 68.894531 209.042969 C 68.417969 209.042969 67.960938 208.953125 67.523438 208.769531 C 67.082031 208.585938 66.695312 208.328125 66.355469 207.992188 C 66.019531 207.652344 65.761719 207.265625 65.578125 206.824219 C 65.394531 206.386719 65.304688 205.925781 65.304688 205.453125 L 65.304688 183.140625 C 65.292969 182.058594 65.382812 180.988281 65.574219 179.925781 C 65.765625 178.863281 66.054688 177.828125 66.445312 176.820312 C 66.832031 175.8125 67.3125 174.851562 67.882812 173.9375 C 68.453125 173.019531 69.105469 172.164062 69.839844 171.375 C 70.574219 170.582031 71.375 169.867188 72.246094 169.226562 C 73.117188 168.585938 74.039062 168.035156 75.011719 167.570312 C 75.988281 167.105469 76.996094 166.738281 78.042969 166.464844 C 79.085938 166.191406 80.148438 166.019531 81.226562 165.949219 C 82.265625 165.9375 83.300781 166.019531 84.324219 166.199219 C 85.351562 166.378906 86.351562 166.652344 87.324219 167.015625 C 88.300781 167.382812 89.230469 167.835938 90.121094 168.375 C 91.011719 168.914062 91.847656 169.53125 92.621094 170.226562 C 93.398438 170.921875 94.101562 171.679688 94.734375 172.507812 C 95.367188 173.332031 95.921875 174.210938 96.390625 175.140625 C 96.859375 176.066406 97.242188 177.03125 97.53125 178.03125 C 97.820312 179.03125 98.015625 180.050781 98.117188 181.085938 C 98.21875 182.121094 98.222656 183.160156 98.128906 184.195312 C 98.039062 185.230469 97.851562 186.25 97.570312 187.253906 C 97.285156 188.253906 96.914062 189.222656 96.449219 190.15625 C 95.988281 191.089844 95.441406 191.96875 94.816406 192.800781 C 94.1875 193.632812 93.492188 194.398438 92.722656 195.097656 C 91.949219 195.800781 91.125 196.421875 90.238281 196.96875 C 89.351562 197.515625 88.421875 197.976562 87.449219 198.351562 C 86.480469 198.722656 85.480469 199.003906 84.457031 199.191406 Z M 84.457031 199.191406 " fill-opacity="1" fill-rule="nonzero"/></g><g fill="#38b6ff" fill-opacity="1"><g transform="translate(142.528251, 199.499987)"><g><path d="M 23.984375 -17.671875 C 25.453125 -16.898438 26.59375 -15.820312 27.40625 -14.4375 C 28.21875 -13.050781 28.625 -11.460938 28.625 -9.671875 C 28.625 -7.878906 28.148438 -6.25 27.203125 -4.78125 C 26.265625 -3.3125 24.988281 -2.144531 23.375 -1.28125 C 21.769531 -0.425781 20.007812 0 18.09375 0 L 3.828125 0 L 3.828125 -33.515625 L 17.71875 -33.515625 C 19.632812 -33.515625 21.347656 -33.140625 22.859375 -32.390625 C 24.378906 -31.640625 25.578125 -30.609375 26.453125 -29.296875 C 27.328125 -27.992188 27.765625 -26.523438 27.765625 -24.890625 C 27.765625 -23.453125 27.425781 -22.09375 26.75 -20.8125 C 26.082031 -19.539062 25.160156 -18.492188 23.984375 -17.671875 Z M 20.734375 -23.75 C 20.734375 -24.800781 20.394531 -25.660156 19.71875 -26.328125 C 19.050781 -27.003906 18.144531 -27.34375 17 -27.34375 L 10.96875 -27.34375 L 10.96875 -20.203125 L 17 -20.203125 C 18.144531 -20.203125 19.050781 -20.535156 19.71875 -21.203125 C 20.394531 -21.878906 20.734375 -22.726562 20.734375 -23.75 Z M 17.375 -6.65625 C 18.59375 -6.65625 19.5625 -7.003906 20.28125 -7.703125 C 21 -8.410156 21.359375 -9.320312 21.359375 -10.4375 C 21.359375 -11.519531 21 -12.410156 20.28125 -13.109375 C 19.5625 -13.816406 18.59375 -14.171875 17.375 -14.171875 L 10.96875 -14.171875 L 10.96875 -6.65625 Z M 17.375 -6.65625 "/></g></g></g><g fill="#38b6ff" fill-opacity="1"><g transform="translate(172.160453, 199.499987)"><g><path d="M 3.34375 -29.296875 L 3.34375 -35.8125 L 10.34375 -35.8125 L 10.34375 -29.296875 Z M 3.34375 0 L 3.34375 -25.859375 L 10.34375 -25.859375 L 10.34375 0 Z M 3.34375 0 "/></g></g></g><g fill="#38b6ff" fill-opacity="1"><g transform="translate(184.750515, 199.499987)"><g><path d="M 24.21875 -25.859375 L 28.765625 -25.859375 L 28.765625 -3.015625 C 28.765625 -0.304688 28.226562 2.019531 27.15625 3.96875 C 26.09375 5.914062 24.570312 7.414062 22.59375 8.46875 C 20.613281 9.519531 18.269531 10.046875 15.5625 10.046875 C 12.050781 10.046875 9.117188 9.203125 6.765625 7.515625 C 4.421875 5.828125 2.960938 3.515625 2.390625 0.578125 L 9.328125 0.578125 C 9.710938 1.722656 10.503906 2.585938 11.703125 3.171875 C 12.898438 3.765625 14.140625 4.0625 15.421875 4.0625 C 17.203125 4.0625 18.722656 3.523438 19.984375 2.453125 C 21.242188 1.390625 21.875 -0.0976562 21.875 -2.015625 L 21.875 -2.96875 C 20.851562 -2.226562 19.71875 -1.660156 18.46875 -1.265625 C 17.226562 -0.867188 15.90625 -0.671875 14.5 -0.671875 C 12.113281 -0.671875 9.945312 -1.242188 8 -2.390625 C 6.050781 -3.546875 4.507812 -5.09375 3.375 -7.03125 C 2.238281 -8.976562 1.671875 -11.164062 1.671875 -13.59375 C 1.671875 -16.019531 2.238281 -18.210938 3.375 -20.171875 C 4.507812 -22.140625 6.050781 -23.695312 8 -24.84375 C 9.945312 -26 12.113281 -26.578125 14.5 -26.578125 C 16.195312 -26.578125 17.78125 -26.285156 19.25 -25.703125 C 20.71875 -25.128906 22.007812 -24.316406 23.125 -23.265625 Z M 15.3125 -6.890625 C 17.226562 -6.890625 18.804688 -7.519531 20.046875 -8.78125 C 21.296875 -10.039062 21.921875 -11.644531 21.921875 -13.59375 C 21.921875 -15.507812 21.304688 -17.097656 20.078125 -18.359375 C 18.847656 -19.617188 17.257812 -20.25 15.3125 -20.25 C 13.4375 -20.25 11.875 -19.617188 10.625 -18.359375 C 9.382812 -17.097656 8.765625 -15.507812 8.765625 -13.59375 C 8.765625 -11.644531 9.378906 -10.039062 10.609375 -8.78125 C 11.835938 -7.519531 13.40625 -6.890625 15.3125 -6.890625 Z M 15.3125 -6.890625 "/></g></g></g><g fill="#38b6ff" fill-opacity="1"><g transform="translate(215.770977, 199.499987)"><g><path d="M 16.703125 -33.515625 C 18.972656 -33.515625 20.992188 -33.007812 22.765625 -32 C 24.535156 -31 25.945312 -29.628906 27 -27.890625 C 28.050781 -26.148438 28.578125 -24.175781 28.578125 -21.96875 C 28.578125 -19.769531 28.054688 -17.800781 27.015625 -16.0625 C 25.984375 -14.320312 24.570312 -12.957031 22.78125 -11.96875 C 21 -10.976562 18.972656 -10.484375 16.703125 -10.484375 L 11.109375 -10.484375 L 11.109375 0 L 3.828125 0 L 3.828125 -33.515625 Z M 16.421875 -17.1875 C 17.859375 -17.1875 19.015625 -17.640625 19.890625 -18.546875 C 20.765625 -19.460938 21.203125 -20.601562 21.203125 -21.96875 C 21.203125 -23.375 20.765625 -24.53125 19.890625 -25.4375 C 19.015625 -26.351562 17.859375 -26.8125 16.421875 -26.8125 L 11.109375 -26.8125 L 11.109375 -17.1875 Z M 16.421875 -17.1875 "/></g></g></g><g fill="#38b6ff" fill-opacity="1"><g transform="translate(244.445755, 199.499987)"><g><path d="M 24.46875 -25.90625 L 29.6875 -25.90625 L 29.6875 -0.046875 L 24.171875 -0.046875 L 23.609375 -2.34375 C 22.484375 -1.382812 21.210938 -0.632812 19.796875 -0.09375 C 18.378906 0.445312 16.851562 0.71875 15.21875 0.71875 C 12.632812 0.71875 10.320312 0.117188 8.28125 -1.078125 C 6.238281 -2.273438 4.625 -3.898438 3.4375 -5.953125 C 2.257812 -8.015625 1.671875 -10.351562 1.671875 -12.96875 C 1.671875 -15.5625 2.257812 -17.882812 3.4375 -19.9375 C 4.625 -22 6.238281 -23.617188 8.28125 -24.796875 C 10.320312 -25.984375 12.632812 -26.578125 15.21875 -26.578125 C 16.882812 -26.578125 18.429688 -26.296875 19.859375 -25.734375 C 21.296875 -25.171875 22.578125 -24.394531 23.703125 -23.40625 Z M 15.796875 -5.890625 C 17.140625 -5.890625 18.34375 -6.191406 19.40625 -6.796875 C 20.476562 -7.398438 21.316406 -8.238281 21.921875 -9.3125 C 22.535156 -10.382812 22.84375 -11.601562 22.84375 -12.96875 C 22.84375 -14.3125 22.535156 -15.515625 21.921875 -16.578125 C 21.316406 -17.648438 20.476562 -18.5 19.40625 -19.125 C 18.34375 -19.75 17.140625 -20.0625 15.796875 -20.0625 C 14.421875 -20.0625 13.207031 -19.75 12.15625 -19.125 C 11.101562 -18.5 10.273438 -17.648438 9.671875 -16.578125 C 9.066406 -15.515625 8.765625 -14.3125 8.765625 -12.96875 C 8.765625 -11.601562 9.066406 -10.390625 9.671875 -9.328125 C 10.273438 -8.273438 11.101562 -7.4375 12.15625 -6.8125 C 13.207031 -6.195312 14.421875 -5.890625 15.796875 -5.890625 Z M 15.796875 -5.890625 "/></g></g></g><g fill="#38b6ff" fill-opacity="1"><g transform="translate(276.375776, 199.499987)"><g><path d="M 21.203125 -25.859375 L 28.671875 -25.859375 L 17.375 -0.328125 C 16.351562 1.992188 15.316406 3.863281 14.265625 5.28125 C 13.210938 6.707031 12.015625 7.738281 10.671875 8.375 C 9.335938 9.007812 7.695312 9.328125 5.75 9.328125 L 2.875 9.328125 L 2.875 3.015625 L 5.3125 3.015625 C 6.425781 3.015625 7.3125 2.882812 7.96875 2.625 C 8.625 2.375 9.179688 1.90625 9.640625 1.21875 C 10.109375 0.53125 10.613281 -0.460938 11.15625 -1.765625 L 11.25 -1.96875 L 0.28125 -25.859375 L 7.90625 -25.859375 L 14.796875 -9.953125 Z M 21.203125 -25.859375 "/></g></g></g></svg>