<svg xmlns="http://www.w3.org/2000/svg" xmlns:xlink="http://www.w3.org/1999/xlink" width="500" zoomAndPan="magnify" viewBox="0 0 375 374.999991" height="500" preserveAspectRatio="xMidYMid meet" version="1.0"><defs><clipPath id="d48ae1004b"><path d="M 74.71875 74.71875 L 300.46875 74.71875 L 300.46875 300.46875 L 74.71875 300.46875 Z M 74.71875 74.71875 " clip-rule="nonzero"/></clipPath><clipPath id="60e94f4d43"><path d="M 300.28125 187.5 C 300.28125 189.34375 300.234375 191.191406 300.144531 193.035156 C 300.054688 194.878906 299.917969 196.71875 299.738281 198.554688 C 299.558594 200.390625 299.332031 202.222656 299.058594 204.046875 C 298.789062 205.875 298.472656 207.691406 298.113281 209.503906 C 297.753906 211.3125 297.351562 213.113281 296.902344 214.902344 C 296.453125 216.695312 295.960938 218.472656 295.425781 220.238281 C 294.890625 222.003906 294.308594 223.757812 293.6875 225.496094 C 293.066406 227.234375 292.402344 228.953125 291.695312 230.660156 C 290.988281 232.363281 290.242188 234.050781 289.453125 235.71875 C 288.664062 237.386719 287.835938 239.035156 286.964844 240.664062 C 286.09375 242.292969 285.183594 243.898438 284.234375 245.480469 C 283.285156 247.0625 282.300781 248.621094 281.273438 250.15625 C 280.25 251.691406 279.1875 253.199219 278.085938 254.683594 C 276.988281 256.164062 275.851562 257.621094 274.679688 259.046875 C 273.511719 260.472656 272.304688 261.871094 271.066406 263.238281 C 269.824219 264.605469 268.554688 265.941406 267.25 267.25 C 265.941406 268.554688 264.605469 269.824219 263.238281 271.066406 C 261.871094 272.304688 260.472656 273.511719 259.046875 274.679688 C 257.621094 275.851562 256.167969 276.988281 254.683594 278.085938 C 253.199219 279.1875 251.691406 280.25 250.15625 281.273438 C 248.625 282.300781 247.0625 283.285156 245.480469 284.234375 C 243.898438 285.183594 242.292969 286.09375 240.664062 286.964844 C 239.035156 287.832031 237.386719 288.664062 235.71875 289.453125 C 234.050781 290.242188 232.363281 290.988281 230.660156 291.695312 C 228.953125 292.402344 227.234375 293.066406 225.496094 293.6875 C 223.757812 294.308594 222.003906 294.890625 220.238281 295.425781 C 218.472656 295.960938 216.695312 296.453125 214.902344 296.902344 C 213.113281 297.347656 211.3125 297.753906 209.503906 298.113281 C 207.691406 298.472656 205.875 298.789062 204.046875 299.058594 C 202.222656 299.332031 200.390625 299.558594 198.554688 299.738281 C 196.71875 299.917969 194.878906 300.054688 193.035156 300.144531 C 191.191406 300.234375 189.34375 300.28125 187.5 300.28125 C 185.652344 300.28125 183.808594 300.234375 181.964844 300.144531 C 180.121094 300.054688 178.28125 299.917969 176.445312 299.738281 C 174.609375 299.558594 172.777344 299.332031 170.953125 299.058594 C 169.125 298.789062 167.308594 298.472656 165.496094 298.113281 C 163.6875 297.753906 161.886719 297.347656 160.097656 296.902344 C 158.304688 296.453125 156.527344 295.960938 154.761719 295.425781 C 152.996094 294.890625 151.242188 294.308594 149.503906 293.6875 C 147.765625 293.066406 146.046875 292.402344 144.339844 291.695312 C 142.636719 290.988281 140.949219 290.242188 139.28125 289.453125 C 137.609375 288.664062 135.964844 287.832031 134.335938 286.964844 C 132.707031 286.09375 131.101562 285.183594 129.519531 284.234375 C 127.933594 283.285156 126.375 282.300781 124.84375 281.273438 C 123.308594 280.25 121.796875 279.1875 120.316406 278.085938 C 118.832031 276.988281 117.378906 275.851562 115.953125 274.679688 C 114.527344 273.511719 113.128906 272.304688 111.761719 271.066406 C 110.394531 269.824219 109.054688 268.554688 107.75 267.25 C 106.445312 265.941406 105.175781 264.605469 103.933594 263.238281 C 102.695312 261.871094 101.488281 260.472656 100.320312 259.046875 C 99.148438 257.621094 98.011719 256.164062 96.914062 254.683594 C 95.8125 253.199219 94.75 251.691406 93.726562 250.15625 C 92.699219 248.621094 91.714844 247.0625 90.765625 245.480469 C 89.816406 243.898438 88.90625 242.292969 88.035156 240.664062 C 87.164062 239.035156 86.335938 237.386719 85.546875 235.71875 C 84.757812 234.050781 84.011719 232.363281 83.304688 230.660156 C 82.597656 228.953125 81.933594 227.234375 81.3125 225.496094 C 80.691406 223.757812 80.109375 222.003906 79.574219 220.238281 C 79.039062 218.472656 78.546875 216.695312 78.097656 214.902344 C 77.648438 213.113281 77.246094 211.3125 76.886719 209.503906 C 76.527344 207.691406 76.210938 205.875 75.9375 204.046875 C 75.667969 202.222656 75.441406 200.390625 75.261719 198.554688 C 75.082031 196.71875 74.945312 194.878906 74.855469 193.035156 C 74.765625 191.191406 74.71875 189.34375 74.71875 187.5 C 74.71875 185.652344 74.765625 183.808594 74.855469 181.964844 C 74.945312 180.121094 75.082031 178.28125 75.261719 176.445312 C 75.441406 174.609375 75.667969 172.777344 75.9375 170.953125 C 76.210938 169.125 76.527344 167.308594 76.886719 165.496094 C 77.246094 163.6875 77.648438 161.886719 78.097656 160.097656 C 78.546875 158.304688 79.039062 156.527344 79.574219 154.761719 C 80.109375 152.996094 80.691406 151.242188 81.3125 149.503906 C 81.933594 147.765625 82.597656 146.046875 83.304688 144.339844 C 84.011719 142.636719 84.757812 140.949219 85.546875 139.28125 C 86.335938 137.609375 87.164062 135.960938 88.035156 134.335938 C 88.90625 132.707031 89.816406 131.101562 90.765625 129.519531 C 91.714844 127.933594 92.699219 126.375 93.726562 124.84375 C 94.75 123.308594 95.8125 121.796875 96.914062 120.316406 C 98.011719 118.832031 99.148438 117.378906 100.320312 115.953125 C 101.488281 114.523438 102.695312 113.128906 103.933594 111.761719 C 105.175781 110.394531 106.445312 109.054688 107.75 107.75 C 109.054688 106.445312 110.394531 105.175781 111.761719 103.933594 C 113.128906 102.695312 114.527344 101.488281 115.953125 100.320312 C 117.378906 99.148438 118.832031 98.011719 120.316406 96.914062 C 121.796875 95.8125 123.308594 94.75 124.84375 93.726562 C 126.375 92.699219 127.933594 91.714844 129.519531 90.765625 C 131.101562 89.816406 132.707031 88.90625 134.335938 88.035156 C 135.964844 87.164062 137.609375 86.335938 139.28125 85.546875 C 140.949219 84.757812 142.636719 84.011719 144.339844 83.304688 C 146.046875 82.597656 147.765625 81.933594 149.503906 81.3125 C 151.242188 80.6875 152.996094 80.109375 154.761719 79.574219 C 156.527344 79.039062 158.304688 78.546875 160.097656 78.097656 C 161.886719 77.648438 163.6875 77.246094 165.496094 76.886719 C 167.308594 76.527344 169.125 76.210938 170.953125 75.9375 C 172.777344 75.667969 174.609375 75.441406 176.445312 75.261719 C 178.28125 75.082031 180.121094 74.945312 181.964844 74.855469 C 183.808594 74.765625 185.652344 74.71875 187.5 74.71875 C 189.34375 74.71875 191.191406 74.765625 193.035156 74.855469 C 194.878906 74.945312 196.71875 75.082031 198.554688 75.261719 C 200.390625 75.441406 202.222656 75.667969 204.046875 75.9375 C 205.875 76.210938 207.691406 76.527344 209.503906 76.886719 C 211.3125 77.246094 213.113281 77.648438 214.902344 78.097656 C 216.695312 78.546875 218.472656 79.039062 220.238281 79.574219 C 222.003906 80.109375 223.757812 80.6875 225.496094 81.3125 C 227.234375 81.933594 228.953125 82.597656 230.660156 83.304688 C 232.363281 84.011719 234.050781 84.757812 235.71875 85.546875 C 237.386719 86.335938 239.035156 87.164062 240.664062 88.035156 C 242.292969 88.90625 243.898438 89.816406 245.480469 90.765625 C 247.0625 91.714844 248.625 92.699219 250.15625 93.726562 C 251.691406 94.75 253.199219 95.8125 254.683594 96.914062 C 256.167969 98.011719 257.621094 99.148438 259.046875 100.320312 C 260.472656 101.488281 261.871094 102.695312 263.238281 103.933594 C 264.605469 105.175781 265.941406 106.445312 267.25 107.75 C 268.554688 109.054688 269.824219 110.394531 271.066406 111.761719 C 272.304688 113.128906 273.511719 114.523438 274.679688 115.953125 C 275.851562 117.378906 276.988281 118.832031 278.085938 120.316406 C 279.1875 121.796875 280.25 123.308594 281.273438 124.84375 C 282.300781 126.375 283.285156 127.933594 284.234375 129.519531 C 285.183594 131.101562 286.09375 132.707031 286.964844 134.335938 C 287.835938 135.960938 288.664062 137.609375 289.453125 139.28125 C 290.242188 140.949219 290.988281 142.636719 291.695312 144.339844 C 292.402344 146.046875 293.066406 147.765625 293.6875 149.503906 C 294.308594 151.242188 294.890625 152.996094 295.425781 154.761719 C 295.960938 156.527344 296.453125 158.304688 296.902344 160.097656 C 297.351562 161.886719 297.753906 163.6875 298.113281 165.496094 C 298.472656 167.308594 298.789062 169.125 299.058594 170.953125 C 299.332031 172.777344 299.558594 174.609375 299.738281 176.445312 C 299.917969 178.28125 300.054688 180.121094 300.144531 181.964844 C 300.234375 183.808594 300.28125 185.652344 300.28125 187.5 Z M 300.28125 187.5 " clip-rule="nonzero"/></clipPath><linearGradient x1="245.382098" gradientTransform="matrix(0.781371, 0.451125, 0.451125, -0.781371, -112.123498, 274.087245)" y1="425.284516" x2="233.899229" gradientUnits="userSpaceOnUse" y2="73.020282" id="aacf0d09a4"><stop stop-opacity="1" stop-color="rgb(32.199097%, 44.299316%, 100%)" offset="0"/><stop stop-opacity="1" stop-color="rgb(32.199097%, 44.299316%, 100%)" offset="0.0315683"/><stop stop-opacity="1" stop-color="rgb(32.199097%, 44.299316%, 100%)" offset="0.125"/><stop stop-opacity="1" stop-color="rgb(32.199097%, 44.299316%, 100%)" offset="0.140625"/><stop stop-opacity="1" stop-color="rgb(32.171631%, 44.369507%, 100%)" offset="0.148438"/><stop stop-opacity="1" stop-color="rgb(32.078552%, 44.618225%, 100%)" offset="0.15625"/><stop stop-opacity="1" stop-color="rgb(31.944275%, 44.973755%, 100%)" offset="0.164062"/><stop stop-opacity="1" stop-color="rgb(31.811523%, 45.330811%, 100%)" offset="0.171875"/><stop stop-opacity="1" stop-color="rgb(31.677246%, 45.687866%, 100%)" offset="0.179687"/><stop stop-opacity="1" stop-color="rgb(31.542969%, 46.043396%, 100%)" offset="0.1875"/><stop stop-opacity="1" stop-color="rgb(31.408691%, 46.400452%, 100%)" offset="0.195312"/><stop stop-opacity="1" stop-color="rgb(31.274414%, 46.757507%, 100%)" offset="0.203125"/><stop stop-opacity="1" stop-color="rgb(31.140137%, 47.113037%, 100%)" offset="0.210938"/><stop stop-opacity="1" stop-color="rgb(31.005859%, 47.470093%, 100%)" offset="0.21875"/><stop stop-opacity="1" stop-color="rgb(30.871582%, 47.827148%, 100%)" offset="0.226562"/><stop stop-opacity="1" stop-color="rgb(30.737305%, 48.182678%, 100%)" offset="0.234375"/><stop stop-opacity="1" stop-color="rgb(30.603027%, 48.539734%, 100%)" offset="0.242187"/><stop stop-opacity="1" stop-color="rgb(30.46875%, 48.89679%, 100%)" offset="0.25"/><stop stop-opacity="1" stop-color="rgb(30.334473%, 49.252319%, 100%)" offset="0.257812"/><stop stop-opacity="1" stop-color="rgb(30.200195%, 49.609375%, 100%)" offset="0.265625"/><stop stop-opacity="1" stop-color="rgb(30.065918%, 49.966431%, 100%)" offset="0.273438"/><stop stop-opacity="1" stop-color="rgb(29.931641%, 50.32196%, 100%)" offset="0.28125"/><stop stop-opacity="1" stop-color="rgb(29.797363%, 50.679016%, 100%)" offset="0.289062"/><stop stop-opacity="1" stop-color="rgb(29.663086%, 51.036072%, 100%)" offset="0.296875"/><stop stop-opacity="1" stop-color="rgb(29.528809%, 51.391602%, 100%)" offset="0.304687"/><stop stop-opacity="1" stop-color="rgb(29.396057%, 51.748657%, 100%)" offset="0.3125"/><stop stop-opacity="1" stop-color="rgb(29.26178%, 52.104187%, 100%)" offset="0.320313"/><stop stop-opacity="1" stop-color="rgb(29.127502%, 52.461243%, 100%)" offset="0.328125"/><stop stop-opacity="1" stop-color="rgb(28.993225%, 52.818298%, 100%)" offset="0.335938"/><stop stop-opacity="1" stop-color="rgb(28.858948%, 53.173828%, 100%)" offset="0.34375"/><stop stop-opacity="1" stop-color="rgb(28.72467%, 53.530884%, 100%)" offset="0.351562"/><stop stop-opacity="1" stop-color="rgb(28.590393%, 53.887939%, 100%)" offset="0.359375"/><stop stop-opacity="1" stop-color="rgb(28.456116%, 54.243469%, 100%)" offset="0.367188"/><stop stop-opacity="1" stop-color="rgb(28.321838%, 54.600525%, 100%)" offset="0.375"/><stop stop-opacity="1" stop-color="rgb(28.187561%, 54.957581%, 100%)" offset="0.382812"/><stop stop-opacity="1" stop-color="rgb(28.053284%, 55.31311%, 100%)" offset="0.390625"/><stop stop-opacity="1" stop-color="rgb(27.919006%, 55.670166%, 100%)" offset="0.398438"/><stop stop-opacity="1" stop-color="rgb(27.784729%, 56.027222%, 100%)" offset="0.40625"/><stop stop-opacity="1" stop-color="rgb(27.650452%, 56.382751%, 100%)" offset="0.414062"/><stop stop-opacity="1" stop-color="rgb(27.516174%, 56.739807%, 100%)" offset="0.421875"/><stop stop-opacity="1" stop-color="rgb(27.381897%, 57.096863%, 100%)" offset="0.429687"/><stop stop-opacity="1" stop-color="rgb(27.24762%, 57.452393%, 100%)" offset="0.4375"/><stop stop-opacity="1" stop-color="rgb(27.114868%, 57.809448%, 100%)" offset="0.445312"/><stop stop-opacity="1" stop-color="rgb(26.980591%, 58.166504%, 100%)" offset="0.453125"/><stop stop-opacity="1" stop-color="rgb(26.846313%, 58.522034%, 100%)" offset="0.460937"/><stop stop-opacity="1" stop-color="rgb(26.712036%, 58.879089%, 100%)" offset="0.46875"/><stop stop-opacity="1" stop-color="rgb(26.577759%, 59.234619%, 100%)" offset="0.476562"/><stop stop-opacity="1" stop-color="rgb(26.443481%, 59.591675%, 100%)" offset="0.484375"/><stop stop-opacity="1" stop-color="rgb(26.309204%, 59.94873%, 100%)" offset="0.492187"/><stop stop-opacity="1" stop-color="rgb(26.174927%, 60.30426%, 100%)" offset="0.5"/><stop stop-opacity="1" stop-color="rgb(26.040649%, 60.661316%, 100%)" offset="0.507812"/><stop stop-opacity="1" stop-color="rgb(25.906372%, 61.018372%, 100%)" offset="0.515625"/><stop stop-opacity="1" stop-color="rgb(25.772095%, 61.373901%, 100%)" offset="0.523437"/><stop stop-opacity="1" stop-color="rgb(25.637817%, 61.730957%, 100%)" offset="0.53125"/><stop stop-opacity="1" stop-color="rgb(25.50354%, 62.088013%, 100%)" offset="0.539062"/><stop stop-opacity="1" stop-color="rgb(25.369263%, 62.443542%, 100%)" offset="0.546875"/><stop stop-opacity="1" stop-color="rgb(25.234985%, 62.800598%, 100%)" offset="0.554687"/><stop stop-opacity="1" stop-color="rgb(25.100708%, 63.157654%, 100%)" offset="0.5625"/><stop stop-opacity="1" stop-color="rgb(24.966431%, 63.513184%, 100%)" offset="0.570312"/><stop stop-opacity="1" stop-color="rgb(24.832153%, 63.870239%, 100%)" offset="0.578125"/><stop stop-opacity="1" stop-color="rgb(24.699402%, 64.227295%, 100%)" offset="0.585937"/><stop stop-opacity="1" stop-color="rgb(24.565125%, 64.582825%, 100%)" offset="0.59375"/><stop stop-opacity="1" stop-color="rgb(24.430847%, 64.93988%, 100%)" offset="0.601562"/><stop stop-opacity="1" stop-color="rgb(24.29657%, 65.296936%, 100%)" offset="0.609375"/><stop stop-opacity="1" stop-color="rgb(24.162292%, 65.652466%, 100%)" offset="0.617188"/><stop stop-opacity="1" stop-color="rgb(24.028015%, 66.009521%, 100%)" offset="0.625"/><stop stop-opacity="1" stop-color="rgb(23.893738%, 66.366577%, 100%)" offset="0.632812"/><stop stop-opacity="1" stop-color="rgb(23.75946%, 66.722107%, 100%)" offset="0.640625"/><stop stop-opacity="1" stop-color="rgb(23.625183%, 67.079163%, 100%)" offset="0.648438"/><stop stop-opacity="1" stop-color="rgb(23.490906%, 67.434692%, 100%)" offset="0.65625"/><stop stop-opacity="1" stop-color="rgb(23.356628%, 67.791748%, 100%)" offset="0.664062"/><stop stop-opacity="1" stop-color="rgb(23.222351%, 68.148804%, 100%)" offset="0.671875"/><stop stop-opacity="1" stop-color="rgb(23.088074%, 68.504333%, 100%)" offset="0.679688"/><stop stop-opacity="1" stop-color="rgb(22.953796%, 68.861389%, 100%)" offset="0.6875"/><stop stop-opacity="1" stop-color="rgb(22.819519%, 69.218445%, 100%)" offset="0.695312"/><stop stop-opacity="1" stop-color="rgb(22.685242%, 69.573975%, 100%)" offset="0.703125"/><stop stop-opacity="1" stop-color="rgb(22.550964%, 69.93103%, 100%)" offset="0.710938"/><stop stop-opacity="1" stop-color="rgb(22.418213%, 70.288086%, 100%)" offset="0.71875"/><stop stop-opacity="1" stop-color="rgb(22.283936%, 70.643616%, 100%)" offset="0.726562"/><stop stop-opacity="1" stop-color="rgb(22.149658%, 71.000671%, 100%)" offset="0.734375"/><stop stop-opacity="1" stop-color="rgb(22.039795%, 71.289062%, 100%)" offset="0.75"/><stop stop-opacity="1" stop-color="rgb(21.998596%, 71.398926%, 100%)" offset="0.968432"/><stop stop-opacity="1" stop-color="rgb(21.998596%, 71.398926%, 100%)" offset="1"/></linearGradient><clipPath id="41bb3fda05"><path d="M 97.859375 97.859375 L 277.109375 97.859375 L 277.109375 277.109375 L 97.859375 277.109375 Z M 97.859375 97.859375 " clip-rule="nonzero"/></clipPath></defs><g clip-path="url(#d48ae1004b)"><g clip-path="url(#60e94f4d43)"><path fill="url(#aacf0d09a4)" d="M -22.953125 243.890625 L 131.109375 -22.953125 L 397.953125 131.109375 L 243.890625 397.953125 Z M -22.953125 243.890625 " fill-rule="nonzero"/></g></g><g clip-path="url(#41bb3fda05)"><path fill="#ffffff" d="M 187.496094 97.859375 C 186.03125 97.859375 184.5625 97.894531 183.097656 97.96875 C 181.632812 98.039062 180.171875 98.148438 178.710938 98.292969 C 177.25 98.433594 175.796875 98.613281 174.34375 98.832031 C 172.894531 99.046875 171.449219 99.296875 170.007812 99.582031 C 168.570312 99.867188 167.140625 100.191406 165.714844 100.546875 C 164.292969 100.902344 162.878906 101.292969 161.476562 101.71875 C 160.074219 102.144531 158.679688 102.605469 157.300781 103.101562 C 155.917969 103.59375 154.550781 104.121094 153.195312 104.683594 C 151.839844 105.246094 150.5 105.839844 149.171875 106.464844 C 147.847656 107.09375 146.535156 107.753906 145.242188 108.445312 C 143.949219 109.136719 142.671875 109.859375 141.414062 110.613281 C 140.15625 111.367188 138.917969 112.152344 137.695312 112.964844 C 136.476562 113.78125 135.277344 114.625 134.101562 115.5 C 132.921875 116.375 131.765625 117.277344 130.632812 118.207031 C 129.496094 119.136719 128.386719 120.09375 127.300781 121.082031 C 126.214844 122.066406 125.152344 123.078125 124.113281 124.113281 C 123.078125 125.152344 122.066406 126.214844 121.082031 127.300781 C 120.09375 128.386719 119.136719 129.496094 118.207031 130.632812 C 117.277344 131.765625 116.375 132.921875 115.5 134.101562 C 114.625 135.277344 113.78125 136.476562 112.964844 137.695312 C 112.152344 138.917969 111.367188 140.15625 110.613281 141.414062 C 109.859375 142.671875 109.136719 143.949219 108.445312 145.242188 C 107.753906 146.535156 107.09375 147.847656 106.464844 149.171875 C 105.839844 150.5 105.246094 151.839844 104.683594 153.195312 C 104.121094 154.550781 103.59375 155.917969 103.101562 157.300781 C 102.605469 158.679688 102.144531 160.074219 101.71875 161.476562 C 101.292969 162.878906 100.902344 164.292969 100.546875 165.714844 C 100.191406 167.140625 99.867188 168.570312 99.582031 170.007812 C 99.296875 171.449219 99.046875 172.894531 98.832031 174.34375 C 98.613281 175.796875 98.433594 177.25 98.292969 178.710938 C 98.148438 180.171875 98.039062 181.632812 97.96875 183.097656 C 97.894531 184.5625 97.859375 186.03125 97.859375 187.496094 C 97.859375 188.964844 97.894531 190.429688 97.96875 191.894531 C 98.039062 193.359375 98.148438 194.824219 98.292969 196.28125 C 98.433594 197.742188 98.613281 199.199219 98.832031 200.648438 C 99.046875 202.101562 99.296875 203.546875 99.582031 204.984375 C 99.867188 206.421875 100.191406 207.855469 100.546875 209.277344 C 100.902344 210.699219 101.292969 212.113281 101.71875 213.515625 C 102.144531 214.921875 102.605469 216.3125 103.101562 217.695312 C 103.59375 219.074219 104.121094 220.445312 104.683594 221.800781 C 105.246094 223.15625 105.839844 224.496094 106.464844 225.820312 C 107.09375 227.148438 107.753906 228.457031 108.445312 229.75 C 109.136719 231.042969 109.859375 232.320312 110.613281 233.578125 C 111.367188 234.835938 112.152344 236.078125 112.964844 237.296875 C 113.78125 238.515625 114.625 239.714844 115.5 240.894531 C 116.375 242.070312 117.277344 243.226562 118.207031 244.363281 C 119.136719 245.496094 120.09375 246.605469 121.082031 247.691406 C 122.066406 248.78125 123.078125 249.84375 124.113281 250.878906 C 125.152344 251.917969 126.214844 252.929688 127.300781 253.914062 C 128.386719 254.898438 129.496094 255.855469 130.632812 256.785156 C 131.765625 257.71875 132.921875 258.621094 134.101562 259.492188 C 135.277344 260.367188 136.476562 261.210938 137.695312 262.027344 C 138.917969 262.84375 140.15625 263.625 141.414062 264.378906 C 142.671875 265.136719 143.949219 265.859375 145.242188 266.550781 C 146.535156 267.242188 147.847656 267.898438 149.171875 268.527344 C 150.5 269.15625 151.839844 269.75 153.195312 270.308594 C 154.550781 270.871094 155.917969 271.398438 157.300781 271.894531 C 158.679688 272.386719 160.074219 272.847656 161.476562 273.273438 C 162.878906 273.699219 164.292969 274.089844 165.714844 274.445312 C 167.140625 274.804688 168.570312 275.125 170.007812 275.410156 C 171.449219 275.695312 172.894531 275.949219 174.34375 276.164062 C 175.796875 276.378906 177.25 276.558594 178.710938 276.703125 C 180.171875 276.84375 181.632812 276.953125 183.097656 277.027344 C 184.5625 277.097656 186.03125 277.132812 187.496094 277.132812 C 188.964844 277.132812 190.429688 277.097656 191.894531 277.027344 C 193.359375 276.953125 194.824219 276.84375 196.28125 276.703125 C 197.742188 276.558594 199.199219 276.378906 200.648438 276.164062 C 202.101562 275.949219 203.546875 275.695312 204.984375 275.410156 C 206.421875 275.125 207.855469 274.804688 209.277344 274.445312 C 210.699219 274.089844 212.113281 273.699219 213.515625 273.273438 C 214.921875 272.847656 216.3125 272.386719 217.695312 271.894531 C 219.074219 271.398438 220.445312 270.871094 221.800781 270.308594 C 223.15625 269.75 224.496094 269.15625 225.820312 268.527344 C 227.148438 267.898438 228.457031 267.242188 229.75 266.550781 C 231.042969 265.859375 232.320312 265.136719 233.578125 264.378906 C 234.835938 263.625 236.078125 262.84375 237.296875 262.027344 C 238.515625 261.210938 239.714844 260.367188 240.894531 259.492188 C 242.070312 258.621094 243.226562 257.71875 244.363281 256.785156 C 245.496094 255.855469 246.605469 254.898438 247.691406 253.914062 C 248.78125 252.929688 249.84375 251.917969 250.878906 250.878906 C 251.917969 249.84375 252.929688 248.78125 253.914062 247.691406 C 254.898438 246.605469 255.855469 245.496094 256.785156 244.363281 C 257.71875 243.226562 258.621094 242.070312 259.492188 240.894531 C 260.367188 239.714844 261.210938 238.515625 262.027344 237.296875 C 262.84375 236.078125 263.625 234.835938 264.378906 233.578125 C 265.132812 232.320312 265.859375 231.042969 266.550781 229.75 C 267.242188 228.457031 267.898438 227.148438 268.527344 225.820312 C 269.15625 224.496094 269.75 223.15625 270.308594 221.800781 C 270.871094 220.445312 271.398438 219.074219 271.894531 217.695312 C 272.386719 216.3125 272.847656 214.921875 273.273438 213.515625 C 273.699219 212.113281 274.089844 210.699219 274.445312 209.277344 C 274.804688 207.855469 275.125 206.421875 275.410156 204.984375 C 275.695312 203.546875 275.949219 202.101562 276.164062 200.648438 C 276.378906 199.199219 276.558594 197.742188 276.703125 196.28125 C 276.84375 194.824219 276.953125 193.359375 277.023438 191.894531 C 277.097656 190.429688 277.132812 188.964844 277.132812 187.496094 C 277.132812 186.03125 277.097656 184.5625 277.023438 183.097656 C 276.953125 181.632812 276.84375 180.171875 276.703125 178.710938 C 276.558594 177.25 276.378906 175.796875 276.164062 174.34375 C 275.949219 172.894531 275.695312 171.449219 275.410156 170.007812 C 275.125 168.570312 274.804688 167.140625 274.445312 165.714844 C 274.089844 164.292969 273.699219 162.878906 273.273438 161.476562 C 272.847656 160.074219 272.386719 158.679688 271.894531 157.300781 C 271.398438 155.917969 270.871094 154.550781 270.308594 153.195312 C 269.75 151.839844 269.15625 150.5 268.527344 149.171875 C 267.898438 147.847656 267.242188 146.535156 266.550781 145.242188 C 265.859375 143.949219 265.132812 142.671875 264.378906 141.414062 C 263.625 140.15625 262.84375 138.917969 262.027344 137.695312 C 261.210938 136.476562 260.367188 135.277344 259.492188 134.101562 C 258.621094 132.921875 257.71875 131.765625 256.785156 130.632812 C 255.855469 129.496094 254.898438 128.386719 253.914062 127.300781 C 252.929688 126.214844 251.917969 125.152344 250.878906 124.113281 C 249.84375 123.078125 248.78125 122.066406 247.691406 121.082031 C 246.605469 120.09375 245.496094 119.136719 244.363281 118.207031 C 243.226562 117.277344 242.070312 116.375 240.894531 115.5 C 239.714844 114.625 238.515625 113.78125 237.296875 112.964844 C 236.078125 112.152344 234.835938 111.367188 233.578125 110.613281 C 232.320312 109.859375 231.042969 109.136719 229.75 108.445312 C 228.457031 107.753906 227.148438 107.09375 225.820312 106.464844 C 224.496094 105.839844 223.15625 105.246094 221.800781 104.683594 C 220.445312 104.121094 219.074219 103.59375 217.695312 103.101562 C 216.3125 102.605469 214.921875 102.144531 213.515625 101.71875 C 212.113281 101.292969 210.699219 100.902344 209.277344 100.546875 C 207.855469 100.191406 206.421875 99.867188 204.984375 99.582031 C 203.546875 99.296875 202.101562 99.046875 200.648438 98.832031 C 199.199219 98.613281 197.742188 98.433594 196.28125 98.292969 C 194.824219 98.148438 193.359375 98.039062 191.894531 97.96875 C 190.429688 97.894531 188.964844 97.859375 187.496094 97.859375 Z M 200.300781 218.773438 C 199.90625 218.832031 199.507812 218.84375 199.109375 218.816406 C 198.710938 218.789062 198.320312 218.71875 197.933594 218.609375 C 197.550781 218.496094 197.183594 218.34375 196.832031 218.152344 C 196.480469 217.960938 196.152344 217.738281 195.847656 217.476562 C 195.546875 217.214844 195.273438 216.925781 195.03125 216.605469 C 194.789062 216.285156 194.585938 215.945312 194.417969 215.582031 C 194.25 215.21875 194.121094 214.84375 194.035156 214.453125 C 193.945312 214.0625 193.902344 213.667969 193.898438 213.265625 L 193.898438 198.542969 C 193.898438 197.917969 194 197.3125 194.203125 196.722656 C 194.40625 196.136719 194.703125 195.597656 195.089844 195.109375 C 195.476562 194.621094 195.929688 194.207031 196.457031 193.875 C 196.984375 193.542969 197.550781 193.304688 198.15625 193.164062 C 199.332031 192.894531 200.472656 192.523438 201.574219 192.039062 C 202.679688 191.558594 203.730469 190.976562 204.722656 190.300781 C 205.71875 189.621094 206.640625 188.855469 207.492188 188 C 208.34375 187.148438 209.109375 186.226562 209.785156 185.226562 C 210.460938 184.230469 211.039062 183.179688 211.519531 182.074219 C 212 180.972656 212.371094 179.832031 212.636719 178.65625 C 212.898438 177.480469 213.054688 176.289062 213.09375 175.085938 C 213.136719 173.882812 213.0625 172.6875 212.878906 171.496094 C 212.695312 170.304688 212.402344 169.140625 212 168.007812 C 211.59375 166.871094 211.089844 165.785156 210.484375 164.742188 C 209.875 163.703125 209.175781 162.730469 208.382812 161.820312 C 207.59375 160.914062 206.726562 160.085938 205.777344 159.339844 C 204.832031 158.59375 203.824219 157.945312 202.753906 157.390625 C 201.6875 156.835938 200.574219 156.382812 199.421875 156.035156 C 198.265625 155.691406 197.089844 155.453125 195.894531 155.328125 C 194.695312 155.203125 193.496094 155.191406 192.296875 155.292969 C 191.09375 155.394531 189.914062 155.605469 188.753906 155.925781 C 187.59375 156.25 186.472656 156.675781 185.394531 157.210938 C 184.3125 157.746094 183.292969 158.375 182.332031 159.097656 C 181.367188 159.824219 180.484375 160.632812 179.671875 161.523438 C 178.863281 162.417969 178.144531 163.378906 177.515625 164.40625 C 176.886719 165.433594 176.359375 166.507812 175.933594 167.636719 C 175.507812 168.761719 175.1875 169.917969 174.980469 171.105469 C 174.769531 172.292969 174.675781 173.488281 174.691406 174.691406 L 174.691406 235.515625 C 174.691406 236.148438 174.628906 236.773438 174.507812 237.390625 C 174.382812 238.007812 174.203125 238.609375 173.960938 239.191406 C 173.71875 239.773438 173.421875 240.328125 173.074219 240.851562 C 172.722656 241.375 172.324219 241.863281 171.878906 242.308594 C 171.433594 242.753906 170.949219 243.152344 170.421875 243.5 C 169.898438 243.851562 169.34375 244.148438 168.761719 244.390625 C 168.179688 244.628906 167.578125 244.8125 166.960938 244.9375 C 166.34375 245.058594 165.71875 245.121094 165.085938 245.121094 L 158.683594 245.121094 C 158.054688 245.121094 157.429688 245.058594 156.8125 244.9375 C 156.191406 244.8125 155.59375 244.628906 155.007812 244.390625 C 154.425781 244.148438 153.875 243.851562 153.347656 243.5 C 152.824219 243.152344 152.339844 242.753906 151.894531 242.308594 C 151.449219 241.863281 151.050781 241.375 150.699219 240.851562 C 150.347656 240.328125 150.054688 239.773438 149.8125 239.191406 C 149.570312 238.609375 149.386719 238.007812 149.265625 237.390625 C 149.140625 236.773438 149.082031 236.148438 149.082031 235.515625 L 149.082031 175.84375 C 149.066406 174.402344 149.117188 172.964844 149.238281 171.53125 C 149.355469 170.09375 149.542969 168.667969 149.800781 167.25 C 150.054688 165.832031 150.378906 164.429688 150.765625 163.042969 C 151.15625 161.65625 151.609375 160.289062 152.125 158.945312 C 152.644531 157.601562 153.226562 156.285156 153.867188 154.996094 C 154.511719 153.707031 155.214844 152.453125 155.976562 151.230469 C 156.738281 150.007812 157.554688 148.824219 158.429688 147.679688 C 159.304688 146.535156 160.230469 145.433594 161.210938 144.375 C 162.191406 143.320312 163.214844 142.3125 164.289062 141.351562 C 165.367188 140.390625 166.484375 139.484375 167.644531 138.632812 C 168.804688 137.777344 170.003906 136.980469 171.238281 136.242188 C 172.472656 135.503906 173.742188 134.824219 175.042969 134.203125 C 176.34375 133.582031 177.671875 133.027344 179.023438 132.535156 C 180.378906 132.039062 181.75 131.613281 183.144531 131.25 C 184.539062 130.886719 185.945312 130.589844 187.367188 130.359375 C 188.792969 130.128906 190.222656 129.96875 191.660156 129.875 C 193.046875 129.855469 194.433594 129.902344 195.820312 130.011719 C 197.203125 130.125 198.578125 130.300781 199.949219 130.539062 C 201.316406 130.777344 202.671875 131.082031 204.011719 131.445312 C 205.351562 131.808594 206.671875 132.238281 207.972656 132.726562 C 209.273438 133.210938 210.546875 133.761719 211.796875 134.367188 C 213.046875 134.972656 214.265625 135.636719 215.453125 136.355469 C 216.644531 137.074219 217.796875 137.847656 218.910156 138.675781 C 220.027344 139.503906 221.101562 140.378906 222.136719 141.304688 C 223.171875 142.234375 224.160156 143.207031 225.105469 144.226562 C 226.050781 145.246094 226.945312 146.304688 227.789062 147.40625 C 228.636719 148.507812 229.429688 149.648438 230.167969 150.824219 C 230.90625 152 231.589844 153.207031 232.21875 154.445312 C 232.847656 155.6875 233.414062 156.953125 233.925781 158.242188 C 234.433594 159.535156 234.882812 160.847656 235.269531 162.183594 C 235.65625 163.515625 235.980469 164.867188 236.246094 166.230469 C 236.507812 167.59375 236.703125 168.96875 236.839844 170.351562 C 236.972656 171.734375 237.042969 173.117188 237.050781 174.507812 C 237.054688 175.898438 236.996094 177.285156 236.871094 178.667969 C 236.75 180.050781 236.5625 181.425781 236.3125 182.792969 C 236.058594 184.160156 235.746094 185.511719 235.367188 186.847656 C 234.992188 188.183594 234.554688 189.5 234.054688 190.796875 C 233.554688 192.09375 232.996094 193.363281 232.378906 194.609375 C 231.761719 195.851562 231.089844 197.066406 230.359375 198.246094 C 229.628906 199.429688 228.84375 200.574219 228.007812 201.683594 C 227.171875 202.792969 226.285156 203.859375 225.347656 204.886719 C 224.414062 205.914062 223.429688 206.894531 222.402344 207.828125 C 221.375 208.761719 220.308594 209.648438 219.199219 210.484375 C 218.089844 211.320312 216.945312 212.101562 215.761719 212.832031 C 214.578125 213.5625 213.367188 214.234375 212.121094 214.851562 C 210.875 215.46875 209.605469 216.023438 208.308594 216.523438 C 207.011719 217.023438 205.695312 217.457031 204.359375 217.835938 C 203.019531 218.210938 201.667969 218.523438 200.300781 218.773438 Z M 200.300781 218.773438 " fill-opacity="1" fill-rule="nonzero"/></g></svg>