<svg xmlns="http://www.w3.org/2000/svg" xmlns:xlink="http://www.w3.org/1999/xlink" width="500" zoomAndPan="magnify" viewBox="0 0 375 374.999991" height="500" preserveAspectRatio="xMidYMid meet" version="1.0"><defs><g/><clipPath id="d10375dcc3"><path d="M 124.164062 88.484375 L 250.914062 88.484375 L 250.914062 215.234375 L 124.164062 215.234375 Z M 124.164062 88.484375 " clip-rule="nonzero"/></clipPath><clipPath id="e61fabcf4e"><path d="M 250.832031 151.816406 C 250.832031 152.855469 250.808594 153.890625 250.757812 154.925781 C 250.707031 155.960938 250.628906 156.996094 250.527344 158.027344 C 250.425781 159.058594 250.300781 160.085938 250.148438 161.109375 C 249.996094 162.136719 249.816406 163.15625 249.617188 164.175781 C 249.414062 165.191406 249.1875 166.203125 248.933594 167.207031 C 248.683594 168.210938 248.40625 169.210938 248.105469 170.203125 C 247.804688 171.195312 247.480469 172.179688 247.128906 173.15625 C 246.78125 174.128906 246.410156 175.097656 246.011719 176.054688 C 245.613281 177.011719 245.195312 177.960938 244.753906 178.898438 C 244.308594 179.832031 243.84375 180.757812 243.355469 181.671875 C 242.867188 182.585938 242.355469 183.488281 241.820312 184.378906 C 241.289062 185.265625 240.734375 186.144531 240.160156 187.003906 C 239.582031 187.867188 238.988281 188.714844 238.367188 189.546875 C 237.75 190.378906 237.113281 191.195312 236.457031 191.996094 C 235.800781 192.796875 235.121094 193.582031 234.425781 194.351562 C 233.730469 195.117188 233.015625 195.867188 232.28125 196.601562 C 231.550781 197.335938 230.800781 198.050781 230.03125 198.746094 C 229.261719 199.441406 228.480469 200.117188 227.675781 200.777344 C 226.875 201.433594 226.058594 202.070312 225.226562 202.6875 C 224.394531 203.304688 223.546875 203.902344 222.683594 204.476562 C 221.824219 205.054688 220.949219 205.609375 220.058594 206.140625 C 219.167969 206.675781 218.269531 207.183594 217.355469 207.671875 C 216.441406 208.164062 215.515625 208.628906 214.578125 209.070312 C 213.640625 209.515625 212.691406 209.933594 211.734375 210.332031 C 210.777344 210.726562 209.8125 211.101562 208.835938 211.449219 C 207.859375 211.800781 206.875 212.125 205.882812 212.425781 C 204.890625 212.726562 203.894531 213.003906 202.886719 213.253906 C 201.882812 213.503906 200.871094 213.734375 199.855469 213.933594 C 198.839844 214.136719 197.816406 214.3125 196.792969 214.464844 C 195.765625 214.617188 194.738281 214.746094 193.707031 214.847656 C 192.675781 214.949219 191.640625 215.023438 190.605469 215.074219 C 189.570312 215.125 188.535156 215.152344 187.5 215.152344 C 186.460938 215.152344 185.425781 215.125 184.390625 215.074219 C 183.355469 215.023438 182.324219 214.949219 181.289062 214.847656 C 180.257812 214.746094 179.230469 214.617188 178.207031 214.464844 C 177.179688 214.3125 176.160156 214.136719 175.144531 213.933594 C 174.125 213.734375 173.117188 213.503906 172.109375 213.253906 C 171.105469 213.003906 170.105469 212.726562 169.113281 212.425781 C 168.121094 212.125 167.136719 211.800781 166.164062 211.449219 C 165.1875 211.101562 164.21875 210.726562 163.261719 210.332031 C 162.304688 209.933594 161.355469 209.515625 160.421875 209.070312 C 159.484375 208.628906 158.558594 208.164062 157.644531 207.671875 C 156.730469 207.183594 155.828125 206.675781 154.9375 206.140625 C 154.050781 205.609375 153.175781 205.054688 152.3125 204.476562 C 151.449219 203.902344 150.601562 203.304688 149.769531 202.6875 C 148.9375 202.070312 148.121094 201.433594 147.320312 200.777344 C 146.519531 200.117188 145.734375 199.441406 144.964844 198.746094 C 144.199219 198.050781 143.449219 197.335938 142.714844 196.601562 C 141.980469 195.867188 141.265625 195.117188 140.570312 194.351562 C 139.875 193.582031 139.199219 192.796875 138.539062 191.996094 C 137.882812 191.195312 137.246094 190.378906 136.628906 189.546875 C 136.011719 188.714844 135.414062 187.867188 134.839844 187.003906 C 134.261719 186.144531 133.707031 185.265625 133.175781 184.378906 C 132.640625 183.488281 132.132812 182.585938 131.644531 181.671875 C 131.15625 180.757812 130.6875 179.832031 130.246094 178.898438 C 129.800781 177.960938 129.382812 177.011719 128.984375 176.054688 C 128.589844 175.097656 128.214844 174.128906 127.867188 173.15625 C 127.519531 172.179688 127.191406 171.195312 126.890625 170.203125 C 126.589844 169.210938 126.316406 168.210938 126.0625 167.207031 C 125.8125 166.203125 125.582031 165.191406 125.382812 164.175781 C 125.179688 163.15625 125.003906 162.136719 124.851562 161.109375 C 124.699219 160.085938 124.570312 159.058594 124.46875 158.027344 C 124.367188 156.996094 124.292969 155.960938 124.242188 154.925781 C 124.191406 153.890625 124.164062 152.855469 124.164062 151.816406 C 124.164062 150.78125 124.191406 149.746094 124.242188 148.710938 C 124.292969 147.675781 124.367188 146.640625 124.46875 145.609375 C 124.570312 144.578125 124.699219 143.550781 124.851562 142.523438 C 125.003906 141.5 125.179688 140.480469 125.382812 139.460938 C 125.582031 138.445312 125.8125 137.433594 126.0625 136.429688 C 126.316406 135.421875 126.589844 134.425781 126.890625 133.433594 C 127.191406 132.441406 127.519531 131.457031 127.867188 130.480469 C 128.214844 129.503906 128.589844 128.539062 128.984375 127.582031 C 129.382812 126.625 129.800781 125.675781 130.246094 124.738281 C 130.6875 123.800781 131.15625 122.875 131.644531 121.960938 C 132.132812 121.046875 132.640625 120.148438 133.175781 119.257812 C 133.707031 118.367188 134.261719 117.492188 134.839844 116.632812 C 135.414062 115.769531 136.011719 114.921875 136.628906 114.089844 C 137.246094 113.257812 137.882812 112.441406 138.539062 111.640625 C 139.199219 110.839844 139.875 110.054688 140.570312 109.285156 C 141.265625 108.515625 141.980469 107.765625 142.714844 107.035156 C 143.449219 106.300781 144.199219 105.585938 144.964844 104.890625 C 145.734375 104.195312 146.519531 103.519531 147.320312 102.859375 C 148.121094 102.203125 148.9375 101.566406 149.769531 100.949219 C 150.601562 100.332031 151.449219 99.734375 152.3125 99.15625 C 153.175781 98.582031 154.050781 98.027344 154.9375 97.496094 C 155.828125 96.960938 156.730469 96.449219 157.644531 95.960938 C 158.558594 95.472656 159.484375 95.007812 160.421875 94.566406 C 161.355469 94.121094 162.304688 93.703125 163.261719 93.304688 C 164.21875 92.910156 165.1875 92.535156 166.164062 92.1875 C 167.136719 91.835938 168.121094 91.511719 169.113281 91.210938 C 170.105469 90.910156 171.105469 90.632812 172.109375 90.382812 C 173.117188 90.128906 174.125 89.902344 175.144531 89.699219 C 176.160156 89.5 177.179688 89.320312 178.207031 89.167969 C 179.230469 89.015625 180.257812 88.890625 181.289062 88.789062 C 182.324219 88.6875 183.355469 88.609375 184.390625 88.558594 C 185.425781 88.507812 186.460938 88.484375 187.5 88.484375 C 188.535156 88.484375 189.570312 88.507812 190.605469 88.558594 C 191.640625 88.609375 192.675781 88.6875 193.707031 88.789062 C 194.738281 88.890625 195.765625 89.015625 196.792969 89.167969 C 197.816406 89.320312 198.839844 89.5 199.855469 89.699219 C 200.871094 89.902344 201.882812 90.128906 202.886719 90.382812 C 203.894531 90.632812 204.890625 90.910156 205.882812 91.210938 C 206.875 91.511719 207.859375 91.835938 208.835938 92.1875 C 209.8125 92.535156 210.777344 92.910156 211.734375 93.304688 C 212.691406 93.703125 213.640625 94.121094 214.578125 94.566406 C 215.515625 95.007812 216.441406 95.472656 217.355469 95.960938 C 218.269531 96.449219 219.167969 96.960938 220.058594 97.496094 C 220.949219 98.027344 221.824219 98.582031 222.683594 99.15625 C 223.546875 99.734375 224.394531 100.332031 225.226562 100.949219 C 226.058594 101.566406 226.875 102.203125 227.675781 102.859375 C 228.480469 103.519531 229.261719 104.195312 230.03125 104.890625 C 230.800781 105.585938 231.550781 106.300781 232.28125 107.035156 C 233.015625 107.765625 233.730469 108.515625 234.425781 109.285156 C 235.121094 110.054688 235.800781 110.839844 236.457031 111.640625 C 237.113281 112.441406 237.75 113.257812 238.367188 114.089844 C 238.988281 114.921875 239.582031 115.769531 240.160156 116.632812 C 240.734375 117.492188 241.289062 118.367188 241.820312 119.257812 C 242.355469 120.148438 242.867188 121.046875 243.355469 121.960938 C 243.84375 122.875 244.308594 123.800781 244.753906 124.738281 C 245.195312 125.675781 245.613281 126.625 246.011719 127.582031 C 246.410156 128.539062 246.78125 129.503906 247.128906 130.480469 C 247.480469 131.457031 247.804688 132.441406 248.105469 133.433594 C 248.40625 134.425781 248.683594 135.421875 248.933594 136.429688 C 249.1875 137.433594 249.414062 138.445312 249.617188 139.460938 C 249.816406 140.480469 249.996094 141.5 250.148438 142.523438 C 250.300781 143.550781 250.425781 144.578125 250.527344 145.609375 C 250.628906 146.640625 250.707031 147.675781 250.757812 148.710938 C 250.808594 149.746094 250.832031 150.78125 250.832031 151.816406 Z M 250.832031 151.816406 " clip-rule="nonzero"/></clipPath><clipPath id="98035076b6"><path d="M 137.160156 101.480469 L 237.660156 101.480469 L 237.660156 201.980469 L 137.160156 201.980469 Z M 137.160156 101.480469 " clip-rule="nonzero"/></clipPath></defs><g clip-path="url(#d10375dcc3)"><g clip-path="url(#e61fabcf4e)"><path fill="#ffffff" d="M 69.316406 183.484375 L 155.832031 33.636719 L 305.679688 120.152344 L 219.164062 270 Z M 69.316406 183.484375 " fill-opacity="1" fill-rule="nonzero"/></g></g><g clip-path="url(#98035076b6)"><path fill="#000000" d="M 187.5 101.480469 C 185.851562 101.480469 184.203125 101.558594 182.5625 101.722656 C 180.921875 101.882812 179.292969 102.125 177.679688 102.445312 C 176.0625 102.769531 174.464844 103.167969 172.886719 103.648438 C 171.308594 104.125 169.757812 104.679688 168.234375 105.3125 C 166.710938 105.941406 165.222656 106.644531 163.769531 107.421875 C 162.316406 108.199219 160.902344 109.046875 159.53125 109.964844 C 158.160156 110.878906 156.839844 111.859375 155.5625 112.90625 C 154.289062 113.953125 153.070312 115.058594 151.902344 116.222656 C 150.738281 117.390625 149.632812 118.609375 148.585938 119.882812 C 147.539062 121.15625 146.558594 122.480469 145.644531 123.851562 C 144.726562 125.222656 143.882812 126.632812 143.105469 128.089844 C 142.328125 129.542969 141.621094 131.03125 140.992188 132.554688 C 140.359375 134.078125 139.804688 135.628906 139.328125 137.207031 C 138.847656 138.78125 138.449219 140.378906 138.128906 141.996094 C 137.804688 143.613281 137.5625 145.242188 137.402344 146.882812 C 137.242188 148.523438 137.160156 150.167969 137.160156 151.816406 C 137.160156 153.464844 137.242188 155.109375 137.402344 156.75 C 137.5625 158.390625 137.804688 160.019531 138.128906 161.636719 C 138.449219 163.253906 138.847656 164.851562 139.328125 166.429688 C 139.804688 168.007812 140.359375 169.558594 140.992188 171.082031 C 141.621094 172.605469 142.328125 174.09375 143.105469 175.546875 C 143.882812 177 144.726562 178.414062 145.644531 179.785156 C 146.558594 181.15625 147.539062 182.476562 148.585938 183.75 C 149.632812 185.027344 150.738281 186.246094 151.902344 187.410156 C 153.070312 188.578125 154.289062 189.683594 155.5625 190.730469 C 156.839844 191.773438 158.160156 192.757812 159.53125 193.671875 C 160.902344 194.585938 162.316406 195.433594 163.769531 196.210938 C 165.222656 196.988281 166.710938 197.691406 168.234375 198.324219 C 169.757812 198.953125 171.308594 199.507812 172.886719 199.988281 C 174.464844 200.464844 176.0625 200.867188 177.679688 201.1875 C 179.292969 201.511719 180.921875 201.75 182.5625 201.914062 C 184.203125 202.074219 185.851562 202.15625 187.5 202.15625 C 189.148438 202.15625 190.792969 202.074219 192.433594 201.914062 C 194.074219 201.75 195.703125 201.511719 197.320312 201.1875 C 198.9375 200.867188 200.53125 200.464844 202.109375 199.988281 C 203.6875 199.507812 205.238281 198.953125 206.761719 198.324219 C 208.285156 197.691406 209.773438 196.988281 211.226562 196.210938 C 212.679688 195.433594 214.09375 194.585938 215.464844 193.671875 C 216.835938 192.757812 218.15625 191.773438 219.433594 190.730469 C 220.707031 189.683594 221.925781 188.578125 223.09375 187.410156 C 224.257812 186.246094 225.363281 185.027344 226.410156 183.75 C 227.457031 182.476562 228.4375 181.15625 229.351562 179.785156 C 230.269531 178.414062 231.113281 177 231.890625 175.546875 C 232.667969 174.09375 233.375 172.605469 234.003906 171.082031 C 234.636719 169.558594 235.191406 168.007812 235.667969 166.429688 C 236.148438 164.851562 236.546875 163.253906 236.867188 161.636719 C 237.191406 160.019531 237.433594 158.390625 237.59375 156.75 C 237.753906 155.109375 237.835938 153.464844 237.835938 151.816406 C 237.835938 150.167969 237.753906 148.523438 237.59375 146.882812 C 237.433594 145.242188 237.191406 143.613281 236.867188 141.996094 C 236.546875 140.378906 236.148438 138.78125 235.667969 137.207031 C 235.191406 135.628906 234.636719 134.078125 234.003906 132.554688 C 233.375 131.03125 232.667969 129.542969 231.890625 128.089844 C 231.113281 126.632812 230.269531 125.222656 229.351562 123.851562 C 228.4375 122.480469 227.457031 121.15625 226.410156 119.882812 C 225.363281 118.609375 224.257812 117.390625 223.09375 116.222656 C 221.925781 115.058594 220.707031 113.953125 219.433594 112.90625 C 218.15625 111.859375 216.835938 110.878906 215.464844 109.964844 C 214.09375 109.046875 212.679688 108.199219 211.226562 107.421875 C 209.773438 106.644531 208.285156 105.941406 206.761719 105.3125 C 205.238281 104.679688 203.6875 104.125 202.109375 103.648438 C 200.53125 103.167969 198.9375 102.769531 197.320312 102.445312 C 195.703125 102.125 194.074219 101.882812 192.433594 101.722656 C 190.792969 101.558594 189.148438 101.480469 187.5 101.480469 Z M 194.6875 169.382812 C 194.46875 169.414062 194.242188 169.421875 194.019531 169.40625 C 193.796875 169.390625 193.574219 169.351562 193.359375 169.289062 C 193.144531 169.226562 192.9375 169.140625 192.742188 169.035156 C 192.542969 168.925781 192.359375 168.800781 192.1875 168.652344 C 192.019531 168.507812 191.867188 168.34375 191.730469 168.164062 C 191.59375 167.984375 191.480469 167.792969 191.386719 167.589844 C 191.289062 167.386719 191.21875 167.175781 191.167969 166.957031 C 191.121094 166.734375 191.09375 166.515625 191.09375 166.289062 L 191.09375 158.019531 C 191.09375 157.671875 191.148438 157.328125 191.265625 157 C 191.378906 156.667969 191.542969 156.367188 191.761719 156.09375 C 191.980469 155.816406 192.234375 155.585938 192.53125 155.398438 C 192.824219 155.210938 193.144531 155.078125 193.484375 155 C 194.144531 154.847656 194.785156 154.640625 195.40625 154.367188 C 196.023438 154.097656 196.613281 153.773438 197.171875 153.390625 C 197.730469 153.011719 198.25 152.578125 198.726562 152.101562 C 199.207031 151.621094 199.632812 151.101562 200.015625 150.542969 C 200.394531 149.984375 200.71875 149.394531 200.988281 148.773438 C 201.257812 148.152344 201.46875 147.511719 201.617188 146.851562 C 201.765625 146.191406 201.851562 145.523438 201.875 144.847656 C 201.894531 144.171875 201.855469 143.5 201.753906 142.832031 C 201.648438 142.164062 201.484375 141.511719 201.257812 140.871094 C 201.03125 140.234375 200.746094 139.625 200.40625 139.039062 C 200.066406 138.457031 199.671875 137.910156 199.226562 137.398438 C 198.785156 136.886719 198.296875 136.425781 197.765625 136.003906 C 197.234375 135.585938 196.667969 135.222656 196.066406 134.910156 C 195.464844 134.597656 194.84375 134.34375 194.195312 134.152344 C 193.546875 133.957031 192.886719 133.824219 192.214844 133.753906 C 191.539062 133.683594 190.867188 133.675781 190.191406 133.730469 C 189.519531 133.789062 188.855469 133.90625 188.203125 134.089844 C 187.550781 134.269531 186.921875 134.511719 186.316406 134.808594 C 185.710938 135.109375 185.136719 135.460938 184.597656 135.871094 C 184.058594 136.277344 183.558594 136.730469 183.105469 137.234375 C 182.648438 137.734375 182.246094 138.273438 181.894531 138.847656 C 181.539062 139.425781 181.242188 140.03125 181.003906 140.664062 C 180.765625 141.296875 180.585938 141.945312 180.46875 142.613281 C 180.351562 143.277344 180.296875 143.949219 180.308594 144.625 L 180.308594 178.785156 C 180.308594 179.136719 180.273438 179.488281 180.203125 179.835938 C 180.132812 180.183594 180.03125 180.519531 179.898438 180.847656 C 179.761719 181.175781 179.59375 181.484375 179.398438 181.78125 C 179.203125 182.074219 178.976562 182.347656 178.726562 182.597656 C 178.476562 182.847656 178.203125 183.070312 177.910156 183.269531 C 177.617188 183.464844 177.304688 183.632812 176.976562 183.765625 C 176.652344 183.902344 176.3125 184.003906 175.964844 184.074219 C 175.617188 184.144531 175.269531 184.175781 174.914062 184.175781 L 171.316406 184.175781 C 170.964844 184.175781 170.613281 184.144531 170.265625 184.074219 C 169.917969 184.003906 169.582031 183.902344 169.253906 183.765625 C 168.925781 183.632812 168.617188 183.464844 168.320312 183.269531 C 168.027344 183.070312 167.753906 182.847656 167.503906 182.597656 C 167.253906 182.347656 167.03125 182.074219 166.832031 181.78125 C 166.636719 181.484375 166.472656 181.175781 166.335938 180.847656 C 166.199219 180.519531 166.097656 180.183594 166.027344 179.835938 C 165.960938 179.488281 165.925781 179.136719 165.925781 178.785156 L 165.925781 145.273438 C 165.914062 144.464844 165.945312 143.65625 166.011719 142.851562 C 166.078125 142.042969 166.183594 141.242188 166.328125 140.449219 C 166.472656 139.652344 166.652344 138.863281 166.871094 138.085938 C 167.089844 137.304688 167.34375 136.539062 167.636719 135.785156 C 167.925781 135.027344 168.253906 134.289062 168.613281 133.566406 C 168.972656 132.84375 169.367188 132.136719 169.796875 131.449219 C 170.226562 130.765625 170.683594 130.097656 171.175781 129.457031 C 171.667969 128.8125 172.1875 128.195312 172.738281 127.601562 C 173.285156 127.007812 173.863281 126.441406 174.464844 125.902344 C 175.070312 125.363281 175.699219 124.855469 176.347656 124.375 C 177 123.898438 177.671875 123.449219 178.367188 123.035156 C 179.0625 122.617188 179.773438 122.238281 180.503906 121.890625 C 181.234375 121.542969 181.980469 121.230469 182.738281 120.953125 C 183.5 120.675781 184.273438 120.433594 185.054688 120.230469 C 185.835938 120.027344 186.628906 119.859375 187.425781 119.730469 C 188.226562 119.601562 189.027344 119.511719 189.835938 119.457031 C 190.617188 119.449219 191.394531 119.472656 192.171875 119.535156 C 192.949219 119.597656 193.722656 119.695312 194.492188 119.832031 C 195.257812 119.964844 196.019531 120.136719 196.773438 120.339844 C 197.523438 120.546875 198.265625 120.785156 198.996094 121.058594 C 199.726562 121.332031 200.445312 121.640625 201.144531 121.980469 C 201.847656 122.320312 202.53125 122.695312 203.199219 123.097656 C 203.867188 123.503906 204.511719 123.9375 205.140625 124.402344 C 205.765625 124.863281 206.371094 125.359375 206.953125 125.878906 C 207.53125 126.398438 208.089844 126.945312 208.617188 127.515625 C 209.148438 128.089844 209.652344 128.683594 210.125 129.304688 C 210.601562 129.921875 211.046875 130.5625 211.460938 131.222656 C 211.875 131.882812 212.261719 132.5625 212.613281 133.257812 C 212.964844 133.953125 213.285156 134.664062 213.570312 135.390625 C 213.855469 136.117188 214.109375 136.851562 214.328125 137.601562 C 214.542969 138.351562 214.726562 139.109375 214.875 139.875 C 215.019531 140.640625 215.132812 141.414062 215.207031 142.1875 C 215.285156 142.964844 215.324219 143.742188 215.324219 144.523438 C 215.328125 145.304688 215.296875 146.082031 215.226562 146.859375 C 215.15625 147.636719 215.050781 148.410156 214.910156 149.175781 C 214.769531 149.941406 214.59375 150.703125 214.382812 151.453125 C 214.171875 152.203125 213.925781 152.941406 213.644531 153.671875 C 213.363281 154.398438 213.050781 155.113281 212.703125 155.8125 C 212.355469 156.511719 211.976562 157.191406 211.566406 157.855469 C 211.15625 158.519531 210.71875 159.160156 210.25 159.785156 C 209.777344 160.40625 209.28125 161.007812 208.753906 161.582031 C 208.230469 162.160156 207.679688 162.710938 207.101562 163.234375 C 206.523438 163.761719 205.925781 164.257812 205.300781 164.726562 C 204.679688 165.195312 204.035156 165.636719 203.371094 166.046875 C 202.707031 166.457031 202.027344 166.832031 201.328125 167.179688 C 200.628906 167.523438 199.914062 167.839844 199.1875 168.117188 C 198.457031 168.398438 197.71875 168.644531 196.96875 168.855469 C 196.214844 169.066406 195.457031 169.242188 194.6875 169.382812 Z M 194.6875 169.382812 " fill-opacity="1" fill-rule="nonzero"/></g><g fill="#ffffff" fill-opacity="1"><g transform="translate(106.160307, 269.904239)"><g><path d="M 23.984375 -17.671875 C 25.453125 -16.898438 26.59375 -15.820312 27.40625 -14.4375 C 28.21875 -13.050781 28.625 -11.460938 28.625 -9.671875 C 28.625 -7.878906 28.148438 -6.25 27.203125 -4.78125 C 26.265625 -3.3125 24.988281 -2.144531 23.375 -1.28125 C 21.769531 -0.425781 20.007812 0 18.09375 0 L 3.828125 0 L 3.828125 -33.515625 L 17.71875 -33.515625 C 19.632812 -33.515625 21.347656 -33.140625 22.859375 -32.390625 C 24.378906 -31.640625 25.578125 -30.609375 26.453125 -29.296875 C 27.328125 -27.992188 27.765625 -26.523438 27.765625 -24.890625 C 27.765625 -23.453125 27.425781 -22.09375 26.75 -20.8125 C 26.082031 -19.539062 25.160156 -18.492188 23.984375 -17.671875 Z M 20.734375 -23.75 C 20.734375 -24.800781 20.394531 -25.660156 19.71875 -26.328125 C 19.050781 -27.003906 18.144531 -27.34375 17 -27.34375 L 10.96875 -27.34375 L 10.96875 -20.203125 L 17 -20.203125 C 18.144531 -20.203125 19.050781 -20.535156 19.71875 -21.203125 C 20.394531 -21.878906 20.734375 -22.726562 20.734375 -23.75 Z M 17.375 -6.65625 C 18.59375 -6.65625 19.5625 -7.003906 20.28125 -7.703125 C 21 -8.410156 21.359375 -9.320312 21.359375 -10.4375 C 21.359375 -11.519531 21 -12.410156 20.28125 -13.109375 C 19.5625 -13.816406 18.59375 -14.171875 17.375 -14.171875 L 10.96875 -14.171875 L 10.96875 -6.65625 Z M 17.375 -6.65625 "/></g></g></g><g fill="#ffffff" fill-opacity="1"><g transform="translate(135.792509, 269.904239)"><g><path d="M 3.34375 -29.296875 L 3.34375 -35.8125 L 10.34375 -35.8125 L 10.34375 -29.296875 Z M 3.34375 0 L 3.34375 -25.859375 L 10.34375 -25.859375 L 10.34375 0 Z M 3.34375 0 "/></g></g></g><g fill="#ffffff" fill-opacity="1"><g transform="translate(148.382572, 269.904239)"><g><path d="M 24.21875 -25.859375 L 28.765625 -25.859375 L 28.765625 -3.015625 C 28.765625 -0.304688 28.226562 2.019531 27.15625 3.96875 C 26.09375 5.914062 24.570312 7.414062 22.59375 8.46875 C 20.613281 9.519531 18.269531 10.046875 15.5625 10.046875 C 12.050781 10.046875 9.117188 9.203125 6.765625 7.515625 C 4.421875 5.828125 2.960938 3.515625 2.390625 0.578125 L 9.328125 0.578125 C 9.710938 1.722656 10.503906 2.585938 11.703125 3.171875 C 12.898438 3.765625 14.140625 4.0625 15.421875 4.0625 C 17.203125 4.0625 18.722656 3.523438 19.984375 2.453125 C 21.242188 1.390625 21.875 -0.0976562 21.875 -2.015625 L 21.875 -2.96875 C 20.851562 -2.226562 19.71875 -1.660156 18.46875 -1.265625 C 17.226562 -0.867188 15.90625 -0.671875 14.5 -0.671875 C 12.113281 -0.671875 9.945312 -1.242188 8 -2.390625 C 6.050781 -3.546875 4.507812 -5.09375 3.375 -7.03125 C 2.238281 -8.976562 1.671875 -11.164062 1.671875 -13.59375 C 1.671875 -16.019531 2.238281 -18.210938 3.375 -20.171875 C 4.507812 -22.140625 6.050781 -23.695312 8 -24.84375 C 9.945312 -26 12.113281 -26.578125 14.5 -26.578125 C 16.195312 -26.578125 17.78125 -26.285156 19.25 -25.703125 C 20.71875 -25.128906 22.007812 -24.316406 23.125 -23.265625 Z M 15.3125 -6.890625 C 17.226562 -6.890625 18.804688 -7.519531 20.046875 -8.78125 C 21.296875 -10.039062 21.921875 -11.644531 21.921875 -13.59375 C 21.921875 -15.507812 21.304688 -17.097656 20.078125 -18.359375 C 18.847656 -19.617188 17.257812 -20.25 15.3125 -20.25 C 13.4375 -20.25 11.875 -19.617188 10.625 -18.359375 C 9.382812 -17.097656 8.765625 -15.507812 8.765625 -13.59375 C 8.765625 -11.644531 9.378906 -10.039062 10.609375 -8.78125 C 11.835938 -7.519531 13.40625 -6.890625 15.3125 -6.890625 Z M 15.3125 -6.890625 "/></g></g></g><g fill="#ffffff" fill-opacity="1"><g transform="translate(179.403034, 269.904239)"><g><path d="M 16.703125 -33.515625 C 18.972656 -33.515625 20.992188 -33.007812 22.765625 -32 C 24.535156 -31 25.945312 -29.628906 27 -27.890625 C 28.050781 -26.148438 28.578125 -24.175781 28.578125 -21.96875 C 28.578125 -19.769531 28.054688 -17.800781 27.015625 -16.0625 C 25.984375 -14.320312 24.570312 -12.957031 22.78125 -11.96875 C 21 -10.976562 18.972656 -10.484375 16.703125 -10.484375 L 11.109375 -10.484375 L 11.109375 0 L 3.828125 0 L 3.828125 -33.515625 Z M 16.421875 -17.1875 C 17.859375 -17.1875 19.015625 -17.640625 19.890625 -18.546875 C 20.765625 -19.460938 21.203125 -20.601562 21.203125 -21.96875 C 21.203125 -23.375 20.765625 -24.53125 19.890625 -25.4375 C 19.015625 -26.351562 17.859375 -26.8125 16.421875 -26.8125 L 11.109375 -26.8125 L 11.109375 -17.1875 Z M 16.421875 -17.1875 "/></g></g></g><g fill="#ffffff" fill-opacity="1"><g transform="translate(208.077812, 269.904239)"><g><path d="M 24.46875 -25.90625 L 29.6875 -25.90625 L 29.6875 -0.046875 L 24.171875 -0.046875 L 23.609375 -2.34375 C 22.484375 -1.382812 21.210938 -0.632812 19.796875 -0.09375 C 18.378906 0.445312 16.851562 0.71875 15.21875 0.71875 C 12.632812 0.71875 10.320312 0.117188 8.28125 -1.078125 C 6.238281 -2.273438 4.625 -3.898438 3.4375 -5.953125 C 2.257812 -8.015625 1.671875 -10.351562 1.671875 -12.96875 C 1.671875 -15.5625 2.257812 -17.882812 3.4375 -19.9375 C 4.625 -22 6.238281 -23.617188 8.28125 -24.796875 C 10.320312 -25.984375 12.632812 -26.578125 15.21875 -26.578125 C 16.882812 -26.578125 18.429688 -26.296875 19.859375 -25.734375 C 21.296875 -25.171875 22.578125 -24.394531 23.703125 -23.40625 Z M 15.796875 -5.890625 C 17.140625 -5.890625 18.34375 -6.191406 19.40625 -6.796875 C 20.476562 -7.398438 21.316406 -8.238281 21.921875 -9.3125 C 22.535156 -10.382812 22.84375 -11.601562 22.84375 -12.96875 C 22.84375 -14.3125 22.535156 -15.515625 21.921875 -16.578125 C 21.316406 -17.648438 20.476562 -18.5 19.40625 -19.125 C 18.34375 -19.75 17.140625 -20.0625 15.796875 -20.0625 C 14.421875 -20.0625 13.207031 -19.75 12.15625 -19.125 C 11.101562 -18.5 10.273438 -17.648438 9.671875 -16.578125 C 9.066406 -15.515625 8.765625 -14.3125 8.765625 -12.96875 C 8.765625 -11.601562 9.066406 -10.390625 9.671875 -9.328125 C 10.273438 -8.273438 11.101562 -7.4375 12.15625 -6.8125 C 13.207031 -6.195312 14.421875 -5.890625 15.796875 -5.890625 Z M 15.796875 -5.890625 "/></g></g></g><g fill="#ffffff" fill-opacity="1"><g transform="translate(240.007833, 269.904239)"><g><path d="M 21.203125 -25.859375 L 28.671875 -25.859375 L 17.375 -0.328125 C 16.351562 1.992188 15.316406 3.863281 14.265625 5.28125 C 13.210938 6.707031 12.015625 7.738281 10.671875 8.375 C 9.335938 9.007812 7.695312 9.328125 5.75 9.328125 L 2.875 9.328125 L 2.875 3.015625 L 5.3125 3.015625 C 6.425781 3.015625 7.3125 2.882812 7.96875 2.625 C 8.625 2.375 9.179688 1.90625 9.640625 1.21875 C 10.109375 0.53125 10.613281 -0.460938 11.15625 -1.765625 L 11.25 -1.96875 L 0.28125 -25.859375 L 7.90625 -25.859375 L 14.796875 -9.953125 Z M 21.203125 -25.859375 "/></g></g></g></svg>