<svg xmlns="http://www.w3.org/2000/svg" xmlns:xlink="http://www.w3.org/1999/xlink" width="171" zoomAndPan="magnify" viewBox="0 0 128.25 30.000001" height="40" preserveAspectRatio="xMidYMid meet" version="1.0"><defs><clipPath id="971dbec69c"><path d="M 1.707031 0 L 33.910156 0 L 33.910156 29.03125 L 1.707031 29.03125 Z M 1.707031 0 " clip-rule="nonzero"/></clipPath><clipPath id="2840bb5dd2"><path d="M 34.054688 14.746094 C 34.054688 15.335938 34.027344 15.921875 33.96875 16.507812 C 33.910156 17.089844 33.824219 17.675781 33.710938 18.25 C 33.59375 18.828125 33.453125 19.398438 33.28125 19.960938 C 33.109375 20.523438 32.914062 21.074219 32.6875 21.621094 C 32.460938 22.160156 32.210938 22.695312 31.933594 23.210938 C 31.65625 23.730469 31.355469 24.234375 31.027344 24.722656 C 30.699219 25.210938 30.351562 25.683594 29.980469 26.136719 C 29.605469 26.59375 29.210938 27.027344 28.792969 27.445312 C 28.378906 27.859375 27.941406 28.253906 27.488281 28.625 C 27.035156 29 26.5625 29.351562 26.074219 29.679688 C 25.585938 30.003906 25.082031 30.308594 24.5625 30.582031 C 24.042969 30.859375 23.511719 31.113281 22.96875 31.335938 C 22.425781 31.5625 21.875 31.757812 21.308594 31.929688 C 20.746094 32.101562 20.175781 32.242188 19.601562 32.359375 C 19.023438 32.472656 18.441406 32.558594 17.859375 32.617188 C 17.273438 32.675781 16.6875 32.703125 16.097656 32.703125 C 15.511719 32.703125 14.921875 32.675781 14.335938 32.617188 C 13.75 32.558594 13.171875 32.472656 12.59375 32.359375 C 12.019531 32.242188 11.449219 32.101562 10.886719 31.929688 C 10.320312 31.757812 9.769531 31.5625 9.226562 31.335938 C 8.683594 31.113281 8.152344 30.859375 7.632812 30.582031 C 7.113281 30.308594 6.609375 30.003906 6.121094 29.679688 C 5.632812 29.351562 5.160156 29 4.707031 28.625 C 4.253906 28.253906 3.816406 27.859375 3.402344 27.445312 C 2.984375 27.027344 2.589844 26.59375 2.214844 26.136719 C 1.84375 25.683594 1.496094 25.210938 1.167969 24.722656 C 0.839844 24.234375 0.539062 23.730469 0.261719 23.210938 C -0.015625 22.695312 -0.265625 22.160156 -0.492188 21.621094 C -0.71875 21.074219 -0.914062 20.523438 -1.085938 19.960938 C -1.257812 19.398438 -1.398438 18.828125 -1.515625 18.25 C -1.628906 17.675781 -1.714844 17.089844 -1.773438 16.507812 C -1.832031 15.921875 -1.859375 15.335938 -1.859375 14.746094 C -1.859375 14.160156 -1.832031 13.570312 -1.773438 12.988281 C -1.714844 12.402344 -1.628906 11.820312 -1.515625 11.242188 C -1.398438 10.667969 -1.257812 10.097656 -1.085938 9.535156 C -0.914062 8.972656 -0.71875 8.417969 -0.492188 7.875 C -0.265625 7.332031 -0.015625 6.800781 0.261719 6.28125 C 0.539062 5.765625 0.839844 5.261719 1.167969 4.773438 C 1.496094 4.28125 1.84375 3.808594 2.214844 3.355469 C 2.589844 2.902344 2.984375 2.464844 3.402344 2.050781 C 3.816406 1.632812 4.253906 1.242188 4.707031 0.867188 C 5.160156 0.492188 5.632812 0.144531 6.121094 -0.183594 C 6.609375 -0.507812 7.113281 -0.8125 7.632812 -1.089844 C 8.152344 -1.367188 8.683594 -1.617188 9.226562 -1.839844 C 9.769531 -2.066406 10.320312 -2.265625 10.886719 -2.433594 C 11.449219 -2.605469 12.019531 -2.75 12.59375 -2.863281 C 13.171875 -2.980469 13.75 -3.0625 14.335938 -3.121094 C 14.921875 -3.179688 15.511719 -3.207031 16.097656 -3.207031 C 16.6875 -3.207031 17.273438 -3.179688 17.859375 -3.121094 C 18.441406 -3.0625 19.023438 -2.980469 19.601562 -2.863281 C 20.175781 -2.75 20.746094 -2.605469 21.308594 -2.433594 C 21.875 -2.265625 22.425781 -2.066406 22.96875 -1.839844 C 23.511719 -1.617188 24.042969 -1.367188 24.5625 -1.089844 C 25.082031 -0.8125 25.585938 -0.507812 26.074219 -0.183594 C 26.5625 0.144531 27.035156 0.492188 27.488281 0.867188 C 27.941406 1.242188 28.378906 1.632812 28.792969 2.050781 C 29.210938 2.464844 29.605469 2.902344 29.980469 3.355469 C 30.351562 3.808594 30.699219 4.28125 31.027344 4.773438 C 31.355469 5.261719 31.65625 5.765625 31.933594 6.28125 C 32.210938 6.800781 32.460938 7.332031 32.6875 7.875 C 32.914062 8.417969 33.109375 8.972656 33.28125 9.535156 C 33.453125 10.097656 33.59375 10.667969 33.710938 11.242188 C 33.824219 11.820312 33.910156 12.402344 33.96875 12.988281 C 34.027344 13.570312 34.054688 14.160156 34.054688 14.746094 Z M 34.054688 14.746094 " clip-rule="nonzero"/></clipPath><clipPath id="9ec7174ed5"><path d="M 1.824219 0.476562 L 30.25 0.476562 L 30.25 28.898438 L 1.824219 28.898438 Z M 1.824219 0.476562 " clip-rule="nonzero"/></clipPath></defs><g clip-path="url(#971dbec69c)"><g clip-path="url(#2840bb5dd2)"><path fill="#ffffff" d="M -17.347656 23.617188 L 7.082031 -18.699219 L 49.394531 5.734375 L 24.96875 48.046875 Z M -17.347656 23.617188 " fill-opacity="1" fill-rule="nonzero"/></g></g><g clip-path="url(#9ec7174ed5)"><path fill="#000000" d="M 16.097656 0.476562 C 15.628906 0.476562 15.164062 0.5 14.699219 0.542969 C 14.234375 0.589844 13.773438 0.660156 13.3125 0.75 C 12.855469 0.839844 12.402344 0.953125 11.957031 1.089844 C 11.507812 1.226562 11.066406 1.382812 10.636719 1.5625 C 10.203125 1.742188 9.78125 1.941406 9.371094 2.160156 C 8.957031 2.382812 8.558594 2.621094 8.167969 2.878906 C 7.78125 3.140625 7.40625 3.417969 7.042969 3.714844 C 6.683594 4.011719 6.335938 4.324219 6.003906 4.65625 C 5.675781 4.984375 5.363281 5.332031 5.066406 5.691406 C 4.769531 6.054688 4.492188 6.429688 4.230469 6.816406 C 3.972656 7.207031 3.730469 7.609375 3.511719 8.019531 C 3.292969 8.429688 3.089844 8.851562 2.910156 9.285156 C 2.734375 9.714844 2.574219 10.15625 2.441406 10.601562 C 2.304688 11.050781 2.191406 11.503906 2.101562 11.960938 C 2.007812 12.421875 1.941406 12.882812 1.894531 13.347656 C 1.847656 13.8125 1.824219 14.277344 1.824219 14.746094 C 1.824219 15.214844 1.847656 15.679688 1.894531 16.144531 C 1.941406 16.609375 2.007812 17.070312 2.101562 17.53125 C 2.191406 17.988281 2.304688 18.441406 2.441406 18.890625 C 2.574219 19.335938 2.734375 19.777344 2.910156 20.207031 C 3.089844 20.640625 3.292969 21.0625 3.511719 21.472656 C 3.730469 21.886719 3.972656 22.285156 4.230469 22.675781 C 4.492188 23.066406 4.769531 23.4375 5.066406 23.800781 C 5.363281 24.160156 5.675781 24.507812 6.003906 24.835938 C 6.335938 25.167969 6.683594 25.480469 7.042969 25.777344 C 7.40625 26.074219 7.78125 26.351562 8.167969 26.613281 C 8.558594 26.871094 8.957031 27.113281 9.371094 27.332031 C 9.78125 27.550781 10.203125 27.75 10.636719 27.929688 C 11.066406 28.109375 11.507812 28.265625 11.957031 28.402344 C 12.402344 28.539062 12.855469 28.652344 13.3125 28.742188 C 13.773438 28.835938 14.234375 28.902344 14.699219 28.949219 C 15.164062 28.996094 15.628906 29.019531 16.097656 29.019531 C 16.5625 29.019531 17.03125 28.996094 17.496094 28.949219 C 17.960938 28.902344 18.421875 28.835938 18.882812 28.742188 C 19.339844 28.652344 19.792969 28.539062 20.242188 28.402344 C 20.6875 28.265625 21.125 28.109375 21.558594 27.929688 C 21.988281 27.75 22.414062 27.550781 22.824219 27.332031 C 23.238281 27.113281 23.636719 26.871094 24.027344 26.613281 C 24.414062 26.351562 24.789062 26.074219 25.148438 25.777344 C 25.511719 25.480469 25.855469 25.167969 26.1875 24.835938 C 26.519531 24.507812 26.832031 24.160156 27.128906 23.800781 C 27.425781 23.4375 27.703125 23.066406 27.964844 22.675781 C 28.222656 22.285156 28.464844 21.886719 28.683594 21.472656 C 28.90625 21.0625 29.105469 20.640625 29.28125 20.207031 C 29.460938 19.777344 29.617188 19.335938 29.753906 18.890625 C 29.890625 18.441406 30.003906 17.988281 30.09375 17.53125 C 30.183594 17.070312 30.253906 16.609375 30.300781 16.144531 C 30.34375 15.679688 30.367188 15.214844 30.367188 14.746094 C 30.367188 14.277344 30.34375 13.8125 30.300781 13.347656 C 30.253906 12.882812 30.183594 12.421875 30.09375 11.960938 C 30.003906 11.503906 29.890625 11.050781 29.753906 10.601562 C 29.617188 10.15625 29.460938 9.714844 29.28125 9.285156 C 29.105469 8.851562 28.90625 8.429688 28.683594 8.019531 C 28.464844 7.609375 28.222656 7.207031 27.964844 6.816406 C 27.703125 6.429688 27.425781 6.054688 27.128906 5.691406 C 26.832031 5.332031 26.519531 4.984375 26.1875 4.65625 C 25.855469 4.324219 25.511719 4.011719 25.148438 3.714844 C 24.789062 3.417969 24.414062 3.140625 24.027344 2.878906 C 23.636719 2.621094 23.238281 2.382812 22.824219 2.160156 C 22.414062 1.941406 21.988281 1.742188 21.558594 1.5625 C 21.125 1.382812 20.6875 1.226562 20.242188 1.089844 C 19.792969 0.953125 19.339844 0.839844 18.882812 0.75 C 18.421875 0.660156 17.960938 0.589844 17.496094 0.542969 C 17.03125 0.5 16.5625 0.476562 16.097656 0.476562 Z M 18.136719 19.726562 C 18.007812 19.746094 17.882812 19.738281 17.757812 19.699219 C 17.636719 19.664062 17.523438 19.601562 17.425781 19.519531 C 17.328125 19.433594 17.253906 19.335938 17.199219 19.21875 C 17.144531 19.101562 17.117188 18.976562 17.117188 18.851562 L 17.117188 16.503906 C 17.117188 16.40625 17.132812 16.308594 17.164062 16.214844 C 17.199219 16.121094 17.246094 16.035156 17.304688 15.960938 C 17.367188 15.882812 17.441406 15.816406 17.523438 15.761719 C 17.605469 15.710938 17.699219 15.671875 17.796875 15.648438 C 17.980469 15.605469 18.164062 15.546875 18.339844 15.46875 C 18.515625 15.394531 18.683594 15.300781 18.839844 15.191406 C 18.996094 15.085938 19.144531 14.960938 19.28125 14.828125 C 19.417969 14.691406 19.539062 14.542969 19.644531 14.386719 C 19.753906 14.226562 19.847656 14.058594 19.921875 13.882812 C 20 13.707031 20.058594 13.527344 20.097656 13.339844 C 20.140625 13.152344 20.164062 12.964844 20.171875 12.769531 C 20.179688 12.578125 20.167969 12.386719 20.140625 12.199219 C 20.109375 12.011719 20.0625 11.824219 20 11.644531 C 19.933594 11.464844 19.855469 11.289062 19.757812 11.125 C 19.660156 10.960938 19.546875 10.804688 19.421875 10.65625 C 19.296875 10.511719 19.160156 10.382812 19.007812 10.265625 C 18.859375 10.144531 18.695312 10.039062 18.527344 9.953125 C 18.355469 9.863281 18.179688 9.792969 17.996094 9.738281 C 17.8125 9.683594 17.625 9.644531 17.433594 9.625 C 17.242188 9.605469 17.050781 9.605469 16.863281 9.621094 C 16.671875 9.636719 16.484375 9.667969 16.296875 9.71875 C 16.113281 9.773438 15.933594 9.839844 15.761719 9.925781 C 15.589844 10.007812 15.429688 10.109375 15.273438 10.226562 C 15.121094 10.339844 14.980469 10.46875 14.851562 10.613281 C 14.722656 10.753906 14.609375 10.90625 14.507812 11.070312 C 14.410156 11.234375 14.324219 11.40625 14.253906 11.585938 C 14.1875 11.765625 14.136719 11.949219 14.105469 12.136719 C 14.070312 12.328125 14.054688 12.515625 14.058594 12.707031 L 14.058594 22.394531 C 14.058594 22.59375 14.019531 22.789062 13.941406 22.976562 C 13.863281 23.164062 13.753906 23.328125 13.609375 23.472656 C 13.46875 23.617188 13.300781 23.726562 13.113281 23.804688 C 12.925781 23.882812 12.730469 23.921875 12.527344 23.921875 L 11.507812 23.921875 C 11.304688 23.921875 11.113281 23.882812 10.925781 23.804688 C 10.738281 23.726562 10.574219 23.617188 10.429688 23.472656 C 10.285156 23.328125 10.175781 23.164062 10.097656 22.976562 C 10.019531 22.789062 9.980469 22.59375 9.980469 22.394531 L 9.980469 12.890625 C 9.976562 12.429688 10.015625 11.976562 10.097656 11.523438 C 10.175781 11.070312 10.300781 10.628906 10.464844 10.199219 C 10.632812 9.773438 10.835938 9.363281 11.078125 8.972656 C 11.320312 8.582031 11.597656 8.21875 11.910156 7.882812 C 12.226562 7.542969 12.566406 7.238281 12.9375 6.96875 C 13.308594 6.695312 13.699219 6.460938 14.113281 6.261719 C 14.53125 6.0625 14.960938 5.90625 15.40625 5.792969 C 15.847656 5.675781 16.300781 5.601562 16.761719 5.570312 C 17.203125 5.566406 17.644531 5.601562 18.078125 5.679688 C 18.515625 5.753906 18.941406 5.871094 19.355469 6.027344 C 19.773438 6.183594 20.167969 6.375 20.546875 6.605469 C 20.925781 6.835938 21.28125 7.097656 21.613281 7.394531 C 21.945312 7.6875 22.242188 8.011719 22.511719 8.363281 C 22.78125 8.714844 23.019531 9.089844 23.21875 9.484375 C 23.417969 9.878906 23.582031 10.289062 23.703125 10.714844 C 23.828125 11.140625 23.910156 11.578125 23.953125 12.015625 C 23.996094 12.457031 23.996094 12.898438 23.957031 13.339844 C 23.917969 13.78125 23.839844 14.214844 23.71875 14.644531 C 23.597656 15.070312 23.441406 15.480469 23.242188 15.878906 C 23.046875 16.277344 22.8125 16.652344 22.546875 17.003906 C 22.28125 17.359375 21.984375 17.6875 21.65625 17.984375 C 21.328125 18.28125 20.976562 18.546875 20.597656 18.78125 C 20.21875 19.011719 19.824219 19.210938 19.410156 19.367188 C 18.996094 19.527344 18.570312 19.648438 18.136719 19.726562 Z M 18.136719 19.726562 " fill-opacity="1" fill-rule="nonzero"/></g><path fill="#ffffff" d="M 50.601562 12.332031 C 51.226562 12.664062 51.710938 13.121094 52.058594 13.710938 C 52.402344 14.300781 52.578125 14.976562 52.578125 15.738281 C 52.578125 16.503906 52.375 17.195312 51.972656 17.820312 C 51.574219 18.449219 51.027344 18.945312 50.339844 19.3125 C 49.65625 19.675781 48.90625 19.859375 48.09375 19.859375 L 42.019531 19.859375 L 42.019531 5.585938 L 47.933594 5.585938 C 48.746094 5.585938 49.476562 5.746094 50.121094 6.066406 C 50.769531 6.386719 51.28125 6.824219 51.652344 7.382812 C 52.023438 7.9375 52.210938 8.5625 52.210938 9.257812 C 52.210938 9.871094 52.066406 10.449219 51.777344 10.996094 C 51.492188 11.539062 51.101562 11.984375 50.601562 12.332031 Z M 49.21875 9.746094 C 49.21875 9.296875 49.074219 8.929688 48.785156 8.648438 C 48.5 8.359375 48.113281 8.214844 47.625 8.214844 L 45.058594 8.214844 L 45.058594 11.253906 L 47.625 11.253906 C 48.113281 11.253906 48.5 11.113281 48.785156 10.828125 C 49.074219 10.542969 49.21875 10.179688 49.21875 9.746094 Z M 47.785156 17.023438 C 48.304688 17.023438 48.71875 16.875 49.023438 16.578125 C 49.332031 16.277344 49.484375 15.890625 49.484375 15.414062 C 49.484375 14.953125 49.332031 14.574219 49.023438 14.277344 C 48.71875 13.976562 48.304688 13.824219 47.785156 13.824219 L 45.058594 13.824219 L 45.058594 17.023438 Z M 47.785156 17.023438 " fill-opacity="1" fill-rule="nonzero"/><path fill="#ffffff" d="M 54.429688 7.382812 L 54.429688 4.609375 L 57.410156 4.609375 L 57.410156 7.382812 Z M 54.429688 19.859375 L 54.429688 8.847656 L 57.410156 8.847656 L 57.410156 19.859375 Z M 54.429688 19.859375 " fill-opacity="1" fill-rule="nonzero"/><path fill="#ffffff" d="M 68.679688 8.847656 L 70.617188 8.847656 L 70.617188 18.574219 C 70.617188 19.726562 70.386719 20.71875 69.929688 21.546875 C 69.476562 22.375 68.828125 23.015625 67.988281 23.464844 C 67.144531 23.910156 66.144531 24.136719 64.992188 24.136719 C 63.496094 24.136719 62.25 23.777344 61.246094 23.058594 C 60.25 22.339844 59.628906 21.355469 59.382812 20.105469 L 62.339844 20.105469 C 62.5 20.589844 62.839844 20.957031 63.351562 21.207031 C 63.859375 21.460938 64.386719 21.585938 64.933594 21.585938 C 65.691406 21.585938 66.339844 21.359375 66.875 20.902344 C 67.410156 20.449219 67.679688 19.816406 67.679688 19 L 67.679688 18.59375 C 67.246094 18.910156 66.761719 19.152344 66.230469 19.320312 C 65.703125 19.488281 65.140625 19.570312 64.539062 19.570312 C 63.523438 19.570312 62.601562 19.328125 61.773438 18.839844 C 60.941406 18.347656 60.285156 17.6875 59.804688 16.863281 C 59.320312 16.035156 59.078125 15.105469 59.078125 14.070312 C 59.078125 13.035156 59.320312 12.101562 59.804688 11.269531 C 60.285156 10.429688 60.941406 9.769531 61.773438 9.277344 C 62.601562 8.785156 63.523438 8.539062 64.539062 8.539062 C 65.261719 8.539062 65.9375 8.664062 66.5625 8.914062 C 67.1875 9.15625 67.738281 9.503906 68.214844 9.953125 Z M 64.886719 16.921875 C 65.703125 16.921875 66.375 16.65625 66.902344 16.117188 C 67.433594 15.582031 67.703125 14.898438 67.703125 14.070312 C 67.703125 13.253906 67.4375 12.578125 66.917969 12.039062 C 66.390625 11.503906 65.714844 11.234375 64.886719 11.234375 C 64.089844 11.234375 63.421875 11.503906 62.890625 12.039062 C 62.363281 12.578125 62.097656 13.253906 62.097656 14.070312 C 62.097656 14.898438 62.359375 15.582031 62.882812 16.117188 C 63.40625 16.65625 64.074219 16.921875 64.886719 16.921875 Z M 64.886719 16.921875 " fill-opacity="1" fill-rule="nonzero"/><path fill="#ffffff" d="M 78.6875 5.585938 C 79.652344 5.585938 80.515625 5.804688 81.269531 6.230469 C 82.023438 6.65625 82.625 7.242188 83.070312 7.980469 C 83.519531 8.722656 83.746094 9.5625 83.746094 10.503906 C 83.746094 11.441406 83.519531 12.277344 83.078125 13.019531 C 82.640625 13.761719 82.039062 14.339844 81.277344 14.761719 C 80.515625 15.183594 79.652344 15.394531 78.6875 15.394531 L 76.304688 15.394531 L 76.304688 19.859375 L 73.207031 19.859375 L 73.207031 5.585938 Z M 78.566406 12.539062 C 79.179688 12.539062 79.671875 12.347656 80.046875 11.960938 C 80.417969 11.570312 80.605469 11.085938 80.605469 10.503906 C 80.605469 9.90625 80.417969 9.414062 80.046875 9.027344 C 79.671875 8.636719 79.179688 8.441406 78.566406 8.441406 L 76.304688 8.441406 L 76.304688 12.539062 Z M 78.566406 12.539062 " fill-opacity="1" fill-rule="nonzero"/><path fill="#ffffff" d="M 94.203125 8.828125 L 96.425781 8.828125 L 96.425781 19.835938 L 94.078125 19.835938 L 93.839844 18.859375 C 93.359375 19.269531 92.816406 19.589844 92.214844 19.816406 C 91.609375 20.046875 90.960938 20.164062 90.265625 20.164062 C 89.164062 20.164062 88.179688 19.90625 87.3125 19.398438 C 86.441406 18.890625 85.753906 18.199219 85.25 17.324219 C 84.746094 16.445312 84.496094 15.449219 84.496094 14.335938 C 84.496094 13.230469 84.746094 12.242188 85.25 11.367188 C 85.753906 10.488281 86.441406 9.800781 87.3125 9.300781 C 88.179688 8.792969 89.164062 8.539062 90.265625 8.539062 C 90.972656 8.539062 91.632812 8.660156 92.242188 8.898438 C 92.855469 9.140625 93.398438 9.46875 93.878906 9.890625 Z M 90.511719 17.347656 C 91.082031 17.347656 91.597656 17.222656 92.046875 16.964844 C 92.503906 16.707031 92.863281 16.351562 93.121094 15.890625 C 93.382812 15.4375 93.511719 14.917969 93.511719 14.335938 C 93.511719 13.761719 93.382812 13.25 93.121094 12.796875 C 92.863281 12.34375 92.503906 11.980469 92.046875 11.714844 C 91.597656 11.449219 91.082031 11.316406 90.511719 11.316406 C 89.925781 11.316406 89.410156 11.449219 88.960938 11.714844 C 88.511719 11.980469 88.160156 12.34375 87.902344 12.796875 C 87.644531 13.25 87.519531 13.761719 87.519531 14.335938 C 87.519531 14.917969 87.644531 15.433594 87.902344 15.886719 C 88.160156 16.335938 88.511719 16.691406 88.960938 16.957031 C 89.410156 17.21875 89.925781 17.347656 90.511719 17.347656 Z M 90.511719 17.347656 " fill-opacity="1" fill-rule="nonzero"/><path fill="#ffffff" d="M 106.410156 8.847656 L 109.589844 8.847656 L 104.78125 19.71875 C 104.34375 20.707031 103.902344 21.503906 103.457031 22.105469 C 103.007812 22.714844 102.496094 23.152344 101.925781 23.425781 C 101.355469 23.695312 100.65625 23.828125 99.828125 23.828125 L 98.605469 23.828125 L 98.605469 21.140625 L 99.644531 21.140625 C 100.117188 21.140625 100.496094 21.085938 100.773438 20.976562 C 101.054688 20.867188 101.289062 20.667969 101.488281 20.375 C 101.6875 20.085938 101.902344 19.660156 102.132812 19.105469 L 102.171875 19.019531 L 97.5 8.847656 L 100.746094 8.847656 L 103.683594 15.621094 Z M 106.410156 8.847656 " fill-opacity="1" fill-rule="nonzero"/></svg>