<svg xmlns="http://www.w3.org/2000/svg" xmlns:xlink="http://www.w3.org/1999/xlink" width="171" zoomAndPan="magnify" viewBox="0 0 128.25 30.000001" height="40" preserveAspectRatio="xMidYMid meet" version="1.0"><defs><clipPath id="4c4e186f90"><path d="M 2.449219 0.574219 L 30.25 0.574219 L 30.25 28.378906 L 2.449219 28.378906 Z M 2.449219 0.574219 " clip-rule="nonzero"/></clipPath><clipPath id="f7632bfd5e"><path d="M 30.363281 14.53125 C 30.363281 14.988281 30.339844 15.445312 30.296875 15.902344 C 30.25 16.355469 30.183594 16.808594 30.09375 17.257812 C 30.003906 17.703125 29.894531 18.148438 29.761719 18.585938 C 29.628906 19.023438 29.476562 19.453125 29.300781 19.875 C 29.125 20.296875 28.929688 20.710938 28.714844 21.113281 C 28.5 21.515625 28.265625 21.90625 28.011719 22.285156 C 27.757812 22.667969 27.484375 23.035156 27.195312 23.386719 C 26.902344 23.738281 26.597656 24.078125 26.273438 24.402344 C 25.953125 24.726562 25.613281 25.03125 25.257812 25.320312 C 24.90625 25.613281 24.539062 25.882812 24.160156 26.136719 C 23.78125 26.390625 23.386719 26.625 22.984375 26.839844 C 22.582031 27.058594 22.167969 27.253906 21.746094 27.425781 C 21.324219 27.601562 20.894531 27.753906 20.457031 27.886719 C 20.019531 28.023438 19.578125 28.132812 19.128906 28.222656 C 18.679688 28.308594 18.226562 28.378906 17.773438 28.421875 C 17.320312 28.46875 16.863281 28.488281 16.40625 28.488281 C 15.949219 28.488281 15.492188 28.46875 15.039062 28.421875 C 14.582031 28.378906 14.128906 28.308594 13.683594 28.222656 C 13.234375 28.132812 12.792969 28.023438 12.355469 27.886719 C 11.917969 27.753906 11.488281 27.601562 11.0625 27.425781 C 10.644531 27.253906 10.230469 27.058594 9.828125 26.839844 C 9.421875 26.625 9.03125 26.390625 8.652344 26.136719 C 8.273438 25.882812 7.90625 25.613281 7.550781 25.320312 C 7.199219 25.03125 6.859375 24.726562 6.535156 24.402344 C 6.214844 24.078125 5.90625 23.738281 5.617188 23.386719 C 5.328125 23.035156 5.054688 22.667969 4.800781 22.285156 C 4.546875 21.90625 4.3125 21.515625 4.097656 21.113281 C 3.882812 20.710938 3.6875 20.296875 3.511719 19.875 C 3.335938 19.453125 3.183594 19.023438 3.050781 18.585938 C 2.917969 18.148438 2.804688 17.703125 2.714844 17.257812 C 2.628906 16.808594 2.5625 16.355469 2.515625 15.902344 C 2.46875 15.445312 2.449219 14.988281 2.449219 14.53125 C 2.449219 14.074219 2.46875 13.621094 2.515625 13.164062 C 2.5625 12.710938 2.628906 12.257812 2.714844 11.808594 C 2.804688 11.363281 2.917969 10.917969 3.050781 10.480469 C 3.183594 10.042969 3.335938 9.613281 3.511719 9.191406 C 3.6875 8.769531 3.882812 8.355469 4.097656 7.953125 C 4.3125 7.550781 4.546875 7.160156 4.800781 6.777344 C 5.054688 6.398438 5.328125 6.03125 5.617188 5.679688 C 5.90625 5.324219 6.214844 4.988281 6.535156 4.664062 C 6.859375 4.339844 7.199219 4.035156 7.550781 3.742188 C 7.90625 3.453125 8.273438 3.183594 8.652344 2.925781 C 9.03125 2.675781 9.421875 2.4375 9.828125 2.222656 C 10.230469 2.007812 10.644531 1.8125 11.0625 1.640625 C 11.488281 1.464844 11.917969 1.308594 12.355469 1.175781 C 12.792969 1.042969 13.234375 0.933594 13.683594 0.84375 C 14.128906 0.753906 14.582031 0.6875 15.039062 0.644531 C 15.492188 0.597656 15.949219 0.574219 16.40625 0.574219 C 16.863281 0.574219 17.320312 0.597656 17.773438 0.644531 C 18.226562 0.6875 18.679688 0.753906 19.128906 0.84375 C 19.578125 0.933594 20.019531 1.042969 20.457031 1.175781 C 20.894531 1.308594 21.324219 1.464844 21.746094 1.640625 C 22.167969 1.8125 22.582031 2.007812 22.984375 2.222656 C 23.386719 2.4375 23.78125 2.675781 24.160156 2.925781 C 24.539062 3.183594 24.90625 3.453125 25.257812 3.742188 C 25.613281 4.035156 25.953125 4.339844 26.273438 4.664062 C 26.597656 4.988281 26.902344 5.324219 27.195312 5.679688 C 27.484375 6.03125 27.757812 6.398438 28.011719 6.777344 C 28.265625 7.160156 28.5 7.550781 28.714844 7.953125 C 28.929688 8.355469 29.125 8.769531 29.300781 9.191406 C 29.476562 9.613281 29.628906 10.042969 29.761719 10.480469 C 29.894531 10.917969 30.003906 11.363281 30.09375 11.808594 C 30.183594 12.257812 30.25 12.710938 30.296875 13.164062 C 30.339844 13.621094 30.363281 14.074219 30.363281 14.53125 Z M 30.363281 14.53125 " clip-rule="nonzero"/></clipPath><clipPath id="fb0d093d48"><path d="M 5.3125 3.441406 L 27.40625 3.441406 L 27.40625 25.53125 L 5.3125 25.53125 Z M 5.3125 3.441406 " clip-rule="nonzero"/></clipPath></defs><g clip-path="url(#4c4e186f90)"><g clip-path="url(#f7632bfd5e)"><path fill="#ffffff" d="M -9.589844 21.425781 L 9.398438 -11.464844 L 42.289062 7.527344 L 23.300781 40.414062 Z M -9.589844 21.425781 " fill-opacity="1" fill-rule="nonzero"/></g></g><g clip-path="url(#fb0d093d48)"><path fill="#000000" d="M 16.40625 3.441406 C 16.042969 3.441406 15.679688 3.457031 15.316406 3.492188 C 14.957031 3.527344 14.597656 3.582031 14.242188 3.652344 C 13.886719 3.722656 13.53125 3.8125 13.1875 3.917969 C 12.839844 4.023438 12.496094 4.144531 12.160156 4.285156 C 11.824219 4.421875 11.496094 4.578125 11.175781 4.75 C 10.855469 4.921875 10.542969 5.109375 10.242188 5.308594 C 9.941406 5.511719 9.648438 5.726562 9.367188 5.957031 C 9.085938 6.1875 8.820312 6.429688 8.5625 6.6875 C 8.304688 6.945312 8.0625 7.214844 7.832031 7.496094 C 7.601562 7.777344 7.382812 8.066406 7.183594 8.371094 C 6.980469 8.671875 6.792969 8.984375 6.621094 9.304688 C 6.453125 9.625 6.296875 9.953125 6.15625 10.289062 C 6.019531 10.621094 5.894531 10.964844 5.789062 11.3125 C 5.683594 11.660156 5.597656 12.011719 5.527344 12.367188 C 5.453125 12.726562 5.402344 13.082031 5.367188 13.445312 C 5.332031 13.808594 5.3125 14.167969 5.3125 14.53125 C 5.3125 14.894531 5.332031 15.257812 5.367188 15.621094 C 5.402344 15.980469 5.453125 16.339844 5.527344 16.695312 C 5.597656 17.054688 5.683594 17.40625 5.789062 17.753906 C 5.894531 18.101562 6.019531 18.441406 6.15625 18.777344 C 6.296875 19.113281 6.453125 19.441406 6.621094 19.761719 C 6.792969 20.082031 6.980469 20.394531 7.183594 20.695312 C 7.382812 20.996094 7.601562 21.289062 7.832031 21.570312 C 8.0625 21.851562 8.304688 22.117188 8.5625 22.375 C 8.820312 22.632812 9.085938 22.875 9.367188 23.109375 C 9.648438 23.335938 9.941406 23.554688 10.242188 23.753906 C 10.542969 23.957031 10.855469 24.144531 11.175781 24.316406 C 11.496094 24.484375 11.824219 24.640625 12.160156 24.78125 C 12.496094 24.921875 12.839844 25.042969 13.1875 25.148438 C 13.53125 25.253906 13.886719 25.339844 14.242188 25.410156 C 14.597656 25.484375 14.957031 25.535156 15.316406 25.570312 C 15.679688 25.605469 16.042969 25.625 16.40625 25.625 C 16.769531 25.625 17.132812 25.605469 17.492188 25.570312 C 17.855469 25.535156 18.210938 25.484375 18.570312 25.410156 C 18.925781 25.339844 19.277344 25.253906 19.625 25.148438 C 19.972656 25.042969 20.316406 24.921875 20.652344 24.78125 C 20.984375 24.640625 21.3125 24.484375 21.632812 24.316406 C 21.957031 24.144531 22.265625 23.957031 22.566406 23.753906 C 22.871094 23.554688 23.160156 23.335938 23.441406 23.109375 C 23.722656 22.875 23.992188 22.632812 24.25 22.375 C 24.507812 22.117188 24.75 21.851562 24.980469 21.570312 C 25.210938 21.289062 25.425781 20.996094 25.628906 20.695312 C 25.828125 20.394531 26.015625 20.082031 26.1875 19.761719 C 26.359375 19.441406 26.515625 19.113281 26.652344 18.777344 C 26.792969 18.441406 26.914062 18.101562 27.019531 17.753906 C 27.125 17.40625 27.214844 17.054688 27.285156 16.695312 C 27.355469 16.339844 27.410156 15.980469 27.445312 15.621094 C 27.480469 15.257812 27.496094 14.894531 27.496094 14.53125 C 27.496094 14.167969 27.480469 13.808594 27.445312 13.445312 C 27.410156 13.082031 27.355469 12.726562 27.285156 12.367188 C 27.214844 12.011719 27.125 11.660156 27.019531 11.3125 C 26.914062 10.964844 26.792969 10.621094 26.652344 10.289062 C 26.515625 9.953125 26.359375 9.625 26.1875 9.304688 C 26.015625 8.984375 25.828125 8.671875 25.628906 8.371094 C 25.425781 8.066406 25.210938 7.777344 24.980469 7.496094 C 24.75 7.214844 24.507812 6.945312 24.25 6.6875 C 23.992188 6.429688 23.722656 6.1875 23.441406 5.957031 C 23.160156 5.726562 22.871094 5.511719 22.566406 5.308594 C 22.265625 5.109375 21.957031 4.921875 21.632812 4.75 C 21.3125 4.578125 20.984375 4.421875 20.652344 4.285156 C 20.316406 4.144531 19.972656 4.023438 19.625 3.917969 C 19.277344 3.8125 18.925781 3.722656 18.570312 3.652344 C 18.210938 3.582031 17.855469 3.527344 17.492188 3.492188 C 17.132812 3.457031 16.769531 3.441406 16.40625 3.441406 Z M 17.988281 18.402344 C 17.890625 18.417969 17.792969 18.410156 17.695312 18.382812 C 17.601562 18.355469 17.515625 18.308594 17.4375 18.242188 C 17.363281 18.175781 17.304688 18.097656 17.261719 18.007812 C 17.21875 17.917969 17.199219 17.820312 17.199219 17.722656 L 17.199219 15.898438 C 17.199219 15.824219 17.210938 15.746094 17.234375 15.675781 C 17.261719 15.601562 17.296875 15.535156 17.34375 15.476562 C 17.394531 15.414062 17.449219 15.363281 17.515625 15.320312 C 17.578125 15.28125 17.648438 15.25 17.726562 15.234375 C 17.871094 15.199219 18.011719 15.152344 18.148438 15.09375 C 18.285156 15.035156 18.414062 14.960938 18.535156 14.878906 C 18.660156 14.792969 18.773438 14.699219 18.878906 14.59375 C 18.984375 14.488281 19.078125 14.375 19.164062 14.25 C 19.246094 14.128906 19.320312 14 19.378906 13.859375 C 19.4375 13.722656 19.484375 13.582031 19.515625 13.4375 C 19.550781 13.292969 19.566406 13.144531 19.574219 12.996094 C 19.578125 12.847656 19.570312 12.699219 19.546875 12.550781 C 19.523438 12.40625 19.488281 12.261719 19.4375 12.121094 C 19.386719 11.980469 19.324219 11.847656 19.25 11.714844 C 19.175781 11.589844 19.085938 11.46875 18.992188 11.355469 C 18.890625 11.242188 18.785156 11.140625 18.667969 11.046875 C 18.550781 10.957031 18.425781 10.875 18.292969 10.804688 C 18.160156 10.738281 18.023438 10.683594 17.882812 10.640625 C 17.738281 10.597656 17.59375 10.566406 17.445312 10.550781 C 17.296875 10.535156 17.148438 10.535156 17 10.546875 C 16.851562 10.558594 16.703125 10.585938 16.5625 10.625 C 16.417969 10.664062 16.277344 10.71875 16.144531 10.785156 C 16.011719 10.851562 15.886719 10.929688 15.765625 11.019531 C 15.648438 11.109375 15.539062 11.207031 15.4375 11.316406 C 15.335938 11.429688 15.246094 11.546875 15.171875 11.675781 C 15.09375 11.800781 15.027344 11.933594 14.972656 12.074219 C 14.921875 12.214844 14.882812 12.359375 14.855469 12.503906 C 14.832031 12.652344 14.820312 12.796875 14.820312 12.945312 L 14.820312 20.476562 C 14.820312 20.632812 14.789062 20.785156 14.730469 20.929688 C 14.671875 21.074219 14.582031 21.203125 14.472656 21.316406 C 14.359375 21.425781 14.234375 21.511719 14.085938 21.574219 C 13.941406 21.632812 13.789062 21.664062 13.632812 21.664062 L 12.839844 21.664062 C 12.679688 21.664062 12.53125 21.632812 12.386719 21.574219 C 12.238281 21.511719 12.113281 21.425781 12 21.316406 C 11.886719 21.203125 11.800781 21.074219 11.742188 20.929688 C 11.679688 20.785156 11.652344 20.632812 11.652344 20.476562 L 11.652344 13.089844 C 11.648438 12.734375 11.675781 12.378906 11.742188 12.027344 C 11.804688 11.675781 11.898438 11.332031 12.027344 11 C 12.15625 10.664062 12.316406 10.347656 12.503906 10.042969 C 12.691406 9.742188 12.910156 9.457031 13.152344 9.195312 C 13.394531 8.933594 13.660156 8.699219 13.949219 8.484375 C 14.238281 8.273438 14.542969 8.089844 14.863281 7.9375 C 15.1875 7.785156 15.519531 7.664062 15.867188 7.570312 C 16.210938 7.480469 16.5625 7.425781 16.921875 7.402344 C 17.265625 7.398438 17.605469 7.425781 17.945312 7.484375 C 18.285156 7.542969 18.617188 7.632812 18.9375 7.753906 C 19.261719 7.875 19.570312 8.027344 19.863281 8.203125 C 20.160156 8.382812 20.4375 8.585938 20.691406 8.816406 C 20.949219 9.046875 21.183594 9.296875 21.390625 9.570312 C 21.601562 9.84375 21.785156 10.136719 21.941406 10.441406 C 22.09375 10.75 22.222656 11.070312 22.316406 11.398438 C 22.414062 11.730469 22.476562 12.066406 22.511719 12.410156 C 22.542969 12.753906 22.546875 13.097656 22.515625 13.441406 C 22.484375 13.78125 22.421875 14.121094 22.328125 14.453125 C 22.234375 14.78125 22.113281 15.105469 21.960938 15.414062 C 21.804688 15.722656 21.625 16.011719 21.417969 16.289062 C 21.210938 16.5625 20.980469 16.816406 20.726562 17.046875 C 20.46875 17.28125 20.195312 17.488281 19.902344 17.667969 C 19.609375 17.847656 19.300781 18 18.980469 18.125 C 18.660156 18.246094 18.328125 18.339844 17.988281 18.402344 Z M 17.988281 18.402344 " fill-opacity="1" fill-rule="nonzero"/></g><path fill="#ffffff" d="M 43.222656 12.65625 C 43.710938 12.914062 44.085938 13.269531 44.355469 13.726562 C 44.625 14.1875 44.761719 14.710938 44.761719 15.304688 C 44.761719 15.898438 44.601562 16.4375 44.289062 16.921875 C 43.980469 17.410156 43.554688 17.796875 43.023438 18.082031 C 42.492188 18.363281 41.90625 18.503906 41.273438 18.503906 L 36.554688 18.503906 L 36.554688 7.414062 L 41.148438 7.414062 C 41.785156 7.414062 42.351562 7.535156 42.851562 7.785156 C 43.355469 8.03125 43.75 8.375 44.042969 8.808594 C 44.332031 9.242188 44.476562 9.726562 44.476562 10.265625 C 44.476562 10.742188 44.363281 11.191406 44.140625 11.617188 C 43.917969 12.039062 43.613281 12.386719 43.222656 12.65625 Z M 42.148438 10.644531 C 42.148438 10.296875 42.035156 10.011719 41.8125 9.792969 C 41.589844 9.566406 41.292969 9.457031 40.914062 9.457031 L 38.917969 9.457031 L 38.917969 11.820312 L 40.914062 11.820312 C 41.292969 11.820312 41.589844 11.707031 41.8125 11.488281 C 42.035156 11.265625 42.148438 10.984375 42.148438 10.644531 Z M 41.035156 16.300781 C 41.441406 16.300781 41.761719 16.1875 42 15.957031 C 42.234375 15.722656 42.355469 15.421875 42.355469 15.050781 C 42.355469 14.691406 42.234375 14.398438 42 14.167969 C 41.761719 13.933594 41.441406 13.816406 41.035156 13.816406 L 38.917969 13.816406 L 38.917969 16.300781 Z M 41.035156 16.300781 " fill-opacity="1" fill-rule="nonzero"/><path fill="#ffffff" d="M 46.199219 8.808594 L 46.199219 6.652344 L 48.515625 6.652344 L 48.515625 8.808594 Z M 46.199219 18.503906 L 46.199219 9.945312 L 48.515625 9.945312 L 48.515625 18.503906 Z M 46.199219 18.503906 " fill-opacity="1" fill-rule="nonzero"/><path fill="#ffffff" d="M 57.277344 9.945312 L 58.78125 9.945312 L 58.78125 17.507812 C 58.78125 18.40625 58.601562 19.171875 58.246094 19.820312 C 57.894531 20.460938 57.390625 20.960938 56.738281 21.308594 C 56.082031 21.65625 55.308594 21.832031 54.410156 21.832031 C 53.25 21.832031 52.277344 21.550781 51.5 20.992188 C 50.722656 20.433594 50.238281 19.667969 50.050781 18.695312 L 52.347656 18.695312 C 52.472656 19.074219 52.738281 19.359375 53.132812 19.554688 C 53.527344 19.75 53.941406 19.851562 54.363281 19.851562 C 54.953125 19.851562 55.457031 19.671875 55.875 19.316406 C 56.289062 18.964844 56.5 18.472656 56.5 17.839844 L 56.5 17.523438 C 56.160156 17.769531 55.785156 17.957031 55.371094 18.085938 C 54.960938 18.21875 54.523438 18.28125 54.058594 18.28125 C 53.269531 18.28125 52.550781 18.09375 51.90625 17.714844 C 51.261719 17.332031 50.753906 16.820312 50.378906 16.179688 C 50 15.535156 49.8125 14.808594 49.8125 14.007812 C 49.8125 13.203125 50 12.476562 50.378906 11.828125 C 50.753906 11.175781 51.261719 10.664062 51.90625 10.28125 C 52.550781 9.898438 53.269531 9.707031 54.058594 9.707031 C 54.621094 9.707031 55.144531 9.804688 55.632812 10 C 56.117188 10.1875 56.542969 10.457031 56.914062 10.804688 Z M 54.328125 16.222656 C 54.960938 16.222656 55.484375 16.015625 55.894531 15.597656 C 56.308594 15.183594 56.515625 14.652344 56.515625 14.007812 C 56.515625 13.371094 56.3125 12.847656 55.90625 12.429688 C 55.5 12.011719 54.972656 11.804688 54.328125 11.804688 C 53.707031 11.804688 53.191406 12.011719 52.777344 12.429688 C 52.367188 12.847656 52.160156 13.371094 52.160156 14.007812 C 52.160156 14.652344 52.363281 15.183594 52.769531 15.597656 C 53.175781 16.015625 53.695312 16.222656 54.328125 16.222656 Z M 54.328125 16.222656 " fill-opacity="1" fill-rule="nonzero"/><path fill="#ffffff" d="M 65.054688 7.414062 C 65.804688 7.414062 66.476562 7.582031 67.0625 7.914062 C 67.648438 8.246094 68.113281 8.699219 68.464844 9.273438 C 68.8125 9.851562 68.984375 10.503906 68.984375 11.234375 C 68.984375 11.960938 68.8125 12.613281 68.46875 13.1875 C 68.125 13.765625 67.660156 14.21875 67.066406 14.542969 C 66.476562 14.871094 65.804688 15.035156 65.054688 15.035156 L 63.203125 15.035156 L 63.203125 18.503906 L 60.792969 18.503906 L 60.792969 7.414062 Z M 64.960938 12.816406 C 65.4375 12.816406 65.820312 12.667969 66.109375 12.367188 C 66.398438 12.0625 66.542969 11.6875 66.542969 11.234375 C 66.542969 10.769531 66.398438 10.386719 66.109375 10.085938 C 65.820312 9.785156 65.4375 9.632812 64.960938 9.632812 L 63.203125 9.632812 L 63.203125 12.816406 Z M 64.960938 12.816406 " fill-opacity="1" fill-rule="nonzero"/><path fill="#ffffff" d="M 77.117188 9.929688 L 78.84375 9.929688 L 78.84375 18.488281 L 77.015625 18.488281 L 76.832031 17.730469 C 76.457031 18.046875 76.039062 18.296875 75.570312 18.472656 C 75.101562 18.652344 74.59375 18.742188 74.054688 18.742188 C 73.199219 18.742188 72.433594 18.542969 71.757812 18.148438 C 71.082031 17.753906 70.546875 17.214844 70.15625 16.535156 C 69.765625 15.851562 69.570312 15.078125 69.570312 14.214844 C 69.570312 13.355469 69.765625 12.585938 70.15625 11.90625 C 70.546875 11.222656 71.082031 10.6875 71.757812 10.296875 C 72.433594 9.90625 73.199219 9.707031 74.054688 9.707031 C 74.605469 9.707031 75.117188 9.800781 75.589844 9.988281 C 76.066406 10.175781 76.488281 10.429688 76.863281 10.757812 Z M 74.246094 16.554688 C 74.691406 16.554688 75.089844 16.457031 75.441406 16.253906 C 75.792969 16.054688 76.074219 15.777344 76.273438 15.421875 C 76.476562 15.070312 76.578125 14.664062 76.578125 14.214844 C 76.578125 13.769531 76.476562 13.371094 76.273438 13.019531 C 76.074219 12.664062 75.792969 12.382812 75.441406 12.175781 C 75.089844 11.96875 74.691406 11.863281 74.246094 11.863281 C 73.789062 11.863281 73.386719 11.96875 73.039062 12.175781 C 72.691406 12.382812 72.417969 12.664062 72.21875 13.019531 C 72.019531 13.371094 71.917969 13.769531 71.917969 14.214844 C 71.917969 14.664062 72.019531 15.066406 72.21875 15.417969 C 72.417969 15.765625 72.691406 16.042969 73.039062 16.25 C 73.386719 16.453125 73.789062 16.554688 74.246094 16.554688 Z M 74.246094 16.554688 " fill-opacity="1" fill-rule="nonzero"/><path fill="#ffffff" d="M 86.601562 9.945312 L 89.074219 9.945312 L 85.335938 18.398438 C 84.996094 19.164062 84.65625 19.785156 84.304688 20.253906 C 83.957031 20.726562 83.5625 21.066406 83.117188 21.277344 C 82.675781 21.488281 82.132812 21.59375 81.488281 21.59375 L 80.535156 21.59375 L 80.535156 19.503906 L 81.34375 19.503906 C 81.710938 19.503906 82.003906 19.460938 82.222656 19.375 C 82.441406 19.292969 82.625 19.136719 82.777344 18.910156 C 82.929688 18.679688 83.097656 18.351562 83.277344 17.921875 L 83.308594 17.855469 L 79.679688 9.945312 L 82.203125 9.945312 L 84.480469 15.210938 Z M 86.601562 9.945312 " fill-opacity="1" fill-rule="nonzero"/></svg>