<svg xmlns="http://www.w3.org/2000/svg" xmlns:xlink="http://www.w3.org/1999/xlink" width="500" zoomAndPan="magnify" viewBox="0 0 375 374.999991" height="500" preserveAspectRatio="xMidYMid meet" version="1.0"><defs><g/><clipPath id="0396a170b9"><path d="M 49.113281 145.328125 L 133.113281 145.328125 L 133.113281 229.328125 L 49.113281 229.328125 Z M 49.113281 145.328125 " clip-rule="nonzero"/></clipPath><clipPath id="d21e0476e9"><path d="M 133.453125 187.496094 C 133.453125 188.878906 133.386719 190.257812 133.25 191.632812 C 133.113281 193.003906 132.914062 194.371094 132.644531 195.726562 C 132.375 197.078125 132.039062 198.417969 131.636719 199.738281 C 131.234375 201.0625 130.773438 202.359375 130.242188 203.636719 C 129.714844 204.910156 129.125 206.160156 128.472656 207.375 C 127.824219 208.59375 127.113281 209.777344 126.347656 210.925781 C 125.578125 212.074219 124.757812 213.183594 123.882812 214.25 C 123.003906 215.316406 122.078125 216.339844 121.101562 217.316406 C 120.125 218.292969 119.101562 219.21875 118.035156 220.09375 C 116.96875 220.972656 115.859375 221.792969 114.710938 222.5625 C 113.5625 223.328125 112.378906 224.039062 111.160156 224.6875 C 109.945312 225.339844 108.695312 225.929688 107.421875 226.457031 C 106.144531 226.984375 104.847656 227.449219 103.523438 227.851562 C 102.203125 228.253906 100.863281 228.585938 99.511719 228.855469 C 98.15625 229.125 96.789062 229.328125 95.417969 229.464844 C 94.042969 229.601562 92.664062 229.667969 91.28125 229.667969 C 89.902344 229.667969 88.523438 229.601562 87.148438 229.464844 C 85.773438 229.328125 84.410156 229.125 83.054688 228.855469 C 81.703125 228.585938 80.363281 228.253906 79.042969 227.851562 C 77.71875 227.449219 76.421875 226.984375 75.144531 226.457031 C 73.871094 225.929688 72.621094 225.339844 71.40625 224.6875 C 70.1875 224.039062 69.003906 223.328125 67.855469 222.5625 C 66.707031 221.792969 65.597656 220.972656 64.53125 220.09375 C 63.464844 219.21875 62.441406 218.292969 61.464844 217.316406 C 60.488281 216.339844 59.5625 215.316406 58.683594 214.25 C 57.808594 213.183594 56.988281 212.074219 56.21875 210.925781 C 55.453125 209.777344 54.742188 208.59375 54.09375 207.375 C 53.441406 206.160156 52.851562 204.910156 52.324219 203.636719 C 51.792969 202.359375 51.328125 201.0625 50.929688 199.738281 C 50.527344 198.417969 50.191406 197.078125 49.921875 195.726562 C 49.652344 194.371094 49.453125 193.003906 49.316406 191.632812 C 49.179688 190.257812 49.113281 188.878906 49.113281 187.496094 C 49.113281 186.117188 49.179688 184.738281 49.316406 183.363281 C 49.453125 181.988281 49.652344 180.625 49.921875 179.269531 C 50.191406 177.917969 50.527344 176.578125 50.929688 175.257812 C 51.328125 173.933594 51.792969 172.636719 52.324219 171.359375 C 52.851562 170.085938 53.441406 168.835938 54.09375 167.617188 C 54.742188 166.402344 55.453125 165.21875 56.21875 164.070312 C 56.988281 162.921875 57.808594 161.8125 58.683594 160.746094 C 59.5625 159.679688 60.488281 158.65625 61.464844 157.679688 C 62.441406 156.703125 63.464844 155.777344 64.53125 154.898438 C 65.597656 154.023438 66.707031 153.203125 67.855469 152.433594 C 69.003906 151.667969 70.1875 150.957031 71.40625 150.308594 C 72.621094 149.65625 73.871094 149.066406 75.144531 148.539062 C 76.421875 148.007812 77.71875 147.542969 79.042969 147.144531 C 80.363281 146.742188 81.703125 146.40625 83.054688 146.136719 C 84.410156 145.867188 85.773438 145.667969 87.148438 145.53125 C 88.523438 145.394531 89.902344 145.328125 91.28125 145.328125 C 92.664062 145.328125 94.042969 145.394531 95.417969 145.53125 C 96.789062 145.667969 98.15625 145.867188 99.511719 146.136719 C 100.863281 146.40625 102.203125 146.742188 103.523438 147.144531 C 104.847656 147.542969 106.144531 148.007812 107.421875 148.539062 C 108.695312 149.066406 109.945312 149.65625 111.160156 150.308594 C 112.378906 150.957031 113.5625 151.667969 114.710938 152.433594 C 115.859375 153.203125 116.96875 154.023438 118.035156 154.898438 C 119.101562 155.777344 120.125 156.703125 121.101562 157.679688 C 122.078125 158.65625 123.003906 159.679688 123.882812 160.746094 C 124.757812 161.8125 125.578125 162.921875 126.347656 164.070312 C 127.113281 165.21875 127.824219 166.402344 128.472656 167.617188 C 129.125 168.835938 129.714844 170.085938 130.242188 171.359375 C 130.773438 172.636719 131.234375 173.933594 131.636719 175.257812 C 132.039062 176.578125 132.375 177.917969 132.644531 179.269531 C 132.914062 180.625 133.113281 181.988281 133.25 183.363281 C 133.386719 184.738281 133.453125 186.117188 133.453125 187.496094 Z M 133.453125 187.496094 " clip-rule="nonzero"/></clipPath><clipPath id="2bc7fbd8bb"><path d="M 57.765625 153.980469 L 124.515625 153.980469 L 124.515625 220.730469 L 57.765625 220.730469 Z M 57.765625 153.980469 " clip-rule="nonzero"/></clipPath></defs><g clip-path="url(#0396a170b9)"><g clip-path="url(#d21e0476e9)"><path fill="#ffffff" d="M 12.738281 208.328125 L 70.113281 108.953125 L 169.484375 166.328125 L 112.113281 265.699219 Z M 12.738281 208.328125 " fill-opacity="1" fill-rule="nonzero"/></g></g><g clip-path="url(#2bc7fbd8bb)"><path fill="#000000" d="M 91.28125 153.980469 C 90.183594 153.980469 89.089844 154.035156 87.996094 154.140625 C 86.90625 154.25 85.820312 154.410156 84.742188 154.625 C 83.667969 154.839844 82.601562 155.105469 81.554688 155.425781 C 80.503906 155.742188 79.46875 156.113281 78.457031 156.53125 C 77.441406 156.953125 76.449219 157.421875 75.484375 157.9375 C 74.515625 158.457031 73.574219 159.019531 72.660156 159.628906 C 71.75 160.238281 70.867188 160.890625 70.019531 161.589844 C 69.171875 162.285156 68.359375 163.019531 67.582031 163.796875 C 66.808594 164.574219 66.070312 165.386719 65.375 166.234375 C 64.679688 167.082031 64.023438 167.964844 63.414062 168.875 C 62.804688 169.789062 62.242188 170.730469 61.722656 171.699219 C 61.207031 172.664062 60.738281 173.65625 60.316406 174.671875 C 59.898438 175.683594 59.527344 176.71875 59.210938 177.765625 C 58.890625 178.816406 58.625 179.882812 58.410156 180.957031 C 58.195312 182.035156 58.035156 183.117188 57.929688 184.210938 C 57.820312 185.304688 57.765625 186.398438 57.765625 187.496094 C 57.765625 188.59375 57.820312 189.6875 57.929688 190.78125 C 58.035156 191.875 58.195312 192.957031 58.410156 194.035156 C 58.625 195.113281 58.890625 196.175781 59.210938 197.226562 C 59.527344 198.277344 59.898438 199.308594 60.316406 200.324219 C 60.738281 201.335938 61.207031 202.328125 61.722656 203.296875 C 62.242188 204.265625 62.804688 205.203125 63.414062 206.117188 C 64.023438 207.03125 64.679688 207.910156 65.375 208.757812 C 66.070312 209.605469 66.808594 210.417969 67.582031 211.195312 C 68.359375 211.972656 69.171875 212.707031 70.019531 213.40625 C 70.867188 214.101562 71.75 214.753906 72.660156 215.363281 C 73.574219 215.972656 74.515625 216.539062 75.484375 217.054688 C 76.449219 217.570312 77.441406 218.039062 78.457031 218.460938 C 79.46875 218.882812 80.503906 219.25 81.554688 219.570312 C 82.601562 219.886719 83.667969 220.152344 84.742188 220.367188 C 85.820312 220.582031 86.90625 220.742188 87.996094 220.851562 C 89.089844 220.957031 90.183594 221.011719 91.28125 221.011719 C 92.378906 221.011719 93.476562 220.957031 94.566406 220.851562 C 95.660156 220.742188 96.742188 220.582031 97.820312 220.367188 C 98.898438 220.152344 99.960938 219.886719 101.011719 219.570312 C 102.0625 219.25 103.09375 218.882812 104.109375 218.460938 C 105.121094 218.039062 106.113281 217.570312 107.082031 217.054688 C 108.050781 216.539062 108.988281 215.972656 109.902344 215.363281 C 110.816406 214.753906 111.695312 214.101562 112.542969 213.40625 C 113.394531 212.707031 114.203125 211.972656 114.980469 211.195312 C 115.757812 210.417969 116.492188 209.605469 117.191406 208.757812 C 117.886719 207.910156 118.539062 207.03125 119.148438 206.117188 C 119.757812 205.203125 120.324219 204.265625 120.839844 203.296875 C 121.359375 202.328125 121.828125 201.335938 122.246094 200.324219 C 122.667969 199.308594 123.035156 198.277344 123.355469 197.226562 C 123.671875 196.175781 123.941406 195.113281 124.152344 194.035156 C 124.367188 192.957031 124.527344 191.875 124.636719 190.78125 C 124.742188 189.6875 124.796875 188.59375 124.796875 187.496094 C 124.796875 186.398438 124.742188 185.304688 124.636719 184.210938 C 124.527344 183.117188 124.367188 182.035156 124.152344 180.957031 C 123.941406 179.882812 123.671875 178.816406 123.355469 177.765625 C 123.035156 176.71875 122.667969 175.683594 122.246094 174.671875 C 121.828125 173.65625 121.359375 172.664062 120.839844 171.699219 C 120.324219 170.730469 119.757812 169.789062 119.148438 168.875 C 118.539062 167.964844 117.886719 167.082031 117.191406 166.234375 C 116.492188 165.386719 115.757812 164.574219 114.980469 163.796875 C 114.203125 163.019531 113.394531 162.285156 112.542969 161.589844 C 111.695312 160.890625 110.816406 160.238281 109.902344 159.628906 C 108.988281 159.019531 108.050781 158.457031 107.082031 157.9375 C 106.113281 157.421875 105.121094 156.953125 104.109375 156.53125 C 103.09375 156.113281 102.0625 155.742188 101.011719 155.425781 C 99.960938 155.105469 98.898438 154.839844 97.820312 154.625 C 96.742188 154.410156 95.660156 154.25 94.566406 154.140625 C 93.476562 154.035156 92.378906 153.980469 91.28125 153.980469 Z M 96.070312 199.191406 C 95.769531 199.234375 95.476562 199.214844 95.183594 199.128906 C 94.894531 199.042969 94.632812 198.902344 94.40625 198.707031 C 94.175781 198.507812 93.996094 198.273438 93.871094 198 C 93.742188 197.722656 93.679688 197.433594 93.675781 197.132812 L 93.675781 191.625 C 93.675781 191.394531 93.714844 191.167969 93.789062 190.945312 C 93.867188 190.726562 93.976562 190.523438 94.121094 190.34375 C 94.265625 190.160156 94.4375 190.007812 94.632812 189.882812 C 94.828125 189.757812 95.042969 189.667969 95.269531 189.617188 C 95.707031 189.515625 96.132812 189.375 96.546875 189.195312 C 96.957031 189.015625 97.351562 188.796875 97.722656 188.542969 C 98.09375 188.289062 98.441406 188.003906 98.757812 187.683594 C 99.078125 187.367188 99.363281 187.019531 99.617188 186.648438 C 99.867188 186.277344 100.085938 185.882812 100.265625 185.46875 C 100.445312 185.054688 100.582031 184.628906 100.679688 184.191406 C 100.78125 183.75 100.835938 183.308594 100.851562 182.855469 C 100.867188 182.40625 100.839844 181.957031 100.773438 181.511719 C 100.703125 181.070312 100.59375 180.632812 100.445312 180.210938 C 100.292969 179.785156 100.105469 179.378906 99.875 178.988281 C 99.648438 178.601562 99.386719 178.234375 99.09375 177.894531 C 98.796875 177.554688 98.472656 177.246094 98.117188 176.96875 C 97.765625 176.691406 97.386719 176.445312 96.988281 176.238281 C 96.585938 176.03125 96.171875 175.863281 95.742188 175.734375 C 95.308594 175.605469 94.871094 175.515625 94.421875 175.46875 C 93.972656 175.421875 93.523438 175.417969 93.078125 175.457031 C 92.628906 175.492188 92.1875 175.570312 91.753906 175.691406 C 91.316406 175.8125 90.898438 175.972656 90.496094 176.171875 C 90.089844 176.371094 89.710938 176.605469 89.351562 176.878906 C 88.992188 177.148438 88.660156 177.453125 88.355469 177.785156 C 88.054688 178.121094 87.785156 178.476562 87.550781 178.863281 C 87.316406 179.246094 87.117188 179.648438 86.957031 180.070312 C 86.800781 180.492188 86.679688 180.925781 86.601562 181.367188 C 86.523438 181.8125 86.488281 182.257812 86.492188 182.707031 L 86.492188 205.453125 C 86.492188 205.925781 86.402344 206.386719 86.222656 206.824219 C 86.039062 207.265625 85.777344 207.652344 85.441406 207.992188 C 85.105469 208.328125 84.71875 208.585938 84.277344 208.769531 C 83.835938 208.953125 83.378906 209.042969 82.902344 209.042969 L 80.507812 209.042969 C 80.03125 209.042969 79.574219 208.953125 79.136719 208.769531 C 78.695312 208.585938 78.308594 208.328125 77.96875 207.992188 C 77.632812 207.652344 77.375 207.265625 77.191406 206.824219 C 77.007812 206.386719 76.917969 205.925781 76.917969 205.453125 L 76.917969 183.140625 C 76.90625 182.058594 76.996094 180.988281 77.1875 179.925781 C 77.378906 178.863281 77.667969 177.828125 78.058594 176.820312 C 78.445312 175.8125 78.925781 174.851562 79.496094 173.9375 C 80.066406 173.019531 80.71875 172.164062 81.453125 171.375 C 82.1875 170.582031 82.988281 169.867188 83.859375 169.226562 C 84.730469 168.585938 85.652344 168.035156 86.625 167.570312 C 87.601562 167.105469 88.609375 166.738281 89.65625 166.464844 C 90.699219 166.191406 91.761719 166.019531 92.839844 165.949219 C 93.878906 165.9375 94.914062 166.019531 95.9375 166.199219 C 96.964844 166.378906 97.964844 166.652344 98.9375 167.015625 C 99.914062 167.382812 100.84375 167.835938 101.734375 168.375 C 102.625 168.914062 103.460938 169.53125 104.234375 170.226562 C 105.011719 170.921875 105.714844 171.679688 106.347656 172.507812 C 106.980469 173.332031 107.535156 174.210938 108.003906 175.140625 C 108.472656 176.066406 108.855469 177.03125 109.144531 178.03125 C 109.433594 179.03125 109.628906 180.050781 109.730469 181.085938 C 109.832031 182.121094 109.835938 183.160156 109.742188 184.195312 C 109.652344 185.230469 109.464844 186.25 109.183594 187.253906 C 108.898438 188.253906 108.527344 189.222656 108.0625 190.15625 C 107.601562 191.089844 107.054688 191.96875 106.429688 192.800781 C 105.800781 193.632812 105.105469 194.398438 104.335938 195.097656 C 103.5625 195.800781 102.738281 196.421875 101.851562 196.96875 C 100.964844 197.515625 100.035156 197.976562 99.0625 198.351562 C 98.09375 198.722656 97.09375 199.003906 96.070312 199.191406 Z M 96.070312 199.191406 " fill-opacity="1" fill-rule="nonzero"/></g><g fill="#ffffff" fill-opacity="1"><g transform="translate(148.328945, 199.499987)"><g><path d="M 23.984375 -17.671875 C 25.453125 -16.898438 26.59375 -15.820312 27.40625 -14.4375 C 28.21875 -13.050781 28.625 -11.460938 28.625 -9.671875 C 28.625 -7.878906 28.148438 -6.25 27.203125 -4.78125 C 26.265625 -3.3125 24.988281 -2.144531 23.375 -1.28125 C 21.769531 -0.425781 20.007812 0 18.09375 0 L 3.828125 0 L 3.828125 -33.515625 L 17.71875 -33.515625 C 19.632812 -33.515625 21.347656 -33.140625 22.859375 -32.390625 C 24.378906 -31.640625 25.578125 -30.609375 26.453125 -29.296875 C 27.328125 -27.992188 27.765625 -26.523438 27.765625 -24.890625 C 27.765625 -23.453125 27.425781 -22.09375 26.75 -20.8125 C 26.082031 -19.539062 25.160156 -18.492188 23.984375 -17.671875 Z M 20.734375 -23.75 C 20.734375 -24.800781 20.394531 -25.660156 19.71875 -26.328125 C 19.050781 -27.003906 18.144531 -27.34375 17 -27.34375 L 10.96875 -27.34375 L 10.96875 -20.203125 L 17 -20.203125 C 18.144531 -20.203125 19.050781 -20.535156 19.71875 -21.203125 C 20.394531 -21.878906 20.734375 -22.726562 20.734375 -23.75 Z M 17.375 -6.65625 C 18.59375 -6.65625 19.5625 -7.003906 20.28125 -7.703125 C 21 -8.410156 21.359375 -9.320312 21.359375 -10.4375 C 21.359375 -11.519531 21 -12.410156 20.28125 -13.109375 C 19.5625 -13.816406 18.59375 -14.171875 17.375 -14.171875 L 10.96875 -14.171875 L 10.96875 -6.65625 Z M 17.375 -6.65625 "/></g></g></g><g fill="#ffffff" fill-opacity="1"><g transform="translate(177.961147, 199.499987)"><g><path d="M 3.34375 -29.296875 L 3.34375 -35.8125 L 10.34375 -35.8125 L 10.34375 -29.296875 Z M 3.34375 0 L 3.34375 -25.859375 L 10.34375 -25.859375 L 10.34375 0 Z M 3.34375 0 "/></g></g></g><g fill="#ffffff" fill-opacity="1"><g transform="translate(190.551209, 199.499987)"><g><path d="M 24.21875 -25.859375 L 28.765625 -25.859375 L 28.765625 -3.015625 C 28.765625 -0.304688 28.226562 2.019531 27.15625 3.96875 C 26.09375 5.914062 24.570312 7.414062 22.59375 8.46875 C 20.613281 9.519531 18.269531 10.046875 15.5625 10.046875 C 12.050781 10.046875 9.117188 9.203125 6.765625 7.515625 C 4.421875 5.828125 2.960938 3.515625 2.390625 0.578125 L 9.328125 0.578125 C 9.710938 1.722656 10.503906 2.585938 11.703125 3.171875 C 12.898438 3.765625 14.140625 4.0625 15.421875 4.0625 C 17.203125 4.0625 18.722656 3.523438 19.984375 2.453125 C 21.242188 1.390625 21.875 -0.0976562 21.875 -2.015625 L 21.875 -2.96875 C 20.851562 -2.226562 19.71875 -1.660156 18.46875 -1.265625 C 17.226562 -0.867188 15.90625 -0.671875 14.5 -0.671875 C 12.113281 -0.671875 9.945312 -1.242188 8 -2.390625 C 6.050781 -3.546875 4.507812 -5.09375 3.375 -7.03125 C 2.238281 -8.976562 1.671875 -11.164062 1.671875 -13.59375 C 1.671875 -16.019531 2.238281 -18.210938 3.375 -20.171875 C 4.507812 -22.140625 6.050781 -23.695312 8 -24.84375 C 9.945312 -26 12.113281 -26.578125 14.5 -26.578125 C 16.195312 -26.578125 17.78125 -26.285156 19.25 -25.703125 C 20.71875 -25.128906 22.007812 -24.316406 23.125 -23.265625 Z M 15.3125 -6.890625 C 17.226562 -6.890625 18.804688 -7.519531 20.046875 -8.78125 C 21.296875 -10.039062 21.921875 -11.644531 21.921875 -13.59375 C 21.921875 -15.507812 21.304688 -17.097656 20.078125 -18.359375 C 18.847656 -19.617188 17.257812 -20.25 15.3125 -20.25 C 13.4375 -20.25 11.875 -19.617188 10.625 -18.359375 C 9.382812 -17.097656 8.765625 -15.507812 8.765625 -13.59375 C 8.765625 -11.644531 9.378906 -10.039062 10.609375 -8.78125 C 11.835938 -7.519531 13.40625 -6.890625 15.3125 -6.890625 Z M 15.3125 -6.890625 "/></g></g></g><g fill="#ffffff" fill-opacity="1"><g transform="translate(221.571671, 199.499987)"><g><path d="M 16.703125 -33.515625 C 18.972656 -33.515625 20.992188 -33.007812 22.765625 -32 C 24.535156 -31 25.945312 -29.628906 27 -27.890625 C 28.050781 -26.148438 28.578125 -24.175781 28.578125 -21.96875 C 28.578125 -19.769531 28.054688 -17.800781 27.015625 -16.0625 C 25.984375 -14.320312 24.570312 -12.957031 22.78125 -11.96875 C 21 -10.976562 18.972656 -10.484375 16.703125 -10.484375 L 11.109375 -10.484375 L 11.109375 0 L 3.828125 0 L 3.828125 -33.515625 Z M 16.421875 -17.1875 C 17.859375 -17.1875 19.015625 -17.640625 19.890625 -18.546875 C 20.765625 -19.460938 21.203125 -20.601562 21.203125 -21.96875 C 21.203125 -23.375 20.765625 -24.53125 19.890625 -25.4375 C 19.015625 -26.351562 17.859375 -26.8125 16.421875 -26.8125 L 11.109375 -26.8125 L 11.109375 -17.1875 Z M 16.421875 -17.1875 "/></g></g></g><g fill="#ffffff" fill-opacity="1"><g transform="translate(250.24645, 199.499987)"><g><path d="M 24.46875 -25.90625 L 29.6875 -25.90625 L 29.6875 -0.046875 L 24.171875 -0.046875 L 23.609375 -2.34375 C 22.484375 -1.382812 21.210938 -0.632812 19.796875 -0.09375 C 18.378906 0.445312 16.851562 0.71875 15.21875 0.71875 C 12.632812 0.71875 10.320312 0.117188 8.28125 -1.078125 C 6.238281 -2.273438 4.625 -3.898438 3.4375 -5.953125 C 2.257812 -8.015625 1.671875 -10.351562 1.671875 -12.96875 C 1.671875 -15.5625 2.257812 -17.882812 3.4375 -19.9375 C 4.625 -22 6.238281 -23.617188 8.28125 -24.796875 C 10.320312 -25.984375 12.632812 -26.578125 15.21875 -26.578125 C 16.882812 -26.578125 18.429688 -26.296875 19.859375 -25.734375 C 21.296875 -25.171875 22.578125 -24.394531 23.703125 -23.40625 Z M 15.796875 -5.890625 C 17.140625 -5.890625 18.34375 -6.191406 19.40625 -6.796875 C 20.476562 -7.398438 21.316406 -8.238281 21.921875 -9.3125 C 22.535156 -10.382812 22.84375 -11.601562 22.84375 -12.96875 C 22.84375 -14.3125 22.535156 -15.515625 21.921875 -16.578125 C 21.316406 -17.648438 20.476562 -18.5 19.40625 -19.125 C 18.34375 -19.75 17.140625 -20.0625 15.796875 -20.0625 C 14.421875 -20.0625 13.207031 -19.75 12.15625 -19.125 C 11.101562 -18.5 10.273438 -17.648438 9.671875 -16.578125 C 9.066406 -15.515625 8.765625 -14.3125 8.765625 -12.96875 C 8.765625 -11.601562 9.066406 -10.390625 9.671875 -9.328125 C 10.273438 -8.273438 11.101562 -7.4375 12.15625 -6.8125 C 13.207031 -6.195312 14.421875 -5.890625 15.796875 -5.890625 Z M 15.796875 -5.890625 "/></g></g></g><g fill="#ffffff" fill-opacity="1"><g transform="translate(282.17647, 199.499987)"><g><path d="M 21.203125 -25.859375 L 28.671875 -25.859375 L 17.375 -0.328125 C 16.351562 1.992188 15.316406 3.863281 14.265625 5.28125 C 13.210938 6.707031 12.015625 7.738281 10.671875 8.375 C 9.335938 9.007812 7.695312 9.328125 5.75 9.328125 L 2.875 9.328125 L 2.875 3.015625 L 5.3125 3.015625 C 6.425781 3.015625 7.3125 2.882812 7.96875 2.625 C 8.625 2.375 9.179688 1.90625 9.640625 1.21875 C 10.109375 0.53125 10.613281 -0.460938 11.15625 -1.765625 L 11.25 -1.96875 L 0.28125 -25.859375 L 7.90625 -25.859375 L 14.796875 -9.953125 Z M 21.203125 -25.859375 "/></g></g></g></svg>