<svg xmlns="http://www.w3.org/2000/svg" xmlns:xlink="http://www.w3.org/1999/xlink" width="500" zoomAndPan="magnify" viewBox="0 0 375 374.999991" height="500" preserveAspectRatio="xMidYMid meet" version="1.0"><defs><clipPath id="80aadf18ef"><path d="M 74.519531 74.519531 L 300.269531 74.519531 L 300.269531 300.269531 L 74.519531 300.269531 Z M 74.519531 74.519531 " clip-rule="nonzero"/></clipPath><clipPath id="0756dab5d6"><path d="M 300.46875 187.496094 C 300.46875 189.34375 300.425781 191.191406 300.332031 193.039062 C 300.242188 194.886719 300.105469 196.730469 299.925781 198.570312 C 299.746094 200.410156 299.519531 202.242188 299.246094 204.070312 C 298.976562 205.902344 298.660156 207.722656 298.300781 209.535156 C 297.9375 211.347656 297.535156 213.152344 297.085938 214.945312 C 296.636719 216.738281 296.140625 218.519531 295.605469 220.289062 C 295.070312 222.058594 294.488281 223.816406 293.867188 225.554688 C 293.242188 227.296875 292.578125 229.019531 291.871094 230.730469 C 291.164062 232.4375 290.414062 234.125 289.625 235.796875 C 288.832031 237.46875 288 239.121094 287.128906 240.75 C 286.257812 242.382812 285.347656 243.988281 284.398438 245.574219 C 283.445312 247.160156 282.457031 248.722656 281.429688 250.261719 C 280.402344 251.796875 279.339844 253.308594 278.238281 254.792969 C 277.136719 256.28125 276 257.738281 274.824219 259.164062 C 273.652344 260.59375 272.445312 261.996094 271.203125 263.363281 C 269.960938 264.734375 268.6875 266.074219 267.378906 267.378906 C 266.074219 268.6875 264.734375 269.960938 263.363281 271.203125 C 261.996094 272.445312 260.59375 273.652344 259.164062 274.824219 C 257.738281 276 256.28125 277.136719 254.792969 278.238281 C 253.308594 279.339844 251.796875 280.402344 250.261719 281.429688 C 248.722656 282.457031 247.160156 283.445312 245.574219 284.398438 C 243.988281 285.347656 242.382812 286.257812 240.75 287.128906 C 239.121094 288 237.46875 288.832031 235.796875 289.625 C 234.125 290.414062 232.4375 291.164062 230.730469 291.871094 C 229.019531 292.578125 227.296875 293.242188 225.554688 293.867188 C 223.816406 294.488281 222.058594 295.070312 220.289062 295.605469 C 218.519531 296.140625 216.738281 296.636719 214.945312 297.085938 C 213.152344 297.535156 211.347656 297.9375 209.535156 298.300781 C 207.722656 298.660156 205.902344 298.976562 204.070312 299.246094 C 202.242188 299.519531 200.410156 299.746094 198.570312 299.925781 C 196.730469 300.105469 194.886719 300.242188 193.039062 300.332031 C 191.191406 300.425781 189.34375 300.46875 187.496094 300.46875 C 185.648438 300.46875 183.796875 300.425781 181.953125 300.332031 C 180.105469 300.242188 178.261719 300.105469 176.421875 299.925781 C 174.582031 299.746094 172.746094 299.519531 170.917969 299.246094 C 169.089844 298.976562 167.269531 298.660156 165.457031 298.300781 C 163.640625 297.9375 161.839844 297.535156 160.042969 297.085938 C 158.25 296.636719 156.46875 296.140625 154.699219 295.605469 C 152.929688 295.070312 151.175781 294.488281 149.433594 293.867188 C 147.695312 293.242188 145.96875 292.578125 144.261719 291.871094 C 142.554688 291.164062 140.863281 290.414062 139.191406 289.625 C 137.519531 288.832031 135.871094 288 134.238281 287.128906 C 132.609375 286.257812 131 285.347656 129.414062 284.398438 C 127.828125 283.445312 126.265625 282.457031 124.730469 281.429688 C 123.191406 280.402344 121.679688 279.339844 120.195312 278.238281 C 118.710938 277.136719 117.253906 276 115.824219 274.824219 C 114.394531 273.652344 112.996094 272.445312 111.625 271.203125 C 110.257812 269.960938 108.917969 268.6875 107.609375 267.378906 C 106.304688 266.074219 105.027344 264.734375 103.785156 263.363281 C 102.546875 261.996094 101.335938 260.59375 100.164062 259.164062 C 98.992188 257.738281 97.855469 256.28125 96.753906 254.792969 C 95.652344 253.308594 94.585938 251.796875 93.558594 250.261719 C 92.535156 248.722656 91.542969 247.160156 90.59375 245.574219 C 89.644531 243.988281 88.730469 242.382812 87.859375 240.75 C 86.988281 239.121094 86.15625 237.46875 85.367188 235.796875 C 84.578125 234.125 83.828125 232.4375 83.121094 230.730469 C 82.414062 229.019531 81.746094 227.296875 81.125 225.554688 C 80.503906 223.816406 79.921875 222.058594 79.386719 220.289062 C 78.847656 218.519531 78.355469 216.738281 77.90625 214.945312 C 77.457031 213.152344 77.050781 211.347656 76.691406 209.535156 C 76.332031 207.722656 76.015625 205.902344 75.742188 204.070312 C 75.472656 202.242188 75.246094 200.410156 75.066406 198.570312 C 74.882812 196.730469 74.746094 194.886719 74.65625 193.039062 C 74.566406 191.191406 74.519531 189.34375 74.519531 187.496094 C 74.519531 185.648438 74.566406 183.796875 74.65625 181.953125 C 74.746094 180.105469 74.882812 178.261719 75.066406 176.421875 C 75.246094 174.582031 75.472656 172.746094 75.742188 170.917969 C 76.015625 169.089844 76.332031 167.269531 76.691406 165.457031 C 77.050781 163.640625 77.457031 161.839844 77.90625 160.042969 C 78.355469 158.25 78.847656 156.46875 79.386719 154.699219 C 79.921875 152.929688 80.503906 151.175781 81.125 149.433594 C 81.746094 147.695312 82.414062 145.96875 83.121094 144.261719 C 83.828125 142.554688 84.578125 140.863281 85.367188 139.191406 C 86.15625 137.519531 86.988281 135.871094 87.859375 134.238281 C 88.730469 132.609375 89.644531 131 90.59375 129.414062 C 91.542969 127.828125 92.535156 126.265625 93.558594 124.730469 C 94.585938 123.191406 95.652344 121.679688 96.753906 120.195312 C 97.855469 118.710938 98.992188 117.253906 100.164062 115.824219 C 101.335938 114.394531 102.546875 112.996094 103.785156 111.625 C 105.027344 110.257812 106.304688 108.917969 107.609375 107.609375 C 108.917969 106.304688 110.257812 105.027344 111.625 103.785156 C 112.996094 102.546875 114.394531 101.335938 115.824219 100.164062 C 117.253906 98.992188 118.710938 97.855469 120.195312 96.753906 C 121.679688 95.652344 123.191406 94.585938 124.730469 93.558594 C 126.265625 92.535156 127.828125 91.542969 129.414062 90.59375 C 131 89.644531 132.609375 88.730469 134.238281 87.859375 C 135.871094 86.988281 137.519531 86.15625 139.191406 85.367188 C 140.863281 84.578125 142.554688 83.828125 144.261719 83.121094 C 145.96875 82.414062 147.695312 81.746094 149.433594 81.125 C 151.175781 80.503906 152.929688 79.921875 154.699219 79.386719 C 156.46875 78.847656 158.25 78.355469 160.042969 77.90625 C 161.839844 77.457031 163.640625 77.050781 165.457031 76.691406 C 167.269531 76.332031 169.089844 76.015625 170.917969 75.742188 C 172.746094 75.472656 174.582031 75.246094 176.421875 75.066406 C 178.261719 74.882812 180.105469 74.746094 181.953125 74.65625 C 183.796875 74.566406 185.648438 74.519531 187.496094 74.519531 C 189.34375 74.519531 191.191406 74.566406 193.039062 74.65625 C 194.886719 74.746094 196.730469 74.882812 198.570312 75.066406 C 200.410156 75.246094 202.242188 75.472656 204.070312 75.742188 C 205.902344 76.015625 207.722656 76.332031 209.535156 76.691406 C 211.347656 77.050781 213.152344 77.457031 214.945312 77.90625 C 216.738281 78.355469 218.519531 78.847656 220.289062 79.386719 C 222.058594 79.921875 223.816406 80.503906 225.554688 81.125 C 227.296875 81.746094 229.019531 82.414062 230.730469 83.121094 C 232.4375 83.828125 234.125 84.578125 235.796875 85.367188 C 237.46875 86.15625 239.121094 86.988281 240.75 87.859375 C 242.382812 88.730469 243.988281 89.644531 245.574219 90.59375 C 247.160156 91.542969 248.722656 92.535156 250.261719 93.558594 C 251.796875 94.585938 253.308594 95.652344 254.792969 96.753906 C 256.28125 97.855469 257.738281 98.992188 259.164062 100.164062 C 260.59375 101.335938 261.996094 102.546875 263.363281 103.785156 C 264.734375 105.027344 266.074219 106.304688 267.378906 107.609375 C 268.6875 108.917969 269.960938 110.257812 271.203125 111.625 C 272.445312 112.996094 273.652344 114.394531 274.824219 115.824219 C 276 117.253906 277.136719 118.710938 278.238281 120.195312 C 279.339844 121.679688 280.402344 123.191406 281.429688 124.730469 C 282.457031 126.265625 283.445312 127.828125 284.398438 129.414062 C 285.347656 131 286.257812 132.609375 287.128906 134.238281 C 288 135.871094 288.832031 137.519531 289.625 139.191406 C 290.414062 140.863281 291.164062 142.554688 291.871094 144.261719 C 292.578125 145.96875 293.242188 147.695312 293.867188 149.433594 C 294.488281 151.175781 295.070312 152.929688 295.605469 154.699219 C 296.140625 156.46875 296.636719 158.25 297.085938 160.042969 C 297.535156 161.839844 297.9375 163.640625 298.300781 165.457031 C 298.660156 167.269531 298.976562 169.089844 299.246094 170.917969 C 299.519531 172.746094 299.746094 174.582031 299.925781 176.421875 C 300.105469 178.261719 300.242188 180.105469 300.332031 181.953125 C 300.425781 183.796875 300.46875 185.648438 300.46875 187.496094 Z M 300.46875 187.496094 " clip-rule="nonzero"/></clipPath><clipPath id="fbb194af53"><path d="M 97.703125 97.703125 L 276.953125 97.703125 L 276.953125 276.953125 L 97.703125 276.953125 Z M 97.703125 97.703125 " clip-rule="nonzero"/></clipPath></defs><g clip-path="url(#80aadf18ef)"><g clip-path="url(#0756dab5d6)"><path fill="#ffffff" d="M -23.230469 243.832031 L 130.957031 -23.230469 L 398.023438 130.957031 L 243.832031 398.023438 Z M -23.230469 243.832031 " fill-opacity="1" fill-rule="nonzero"/></g></g><g clip-path="url(#fbb194af53)"><path fill="#000000" d="M 187.496094 97.703125 C 186.027344 97.703125 184.558594 97.738281 183.089844 97.8125 C 181.625 97.882812 180.160156 97.992188 178.695312 98.136719 C 177.234375 98.277344 175.777344 98.460938 174.320312 98.675781 C 172.867188 98.890625 171.421875 99.140625 169.980469 99.429688 C 168.539062 99.714844 167.105469 100.035156 165.679688 100.394531 C 164.253906 100.75 162.835938 101.144531 161.429688 101.570312 C 160.023438 101.996094 158.628906 102.457031 157.246094 102.953125 C 155.863281 103.445312 154.492188 103.976562 153.132812 104.539062 C 151.777344 105.101562 150.433594 105.695312 149.105469 106.324219 C 147.777344 106.953125 146.464844 107.613281 145.167969 108.304688 C 143.871094 109 142.59375 109.722656 141.332031 110.476562 C 140.074219 111.234375 138.832031 112.019531 137.609375 112.835938 C 136.386719 113.652344 135.1875 114.5 134.007812 115.375 C 132.828125 116.25 131.667969 117.152344 130.53125 118.085938 C 129.394531 119.015625 128.285156 119.976562 127.195312 120.964844 C 126.105469 121.949219 125.042969 122.964844 124.003906 124.003906 C 122.964844 125.042969 121.949219 126.105469 120.964844 127.195312 C 119.976562 128.285156 119.015625 129.394531 118.085938 130.53125 C 117.152344 131.667969 116.25 132.828125 115.375 134.007812 C 114.5 135.1875 113.652344 136.386719 112.835938 137.609375 C 112.019531 138.832031 111.234375 140.074219 110.476562 141.332031 C 109.722656 142.59375 109 143.871094 108.304688 145.167969 C 107.613281 146.464844 106.953125 147.777344 106.324219 149.105469 C 105.695312 150.433594 105.101562 151.777344 104.539062 153.132812 C 103.976562 154.492188 103.445312 155.863281 102.953125 157.246094 C 102.457031 158.628906 101.996094 160.023438 101.570312 161.429688 C 101.144531 162.835938 100.75 164.253906 100.394531 165.679688 C 100.035156 167.105469 99.714844 168.539062 99.429688 169.980469 C 99.140625 171.421875 98.890625 172.867188 98.675781 174.320312 C 98.457031 175.777344 98.277344 177.234375 98.136719 178.695312 C 97.992188 180.160156 97.882812 181.625 97.8125 183.089844 C 97.738281 184.558594 97.703125 186.027344 97.703125 187.496094 C 97.703125 188.96875 97.738281 190.4375 97.8125 191.902344 C 97.882812 193.371094 97.992188 194.835938 98.136719 196.300781 C 98.277344 197.761719 98.457031 199.21875 98.675781 200.671875 C 98.890625 202.125 99.140625 203.574219 99.429688 205.015625 C 99.714844 206.457031 100.035156 207.890625 100.394531 209.316406 C 100.75 210.742188 101.144531 212.15625 101.570312 213.5625 C 101.996094 214.96875 102.457031 216.363281 102.953125 217.75 C 103.445312 219.132812 103.976562 220.503906 104.539062 221.859375 C 105.101562 223.21875 105.695312 224.5625 106.324219 225.890625 C 106.953125 227.21875 107.613281 228.53125 108.304688 229.828125 C 109 231.121094 109.722656 232.402344 110.476562 233.660156 C 111.234375 234.921875 112.019531 236.164062 112.835938 237.386719 C 113.652344 238.605469 114.5 239.808594 115.375 240.988281 C 116.25 242.167969 117.152344 243.328125 118.085938 244.464844 C 119.015625 245.597656 119.976562 246.710938 120.964844 247.800781 C 121.949219 248.890625 122.964844 249.953125 124.003906 250.992188 C 125.042969 252.03125 126.105469 253.042969 127.195312 254.03125 C 128.285156 255.019531 129.394531 255.976562 130.53125 256.910156 C 131.667969 257.84375 132.828125 258.746094 134.007812 259.621094 C 135.1875 260.496094 136.386719 261.34375 137.609375 262.160156 C 138.832031 262.976562 140.074219 263.761719 141.332031 264.515625 C 142.59375 265.273438 143.871094 265.996094 145.167969 266.691406 C 146.464844 267.382812 147.777344 268.042969 149.105469 268.671875 C 150.433594 269.300781 151.777344 269.894531 153.132812 270.457031 C 154.492188 271.019531 155.863281 271.546875 157.246094 272.042969 C 158.628906 272.539062 160.023438 273 161.429688 273.425781 C 162.835938 273.851562 164.253906 274.246094 165.679688 274.601562 C 167.105469 274.957031 168.539062 275.28125 169.980469 275.566406 C 171.421875 275.855469 172.867188 276.105469 174.320312 276.320312 C 175.777344 276.535156 177.234375 276.714844 178.695312 276.859375 C 180.160156 277.003906 181.625 277.113281 183.089844 277.183594 C 184.558594 277.257812 186.027344 277.292969 187.496094 277.292969 C 188.96875 277.292969 190.4375 277.257812 191.902344 277.183594 C 193.371094 277.113281 194.835938 277.003906 196.300781 276.859375 C 197.761719 276.714844 199.21875 276.535156 200.671875 276.320312 C 202.125 276.105469 203.574219 275.855469 205.015625 275.566406 C 206.457031 275.28125 207.890625 274.957031 209.316406 274.601562 C 210.742188 274.246094 212.15625 273.851562 213.5625 273.425781 C 214.96875 273 216.363281 272.539062 217.75 272.042969 C 219.132812 271.546875 220.503906 271.019531 221.859375 270.457031 C 223.21875 269.894531 224.5625 269.300781 225.890625 268.671875 C 227.21875 268.042969 228.53125 267.382812 229.828125 266.691406 C 231.121094 265.996094 232.402344 265.273438 233.660156 264.515625 C 234.921875 263.761719 236.164062 262.976562 237.386719 262.160156 C 238.605469 261.34375 239.808594 260.496094 240.988281 259.621094 C 242.167969 258.746094 243.328125 257.84375 244.464844 256.910156 C 245.597656 255.976562 246.710938 255.019531 247.800781 254.03125 C 248.890625 253.042969 249.953125 252.03125 250.992188 250.992188 C 252.03125 249.953125 253.042969 248.890625 254.03125 247.800781 C 255.019531 246.710938 255.976562 245.597656 256.910156 244.464844 C 257.84375 243.328125 258.746094 242.167969 259.621094 240.988281 C 260.496094 239.808594 261.34375 238.605469 262.160156 237.386719 C 262.976562 236.164062 263.761719 234.921875 264.515625 233.660156 C 265.273438 232.402344 265.996094 231.121094 266.691406 229.828125 C 267.382812 228.53125 268.042969 227.21875 268.671875 225.890625 C 269.300781 224.5625 269.894531 223.21875 270.457031 221.859375 C 271.019531 220.503906 271.546875 219.132812 272.042969 217.75 C 272.539062 216.363281 273 214.96875 273.425781 213.5625 C 273.851562 212.15625 274.246094 210.742188 274.601562 209.316406 C 274.957031 207.890625 275.28125 206.457031 275.566406 205.015625 C 275.855469 203.574219 276.105469 202.125 276.320312 200.671875 C 276.535156 199.21875 276.714844 197.761719 276.859375 196.300781 C 277.003906 194.835938 277.113281 193.371094 277.183594 191.902344 C 277.257812 190.4375 277.292969 188.96875 277.292969 187.496094 C 277.292969 186.027344 277.257812 184.558594 277.183594 183.089844 C 277.113281 181.625 277.003906 180.160156 276.859375 178.695312 C 276.714844 177.234375 276.535156 175.777344 276.320312 174.320312 C 276.105469 172.867188 275.855469 171.421875 275.566406 169.980469 C 275.28125 168.539062 274.957031 167.105469 274.601562 165.679688 C 274.246094 164.253906 273.851562 162.835938 273.425781 161.429688 C 273 160.023438 272.539062 158.628906 272.042969 157.246094 C 271.546875 155.863281 271.019531 154.492188 270.457031 153.132812 C 269.894531 151.777344 269.300781 150.433594 268.671875 149.105469 C 268.042969 147.777344 267.382812 146.464844 266.691406 145.167969 C 265.996094 143.871094 265.273438 142.59375 264.515625 141.332031 C 263.761719 140.074219 262.976562 138.832031 262.160156 137.609375 C 261.34375 136.386719 260.496094 135.1875 259.621094 134.007812 C 258.746094 132.828125 257.84375 131.667969 256.910156 130.53125 C 255.976562 129.394531 255.019531 128.285156 254.03125 127.195312 C 253.042969 126.105469 252.03125 125.042969 250.992188 124.003906 C 249.953125 122.964844 248.890625 121.949219 247.800781 120.964844 C 246.710938 119.976562 245.597656 119.015625 244.464844 118.085938 C 243.328125 117.152344 242.167969 116.25 240.988281 115.375 C 239.808594 114.5 238.605469 113.652344 237.386719 112.835938 C 236.164062 112.019531 234.921875 111.234375 233.660156 110.476562 C 232.402344 109.722656 231.121094 109 229.828125 108.304688 C 228.53125 107.613281 227.21875 106.953125 225.890625 106.324219 C 224.5625 105.695312 223.21875 105.101562 221.859375 104.539062 C 220.503906 103.976562 219.132812 103.445312 217.75 102.953125 C 216.363281 102.457031 214.96875 101.996094 213.5625 101.570312 C 212.15625 101.144531 210.742188 100.75 209.316406 100.394531 C 207.890625 100.035156 206.457031 99.714844 205.015625 99.429688 C 203.574219 99.140625 202.125 98.890625 200.671875 98.675781 C 199.21875 98.460938 197.761719 98.277344 196.300781 98.136719 C 194.835938 97.992188 193.371094 97.882812 191.902344 97.8125 C 190.4375 97.738281 188.96875 97.703125 187.496094 97.703125 Z M 200.324219 218.828125 C 199.929688 218.886719 199.53125 218.902344 199.128906 218.875 C 198.730469 218.84375 198.339844 218.773438 197.953125 218.664062 C 197.570312 218.550781 197.199219 218.398438 196.847656 218.207031 C 196.496094 218.019531 196.167969 217.792969 195.863281 217.53125 C 195.558594 217.269531 195.289062 216.976562 195.046875 216.660156 C 194.804688 216.339844 194.597656 215.996094 194.429688 215.632812 C 194.261719 215.269531 194.132812 214.890625 194.046875 214.5 C 193.960938 214.109375 193.914062 213.714844 193.910156 213.3125 L 193.910156 198.5625 C 193.910156 197.9375 194.011719 197.332031 194.214844 196.742188 C 194.417969 196.152344 194.714844 195.613281 195.101562 195.121094 C 195.488281 194.632812 195.949219 194.222656 196.472656 193.886719 C 197 193.554688 197.570312 193.316406 198.175781 193.175781 C 199.355469 192.90625 200.496094 192.53125 201.601562 192.050781 C 202.707031 191.566406 203.757812 190.984375 204.753906 190.304688 C 205.753906 189.625 206.675781 188.859375 207.53125 188.003906 C 208.382812 187.148438 209.148438 186.222656 209.824219 185.226562 C 210.503906 184.226562 211.082031 183.175781 211.5625 182.066406 C 212.042969 180.960938 212.414062 179.816406 212.679688 178.640625 C 212.945312 177.464844 213.097656 176.273438 213.140625 175.066406 C 213.179688 173.859375 213.109375 172.660156 212.925781 171.46875 C 212.742188 170.277344 212.445312 169.109375 212.042969 167.972656 C 211.640625 166.835938 211.132812 165.746094 210.523438 164.703125 C 209.914062 163.664062 209.214844 162.6875 208.421875 161.777344 C 207.628906 160.867188 206.757812 160.039062 205.8125 159.292969 C 204.863281 158.546875 203.855469 157.894531 202.78125 157.335938 C 201.710938 156.78125 200.597656 156.328125 199.441406 155.980469 C 198.289062 155.636719 197.109375 155.398438 195.910156 155.273438 C 194.707031 155.148438 193.507812 155.136719 192.304688 155.238281 C 191.101562 155.335938 189.917969 155.550781 188.757812 155.871094 C 187.59375 156.195312 186.472656 156.625 185.390625 157.160156 C 184.308594 157.691406 183.285156 158.324219 182.320312 159.050781 C 181.359375 159.777344 180.472656 160.585938 179.660156 161.480469 C 178.851562 162.375 178.128906 163.335938 177.5 164.363281 C 176.867188 165.394531 176.339844 166.472656 175.914062 167.601562 C 175.484375 168.730469 175.167969 169.886719 174.960938 171.078125 C 174.75 172.265625 174.652344 173.464844 174.667969 174.667969 L 174.667969 235.601562 C 174.667969 236.234375 174.609375 236.859375 174.484375 237.480469 C 174.363281 238.097656 174.179688 238.699219 173.9375 239.285156 C 173.695312 239.867188 173.398438 240.421875 173.046875 240.945312 C 172.699219 241.472656 172.296875 241.957031 171.851562 242.40625 C 171.40625 242.851562 170.917969 243.25 170.394531 243.601562 C 169.867188 243.953125 169.3125 244.25 168.730469 244.492188 C 168.148438 244.730469 167.546875 244.914062 166.925781 245.039062 C 166.304688 245.160156 165.679688 245.222656 165.050781 245.222656 L 158.636719 245.222656 C 158.003906 245.222656 157.378906 245.160156 156.757812 245.039062 C 156.136719 244.914062 155.535156 244.730469 154.953125 244.492188 C 154.371094 244.25 153.816406 243.953125 153.289062 243.601562 C 152.765625 243.25 152.277344 242.851562 151.832031 242.40625 C 151.386719 241.957031 150.988281 241.472656 150.636719 240.945312 C 150.285156 240.421875 149.988281 239.867188 149.746094 239.285156 C 149.503906 238.699219 149.320312 238.097656 149.199219 237.480469 C 149.074219 236.859375 149.015625 236.234375 149.015625 235.601562 L 149.015625 175.824219 C 148.996094 174.382812 149.050781 172.941406 149.171875 171.503906 C 149.289062 170.066406 149.480469 168.636719 149.734375 167.214844 C 149.992188 165.796875 150.3125 164.390625 150.703125 163 C 151.09375 161.609375 151.546875 160.242188 152.066406 158.898438 C 152.585938 157.550781 153.164062 156.230469 153.808594 154.941406 C 154.453125 153.648438 155.15625 152.390625 155.921875 151.164062 C 156.683594 149.941406 157.503906 148.753906 158.378906 147.609375 C 159.257812 146.460938 160.183594 145.359375 161.164062 144.300781 C 162.144531 143.242188 163.175781 142.230469 164.25 141.269531 C 165.328125 140.308594 166.445312 139.402344 167.609375 138.546875 C 168.773438 137.691406 169.972656 136.894531 171.210938 136.152344 C 172.449219 135.410156 173.71875 134.730469 175.023438 134.109375 C 176.324219 133.488281 177.652344 132.933594 179.011719 132.4375 C 180.367188 131.941406 181.742188 131.515625 183.136719 131.148438 C 184.535156 130.785156 185.945312 130.488281 187.371094 130.257812 C 188.792969 130.027344 190.226562 129.867188 191.667969 129.773438 C 193.058594 129.753906 194.449219 129.800781 195.835938 129.914062 C 197.222656 130.023438 198.601562 130.199219 199.972656 130.4375 C 201.34375 130.679688 202.699219 130.980469 204.042969 131.347656 C 205.382812 131.714844 206.707031 132.140625 208.011719 132.628906 C 209.3125 133.117188 210.589844 133.664062 211.84375 134.273438 C 213.09375 134.882812 214.316406 135.546875 215.503906 136.265625 C 216.695312 136.988281 217.847656 137.761719 218.96875 138.589844 C 220.085938 139.417969 221.164062 140.296875 222.199219 141.226562 C 223.234375 142.15625 224.226562 143.128906 225.171875 144.148438 C 226.117188 145.171875 227.015625 146.234375 227.863281 147.335938 C 228.710938 148.441406 229.503906 149.582031 230.246094 150.761719 C 230.984375 151.9375 231.671875 153.148438 232.296875 154.390625 C 232.925781 155.628906 233.496094 156.898438 234.007812 158.195312 C 234.519531 159.488281 234.96875 160.804688 235.355469 162.140625 C 235.742188 163.476562 236.070312 164.828125 236.332031 166.195312 C 236.59375 167.558594 236.792969 168.9375 236.925781 170.320312 C 237.0625 171.707031 237.132812 173.09375 237.136719 174.484375 C 237.144531 175.878906 237.085938 177.265625 236.960938 178.652344 C 236.835938 180.039062 236.648438 181.417969 236.398438 182.785156 C 236.144531 184.152344 235.832031 185.507812 235.453125 186.847656 C 235.078125 188.1875 234.636719 189.503906 234.136719 190.804688 C 233.636719 192.101562 233.078125 193.375 232.460938 194.621094 C 231.839844 195.867188 231.167969 197.082031 230.433594 198.265625 C 229.703125 199.449219 228.917969 200.597656 228.082031 201.707031 C 227.242188 202.820312 226.355469 203.890625 225.417969 204.917969 C 224.480469 205.945312 223.496094 206.929688 222.464844 207.863281 C 221.4375 208.800781 220.367188 209.6875 219.257812 210.527344 C 218.144531 211.363281 216.996094 212.148438 215.8125 212.878906 C 214.628906 213.609375 213.414062 214.28125 212.164062 214.902344 C 210.917969 215.519531 209.644531 216.078125 208.347656 216.574219 C 207.046875 217.074219 205.726562 217.511719 204.386719 217.890625 C 203.046875 218.265625 201.695312 218.578125 200.324219 218.828125 Z M 200.324219 218.828125 " fill-opacity="1" fill-rule="nonzero"/></g></svg>